<svg xmlns="http://www.w3.org/2000/svg"
viewBox = "120 500 950 950">
<g fill="#000000" fill-opacity="1.00" stroke="None">
<path d="
M 374.00 667.00
C 374.00 667.00 373.39 666.79 373.00 667.00
C 369.93 677.40 355.46 680.60 351.23 692.23 C 302.60 755.55 253.56 818.85 210.00 885.00
C 210.00 885.00 210.09 885.52 210.00 886.00
C 194.60 910.05 178.66 934.52 161.00 957.00
C 161.00 957.00 161.16 957.56 161.00 958.00
C 157.48 963.06 154.65 968.96 150.00 973.00
C 150.00 973.00 150.16 973.56 150.00 974.00
C 143.65 989.19 118.93 1001.74 129.99 1019.01 C 129.64 1036.12 147.90 1049.23 160.00 1060.00
C 166.47 1066.90 174.82 1071.23 181.00 1078.00
C 181.32 1078.24 182.00 1078.00 182.00 1078.00
C 187.43 1081.88 192.11 1085.90 197.00 1090.00
C 200.48 1092.30 204.61 1095.17 207.00 1099.00
C 207.00 1099.00 207.52 1098.91 208.00 1099.00
C 231.00 1116.70 253.26 1136.25 274.00 1156.00
C 274.00 1156.00 274.60 1155.80 275.00 1156.00
C 281.31 1161.18 287.90 1166.49 293.00 1173.00
C 318.01 1202.22 345.84 1230.21 366.92 1262.08 C 368.42 1271.55 382.05 1283.01 384.92 1267.92 C 391.19 1261.00 398.10 1251.27 398.00 1240.00 C 398.00 1199.00 398.00 1158.00 398.00 1117.00
C 398.00 1108.67 398.00 1100.33 398.00 1092.00 C 395.05 1083.71 401.01 1073.70 409.00 1081.00
C 414.00 1081.00 419.00 1081.00 424.00 1081.00
C 438.04 1081.17 452.71 1081.44 466.00 1083.00
C 480.25 1082.32 493.74 1084.68 508.00 1084.00
C 514.50 1084.66 522.33 1082.68 528.00 1085.00
C 529.88 1085.47 532.93 1083.94 534.00 1086.00
C 542.33 1086.00 550.67 1086.00 559.00 1086.00
C 590.20 1085.85 620.99 1087.34 652.00 1088.00 C 682.23 1090.38 714.65 1086.71 744.00 1091.00
C 753.33 1091.00 762.67 1091.00 772.00 1091.00
C 792.60 1090.27 812.54 1092.13 833.00 1092.00
C 838.17 1092.65 844.66 1090.69 849.00 1093.00
C 861.41 1096.01 876.36 1091.54 888.00 1096.00
C 891.00 1096.00 894.00 1096.00 897.00 1096.00
C 906.26 1095.28 914.75 1097.63 924.00 1097.00
C 929.30 1097.49 935.87 1095.60 940.00 1099.00
C 945.33 1099.00 950.67 1099.00 956.00 1099.00
C 967.59 1098.32 978.41 1100.68 990.00 1100.00
C 999.16 1101.00 1010.08 1097.81 1018.00 1102.00
C 1024.89 1102.52 1031.33 1101.41 1038.00 1101.00
C 1045.05 1101.30 1054.56 1097.42 1054.00 1089.00
C 1056.43 1085.01 1055.22 1079.25 1050.00 1079.00
C 1050.32 1073.18 1048.25 1067.94 1049.00 1062.00
C 1049.00 1059.33 1049.00 1056.67 1049.00 1054.00
C 1045.09 1046.93 1047.40 1036.43 1046.00 1028.00
C 1046.00 1025.33 1046.00 1022.67 1046.00 1020.00
C 1041.70 1013.47 1045.07 1003.79 1044.00 996.00
C 1039.43 987.85 1043.26 975.69 1042.00 966.00
C 1041.01 947.71 1044.46 927.90 1039.00 911.00
C 1032.86 907.06 1026.97 901.15 1019.00 901.00
C 1003.59 897.67 987.37 897.22 971.00 897.00
C 965.60 895.91 957.83 899.34 954.00 895.00
C 942.99 893.71 929.43 897.61 920.00 893.00
C 913.67 893.00 907.33 893.00 901.00 893.00
C 889.07 893.72 877.92 891.36 866.00 892.00
C 859.62 890.83 850.80 894.44 846.00 890.00
C 839.33 890.00 832.67 890.00 826.00 890.00
C 812.93 889.96 799.28 889.60 787.00 888.00
C 772.75 888.68 759.26 886.32 745.00 887.00
C 738.29 885.81 729.13 889.47 724.00 885.00
C 717.00 885.00 710.00 885.00 703.00 885.00
C 686.43 885.59 670.60 883.25 654.00 884.00
C 644.50 883.33 633.68 885.33 625.00 883.00
C 613.19 880.70 600.25 882.64 588.00 882.00
C 574.92 880.75 559.73 884.56 548.00 880.00
C 505.08 880.68 462.74 879.04 420.00 879.00 C 411.37 877.90 393.85 883.85 398.00 869.00 C 397.57 858.70 399.00 847.90 397.00 838.00
C 394.67 820.24 396.66 800.51 396.00 782.00 C 397.32 763.65 393.35 742.76 398.00 726.00
C 398.00 706.33 398.00 686.67 398.00 667.00
C 390.74 661.76 381.69 664.66 374.00 667.00
M 373.00 735.00
C 373.00 765.00 373.00 795.00 373.00 825.00
C 375.33 842.76 373.34 862.49 374.00 881.00
C 371.69 882.27 368.93 881.93 367.00 884.00
C 364.99 892.79 371.68 902.26 379.00 907.00
C 410.00 907.00 441.00 907.00 472.00 907.00
C 476.50 907.64 482.33 905.70 486.00 908.00
C 495.33 908.00 504.67 908.00 514.00 908.00
C 518.17 908.64 523.66 906.71 527.00 909.00
C 536.33 909.00 545.67 909.00 555.00 909.00
C 569.17 909.67 584.66 907.67 598.00 910.00
C 609.83 910.67 622.99 908.67 634.00 911.00
C 641.50 911.66 650.33 909.67 657.00 912.00
C 666.17 912.66 676.66 910.67 685.00 913.00
C 699.18 912.58 712.72 914.77 727.00 914.00
C 734.16 914.66 742.66 912.67 749.00 915.00
C 755.16 915.66 762.66 913.68 768.00 916.00
C 774.16 916.66 781.66 914.68 787.00 917.00
C 800.86 916.53 814.06 918.77 828.00 918.00
C 835.50 918.66 844.33 916.67 851.00 919.00
C 856.83 919.66 863.99 917.68 869.00 920.00
C 873.83 920.65 879.99 918.69 884.00 921.00
C 889.83 921.66 896.99 919.68 902.00 922.00
C 908.33 922.00 914.67 922.00 921.00 922.00
C 933.10 921.94 945.74 922.30 957.00 924.00
C 961.50 924.64 967.33 922.70 971.00 925.00
C 971.50 925.00 972.00 925.00 972.00 925.00
C 976.50 925.64 982.33 923.70 986.00 926.00
C 996.67 926.00 1006.49 927.52 1017.00 926.00
C 1019.30 933.42 1017.36 942.82 1018.00 951.00
C 1020.32 962.76 1018.34 976.49 1019.00 989.00
C 1021.27 994.09 1019.38 1001.16 1020.00 1007.00
C 1019.24 1014.28 1021.41 1020.80 1021.00 1028.00
C 1022.53 1033.03 1022.90 1039.26 1023.00 1045.00
C 1024.53 1050.03 1024.90 1056.26 1025.00 1062.00
C 1024.50 1065.53 1025.72 1070.53 1025.00 1073.00
C 1021.73 1074.59 1015.20 1074.71 1012.00 1073.00
C 1004.50 1072.34 995.67 1074.33 989.00 1072.00
C 982.84 1071.34 975.34 1073.32 970.00 1071.00
C 959.06 1071.74 948.91 1069.41 938.00 1070.00
C 933.50 1069.36 927.67 1071.30 924.00 1069.00
C 919.83 1068.36 914.34 1070.29 911.00 1068.00
C 906.83 1067.36 901.34 1069.29 898.00 1067.00
C 893.33 1067.00 888.67 1067.00 884.00 1067.00
C 872.27 1066.95 859.95 1066.60 849.00 1065.00
C 842.50 1064.34 834.67 1066.32 829.00 1064.00
C 820.84 1063.34 811.34 1065.33 804.00 1063.00
C 803.50 1063.00 803.00 1063.00 803.00 1063.00
C 792.17 1062.33 780.01 1064.33 770.00 1062.00
C 757.67 1062.00 745.33 1062.00 733.00 1062.00
C 722.17 1061.33 710.01 1063.33 700.00 1061.00
C 687.17 1060.33 673.01 1062.33 661.00 1060.00
C 648.83 1059.33 635.34 1061.33 624.00 1059.00
C 611.67 1059.00 599.33 1059.00 587.00 1059.00
C 575.25 1057.77 561.41 1061.53 551.00 1057.00
C 543.33 1057.00 535.67 1057.00 528.00 1057.00
C 521.17 1056.34 513.01 1058.32 507.00 1056.00
C 506.50 1056.00 506.00 1056.00 506.00 1056.00
C 498.84 1055.34 490.34 1057.33 484.00 1055.00
C 476.83 1054.34 468.34 1056.33 462.00 1054.00
C 454.33 1054.00 446.67 1054.00 439.00 1054.00
C 428.22 1054.10 416.87 1053.97 407.00 1052.00
C 401.57 1052.08 395.58 1051.78 391.00 1050.00
C 385.76 1051.30 379.95 1050.59 375.00 1053.00
C 370.46 1059.37 375.31 1066.82 374.00 1074.00
C 375.66 1093.60 375.67 1116.47 374.00 1136.00
C 373.33 1165.84 375.33 1196.99 373.00 1226.00
C 369.63 1224.12 368.71 1219.60 365.00 1218.00
C 359.34 1211.51 353.31 1204.86 348.00 1198.00
C 346.89 1195.59 344.04 1194.38 343.00 1192.00
C 336.21 1186.33 331.82 1178.53 326.00 1172.00
C 325.80 1171.60 326.00 1171.00 326.00 1171.00
C 316.86 1163.34 310.22 1153.49 302.00 1145.00
C 292.78 1137.63 284.35 1128.71 275.00 1122.00
C 265.50 1113.93 254.95 1106.95 247.00 1097.00
C 246.60 1096.80 246.00 1097.00 246.00 1097.00
C 235.70 1087.39 223.60 1080.14 214.00 1070.00
C 210.28 1067.30 206.86 1064.40 203.00 1062.00
C 197.78 1057.47 191.27 1054.46 187.00 1049.00
C 186.68 1048.76 186.00 1049.00 186.00 1049.00
C 174.13 1039.18 162.23 1028.82 152.00 1017.00
C 199.10 951.70 242.36 883.93 288.00 818.00
C 293.40 811.06 297.79 803.10 304.00 797.00
C 305.47 794.50 307.34 792.34 309.00 790.00
C 316.14 780.33 323.72 770.59 332.00 762.00
C 343.75 746.85 355.82 732.08 366.00 716.00
C 368.64 713.06 370.01 707.95 374.00 707.00
C 373.34 716.17 375.33 726.66 373.00 735.00 Z"/>
</g>
<g fill="#E496FD" fill-opacity="1.00" stroke="None">
<path d="
M 366.00 716.00
C 355.82 732.08 343.75 746.85 332.00 762.00
C 324.59 771.51 317.09 781.28 309.00 790.00
C 307.34 792.34 305.47 794.50 304.00 797.00
C 298.81 804.09 294.31 811.96 288.00 818.00
C 242.36 883.93 199.10 951.70 152.00 1017.00
C 163.08 1028.11 175.08 1038.24 186.00 1049.00
C 186.00 1049.00 186.68 1048.76 187.00 1049.00
C 192.21 1053.53 198.73 1056.54 203.00 1062.00
C 206.86 1064.40 210.28 1067.30 214.00 1070.00
C 224.84 1078.74 236.49 1086.74 246.00 1097.00
C 246.00 1097.00 246.60 1096.80 247.00 1097.00
C 255.90 1106.06 266.46 1112.96 275.00 1122.00
C 284.35 1128.71 292.78 1137.63 302.00 1145.00
C 311.29 1152.57 317.75 1162.54 326.00 1171.00
C 326.00 1171.00 325.80 1171.60 326.00 1172.00
C 332.79 1177.67 337.18 1185.47 343.00 1192.00
C 344.04 1194.38 346.89 1195.59 348.00 1198.00
C 354.23 1203.98 360.47 1210.91 365.00 1218.00
C 368.71 1219.60 369.63 1224.12 373.00 1226.00
C 373.67 1195.83 371.67 1164.35 374.00 1135.00
C 374.00 1114.67 374.00 1094.33 374.00 1074.00
C 373.52 1067.91 369.01 1057.90 375.00 1053.00
C 379.95 1050.59 385.76 1051.30 391.00 1050.00
C 396.63 1050.41 403.05 1050.42 408.00 1052.00
C 418.28 1052.52 429.39 1052.40 439.00 1054.00
C 446.67 1054.00 454.33 1054.00 462.00 1054.00
C 469.16 1054.66 477.66 1052.67 484.00 1055.00
C 491.16 1055.66 499.66 1053.67 506.00 1056.00
C 506.00 1056.00 506.50 1056.00 507.00 1056.00
C 513.83 1056.66 521.99 1054.68 528.00 1057.00
C 535.67 1057.00 543.33 1057.00 551.00 1057.00
C 562.52 1059.22 575.07 1057.42 587.00 1058.00
C 599.50 1058.67 613.32 1056.67 625.00 1059.00
C 636.83 1059.67 649.99 1057.67 661.00 1060.00
C 673.83 1060.67 687.99 1058.67 700.00 1061.00
C 710.83 1061.66 722.99 1059.67 733.00 1062.00
C 745.33 1062.00 757.67 1062.00 770.00 1062.00
C 780.83 1062.67 792.99 1060.67 803.00 1063.00
C 803.00 1063.00 803.50 1063.00 804.00 1063.00
C 812.17 1063.66 821.66 1061.67 829.00 1064.00
C 835.83 1064.66 843.99 1062.67 850.00 1065.00
C 861.41 1065.01 873.39 1065.37 884.00 1067.00
C 888.67 1067.00 893.33 1067.00 898.00 1067.00
C 902.17 1067.64 907.66 1065.71 911.00 1068.00
C 915.50 1068.64 921.33 1066.70 925.00 1069.00
C 929.17 1069.64 934.66 1067.71 938.00 1070.00
C 948.91 1069.41 959.06 1071.74 970.00 1071.00
C 976.16 1071.66 983.66 1069.68 989.00 1072.00
C 996.50 1072.66 1005.33 1070.67 1012.00 1073.00
C 1016.33 1073.00 1020.67 1073.00 1025.00 1073.00
C 1025.72 1070.53 1024.50 1065.53 1025.00 1062.00
C 1023.44 1057.32 1023.00 1051.43 1023.00 1046.00
C 1021.43 1040.65 1021.00 1034.09 1021.00 1028.00
C 1021.41 1020.80 1019.24 1014.28 1020.00 1007.00
C 1017.74 1002.25 1019.62 995.51 1019.00 990.00
C 1016.68 978.24 1018.66 964.51 1018.00 952.00
C 1015.69 944.24 1017.65 934.51 1017.00 926.00
C 1006.49 927.52 996.67 926.00 986.00 926.00
C 981.50 925.36 975.67 927.30 972.00 925.00
C 972.00 925.00 971.50 925.00 971.00 925.00
C 966.50 924.36 960.67 926.30 957.00 924.00
C 944.92 923.99 932.28 923.63 921.00 922.00
C 914.67 922.00 908.33 922.00 902.00 922.00
C 896.17 921.34 889.01 923.32 884.00 921.00
C 879.17 920.35 873.01 922.31 869.00 920.00
C 861.84 919.34 853.34 921.33 847.00 919.00
C 840.84 918.34 833.34 920.32 828.00 918.00
C 814.06 918.77 800.86 916.53 787.00 917.00
C 780.84 916.34 773.34 918.32 768.00 916.00
C 761.84 915.34 754.34 917.32 749.00 915.00
C 741.84 914.34 733.34 916.33 727.00 914.00
C 712.72 914.77 699.18 912.58 685.00 913.00
C 675.83 912.34 665.34 914.33 657.00 912.00
C 647.84 911.34 637.34 913.33 629.00 911.00
C 616.83 910.33 603.34 912.33 592.00 910.00
C 579.83 909.33 566.34 911.33 555.00 909.00
C 545.67 909.00 536.33 909.00 527.00 909.00
C 522.67 909.00 518.33 909.00 514.00 909.00
C 503.17 908.33 491.01 910.33 481.00 908.00
C 478.00 908.00 475.00 908.00 472.00 908.00
C 441.17 907.33 409.01 909.33 379.00 907.00
C 371.68 902.26 364.99 892.79 367.00 884.00
C 367.98 881.50 370.46 880.55 373.00 881.00
C 373.00 862.33 373.00 843.67 373.00 825.00
C 371.33 796.07 371.33 763.86 373.00 735.00
C 372.35 726.16 374.31 716.09 372.00 708.00
C 371.03 711.05 368.65 714.05 366.00 716.00 Z"/>
</g>
</svg>