<svg version="1.1" id="Layer_1" xmlns="http://www.w3.org/2000/svg" xmlns:xlink="http://www.w3.org/1999/xlink" x="0px" y="0px"
	 width="100%" viewBox="0 0 899 899" enable-background="new 0 0 899 899" xml:space="preserve">
<path fill="#000000" opacity="1.000000" stroke="none" 
	d="
M737.249512,62.258751 
	C759.307251,48.607788 781.786560,36.582485 806.630798,29.891457 
	C819.741028,26.360647 833.045715,23.253977 846.455627,21.241615 
	C855.059509,19.950464 856.352112,23.301445 853.752563,31.540344 
	C852.039856,36.968555 847.934937,39.554974 844.477173,43.211014 
	C836.061707,52.109180 828.044739,61.391335 820.031799,70.661011 
	C813.424988,78.304008 806.852539,85.992943 800.622742,93.942039 
	C789.336426,108.343300 778.286316,122.930328 767.195984,137.484329 
	C759.320801,147.819153 751.541565,158.227097 743.386414,169.044189 
	C749.750366,167.546814 755.773926,165.770004 761.923645,164.766113 
	C771.332275,163.230194 780.797424,161.792770 790.295593,161.126129 
	C798.982849,160.516418 807.755188,160.722855 816.473145,161.037094 
	C831.074646,161.563416 843.941162,167.359726 855.833496,175.337051 
	C869.585999,184.562180 881.201843,196.155228 890.864624,209.555420 
	C894.900818,215.152756 898.021301,221.277252 895.001831,228.854156 
	C893.307983,233.104553 891.012695,235.000473 886.585876,233.986206 
	C869.664368,230.109039 852.500000,232.376709 835.455017,232.123795 
	C818.942932,231.878769 803.323792,236.951141 787.977783,242.450043 
	C762.680054,251.514923 739.767517,264.600983 720.670410,283.822144 
	C712.731689,291.812378 704.793213,299.802887 696.461304,308.189240 
	C699.872314,311.138092 702.826599,313.445709 705.499512,316.042938 
	C722.265137,332.334137 737.462585,349.709320 749.373474,370.157318 
	C756.815247,382.933014 764.316711,395.285065 766.509216,410.082550 
	C767.617981,417.565613 768.525696,425.111450 768.908203,432.660126 
	C769.317261,440.732788 769.112488,448.844086 768.979675,456.935272 
	C768.638733,477.698486 759.990112,494.759369 745.462036,509.161285 
	C730.473877,524.019226 712.855774,535.439514 695.484070,547.135376 
	C666.492798,566.654358 637.552917,586.266479 608.157715,605.164856 
	C563.026184,634.180054 517.867859,663.181885 472.075592,691.132080 
	C435.819672,713.261658 398.617584,733.843323 361.792175,755.036804 
	C334.661957,770.650635 307.729797,786.637695 280.213837,801.543701 
	C254.732559,815.347534 228.765869,828.291443 202.699875,840.970459 
	C170.564255,856.601868 137.159607,868.976807 101.984695,875.774353 
	C85.876938,878.887268 69.504929,880.767395 53.179401,882.525513 
	C49.018074,882.973633 44.050861,881.763916 40.359253,879.698120 
	C27.240438,872.356873 14.317087,864.531494 7.687221,849.952637 
	C2.415787,838.360840 1.164446,826.745483 5.533401,814.348755 
	C7.906833,807.614258 7.766089,800.033203 9.714804,793.102600 
	C17.671934,764.803345 25.217878,736.351685 34.383766,708.438354 
	C45.963612,673.173706 58.632671,638.252380 71.530846,603.441895 
	C76.893448,588.968994 84.208809,575.229004 90.379143,561.043884 
	C104.566162,528.429199 123.471146,498.522430 142.606445,468.703705 
	C148.100098,460.142853 152.465668,450.832001 157.029266,441.705414 
	C170.411362,414.943085 186.789352,390.037109 204.587555,366.106720 
	C220.649963,344.510193 237.262161,323.300049 254.240173,302.413971 
	C268.238953,285.192993 282.340332,267.924225 297.843811,252.094452 
	C313.359589,236.252151 329.595642,220.688095 347.475952,207.700455 
	C368.302673,192.572662 390.024933,178.080399 414.497559,169.094299 
	C423.315796,165.856339 432.947540,163.678177 442.297180,163.315521 
	C456.137024,162.778717 470.061127,164.206741 483.939301,164.978973 
	C488.855713,165.252548 493.966766,165.322754 498.604980,166.741318 
	C520.472229,173.429276 541.700439,181.539490 560.220520,195.559280 
	C564.580017,198.859421 569.913879,200.872360 575.649536,203.930710 
	C577.173523,197.541977 578.984192,192.096390 579.696777,186.510712 
	C581.116699,175.380249 583.296143,164.102219 582.721680,153.011551 
	C581.437378,128.219727 576.965332,103.748444 563.705200,82.283867 
	C557.597534,72.397217 548.481567,64.393814 540.974548,55.333603 
	C538.286682,52.089661 535.892029,48.445801 534.132324,44.629940 
	C531.988586,39.981266 533.704407,37.355221 538.693420,36.019501 
	C552.108948,32.427727 565.071777,32.929398 577.362061,40.079346 
	C590.759583,47.873447 604.297302,55.434536 617.554260,63.459965 
	C630.323303,71.190010 639.124329,82.890831 647.153564,95.096230 
	C655.528809,107.827583 663.455322,120.854080 671.226624,133.193619 
	C686.479858,104.813690 707.915894,80.133873 737.249512,62.258751 
M140.146820,845.955505 
	C141.255737,845.472168 142.364639,844.988831 143.650314,844.428406 
	C143.108810,843.787476 142.766190,843.184448 142.256348,842.807495 
	C129.822449,833.615662 118.503937,823.166626 109.443222,810.665955 
	C104.918213,804.423035 101.609055,797.169678 98.565239,790.026001 
	C96.404747,784.955505 98.249710,781.242188 102.093834,779.819214 
	C107.541702,777.802612 111.066826,779.182556 113.848549,784.473511 
	C115.594086,787.793579 116.779137,791.554077 119.095978,794.400330 
	C125.673363,802.480774 132.985703,809.968262 139.467545,818.119507 
	C144.918350,824.974121 153.184128,830.381531 152.153412,841.261780 
	C161.354538,837.719238 170.278793,834.952820 178.610504,830.952332 
	C205.590759,817.997681 232.714828,805.266296 259.098572,791.167175 
	C285.611938,776.998779 311.258057,761.213257 337.371033,746.288269 
	C360.185638,733.248413 383.314972,720.749207 405.955719,707.417480 
	C436.831879,689.236511 467.560730,670.789673 498.014618,651.911438 
	C533.306274,630.034363 568.410400,607.842407 603.262024,585.271362 
	C634.192444,565.239807 664.857666,544.782715 695.262695,523.962402 
	C711.271729,513.000000 727.596924,502.316681 740.410095,487.234558 
	C750.317078,475.573334 753.340515,462.023468 752.914185,447.376831 
	C752.655457,438.487976 751.848694,429.601562 750.950012,420.748383 
	C749.922607,410.627014 748.599304,400.163666 742.680908,391.811615 
	C733.126221,378.328064 727.359314,362.121033 713.993896,351.352631 
	C713.523010,350.973297 713.380371,350.209229 712.945374,349.759155 
	C706.038574,342.612610 699.761169,334.667938 692.045959,328.532928 
	C676.978088,316.551300 662.622498,303.925385 649.487366,289.848053 
	C644.407837,284.404205 638.738464,279.495026 633.183777,274.514038 
	C625.564819,267.681915 617.780518,261.034607 610.101440,254.269119 
	C600.422119,245.741379 591.325500,236.424057 580.953857,228.848831 
	C571.756897,222.131592 560.420288,218.311249 551.347717,211.463760 
	C536.291504,200.100052 519.154968,193.167130 501.788544,187.398468 
	C482.771423,181.081543 462.487640,181.131699 442.528564,182.202148 
	C435.646332,182.571274 428.600952,184.222397 422.103455,186.588013 
	C406.035339,192.438171 391.854858,201.960831 377.483704,211.040421 
	C370.904846,215.196915 364.281677,219.283401 357.377167,223.589630 
	C363.705566,230.723068 369.366028,237.442978 375.390686,243.818741 
	C385.570892,254.592178 396.114624,265.023315 406.240051,275.846771 
	C411.418518,281.382233 416.233948,287.294983 420.816040,293.338562 
	C424.367615,298.022919 423.760223,302.047943 419.362366,307.295105 
	C404.220642,298.269745 391.991302,285.577362 379.406036,273.557831 
	C366.754791,261.475311 355.476288,247.955444 343.156982,234.588882 
	C273.666962,300.443024 215.149857,374.946320 167.192566,457.727570 
	C175.277863,467.596344 182.270584,476.576447 189.735306,485.145386 
	C203.097168,500.483856 216.625122,515.682007 230.301666,530.740845 
	C246.029480,548.058228 262.161652,565.010193 277.786072,582.418945 
	C285.817322,591.367432 293.398285,600.757996 300.663422,610.342468 
	C305.266724,616.415344 304.544220,620.542969 299.203094,626.303589 
	C296.612061,624.498169 293.597382,623.002319 291.357361,620.739624 
	C275.488281,604.709900 259.462158,588.816711 244.104080,572.305115 
	C228.094223,555.092834 212.768890,537.243530 197.160141,519.658691 
	C184.442322,505.330780 171.747849,490.982117 158.913528,476.496490 
	C145.247894,498.275482 131.279160,520.537537 117.022934,543.257690 
	C125.107811,549.489014 132.378784,555.420105 139.995697,560.867554 
	C147.007889,565.882507 154.378036,570.398926 161.618042,575.092407 
	C165.450684,577.576965 165.542343,580.426575 163.481766,584.347717 
	C161.367264,588.371338 157.937302,587.606506 155.398270,586.559204 
	C145.924713,582.651428 136.384476,578.703430 127.478798,573.688171 
	C121.007042,570.043579 115.495651,564.693665 109.434380,560.010132 
	C107.825645,563.635986 106.232574,567.197632 104.662766,570.769470 
	C96.471825,589.406677 87.125763,607.634277 80.333145,626.768250 
	C64.522385,671.305115 48.242805,715.723816 36.014591,761.451538 
	C32.222389,775.632507 28.467119,789.824768 24.874027,804.057068 
	C23.005571,811.458008 22.301985,819.255920 19.586424,826.301880 
	C17.921824,830.621033 18.456448,833.764832 20.114120,837.363159 
	C24.465466,846.808777 31.910627,852.968201 40.490559,858.669250 
	C47.577621,863.378235 54.753483,863.614502 62.195362,862.701050 
	C74.011200,861.250610 85.833305,859.446838 97.448784,856.872314 
	C111.538643,853.749268 125.416565,849.670044 140.146820,845.955505 
M637.869934,111.701828 
	C636.905334,110.357170 635.947815,109.007401 634.975098,107.668663 
	C627.020325,96.720764 619.524292,85.407494 607.192932,78.548882 
	C597.117981,72.945221 587.310608,66.862045 577.333130,61.080299 
	C573.929077,59.107754 570.368469,57.405346 566.694153,55.482613 
	C601.650208,104.405998 606.346130,157.071136 591.079407,212.148224 
	C621.869690,240.479385 652.570374,268.728180 682.995178,296.723053 
	C730.514465,236.718826 792.727783,207.769440 870.620972,212.682938 
	C866.716248,208.077942 862.837158,204.041534 858.721008,200.263382 
	C843.922485,186.680115 826.377014,178.883194 806.357178,179.274887 
	C791.302856,179.569443 776.067566,181.261612 761.327881,184.327118 
	C742.440430,188.255280 725.820129,197.035828 714.614441,213.829437 
	C712.798950,216.550186 710.433167,218.933517 708.125854,221.280273 
	C707.304321,222.115799 705.775452,223.003342 704.784546,222.803009 
	C698.572510,221.547089 694.105408,208.678558 697.985474,203.579437 
	C702.270935,197.947586 706.908264,192.549271 710.788025,186.651688 
	C715.496765,179.494019 719.062622,171.555206 724.032776,164.605011 
	C733.638977,151.171860 744.309509,138.492767 753.762329,124.958725 
	C767.869141,104.761383 782.279785,84.883530 799.337769,67.005287 
	C804.744568,61.338455 809.259033,54.820324 814.181824,48.691776 
	C812.265686,48.186165 810.880615,48.482685 809.532898,48.899944 
	C792.180664,54.272373 775.573975,61.481304 760.224487,71.117218 
	C747.146423,79.327148 734.018188,87.751625 722.227844,97.648598 
	C704.824158,112.257507 691.746521,130.672470 681.560974,151.002563 
	C676.498108,161.107803 671.101562,171.017731 668.653381,182.340363 
	C667.219055,188.974091 663.701355,195.154678 661.150085,201.550812 
	C659.980042,204.484329 658.127136,204.632553 655.650146,203.139236 
	C650.748230,200.183899 646.995483,191.099304 648.528442,185.510757 
	C650.514282,178.270966 653.406372,171.165588 654.411560,163.798111 
	C655.865417,153.142349 656.322388,142.136780 650.887207,132.247330 
	C647.103699,125.363251 642.380066,118.995857 637.869934,111.701828 
z"/>
<path fill="#FF9427" opacity="1.000000" stroke="none" 
	d="
M139.766510,845.979980 
	C125.416565,849.670044 111.538643,853.749268 97.448784,856.872314 
	C85.833305,859.446838 74.011200,861.250610 62.195362,862.701050 
	C54.753483,863.614502 47.577621,863.378235 40.490559,858.669250 
	C31.910627,852.968201 24.465466,846.808777 20.114120,837.363159 
	C18.456448,833.764832 17.921824,830.621033 19.586424,826.301880 
	C22.301985,819.255920 23.005571,811.458008 24.874027,804.057068 
	C28.467119,789.824768 32.222389,775.632507 36.014591,761.451538 
	C48.242805,715.723816 64.522385,671.305115 80.333145,626.768250 
	C87.125763,607.634277 96.471825,589.406677 104.662766,570.769470 
	C106.232574,567.197632 107.825645,563.635986 109.434380,560.010132 
	C115.495651,564.693665 121.007042,570.043579 127.478798,573.688171 
	C136.384476,578.703430 145.924713,582.651428 155.398270,586.559204 
	C157.937302,587.606506 161.367264,588.371338 163.481766,584.347717 
	C165.542343,580.426575 165.450684,577.576965 161.618042,575.092407 
	C154.378036,570.398926 147.007889,565.882507 139.995697,560.867554 
	C132.378784,555.420105 125.107811,549.489014 117.022934,543.257690 
	C131.279160,520.537537 145.247894,498.275482 158.913528,476.496490 
	C171.747849,490.982117 184.442322,505.330780 197.160141,519.658691 
	C212.768890,537.243530 228.094223,555.092834 244.104080,572.305115 
	C259.462158,588.816711 275.488281,604.709900 291.357361,620.739624 
	C293.597382,623.002319 296.612061,624.498169 299.203094,626.303589 
	C304.544220,620.542969 305.266724,616.415344 300.663422,610.342468 
	C293.398285,600.757996 285.817322,591.367432 277.786072,582.418945 
	C262.161652,565.010193 246.029480,548.058228 230.301666,530.740845 
	C216.625122,515.682007 203.097168,500.483856 189.735306,485.145386 
	C182.270584,476.576447 175.277863,467.596344 167.192566,457.727570 
	C215.149857,374.946320 273.666962,300.443024 343.156982,234.588882 
	C355.476288,247.955444 366.754791,261.475311 379.406036,273.557831 
	C391.991302,285.577362 404.220642,298.269745 419.362366,307.295105 
	C423.760223,302.047943 424.367615,298.022919 420.816040,293.338562 
	C416.233948,287.294983 411.418518,281.382233 406.240051,275.846771 
	C396.114624,265.023315 385.570892,254.592178 375.390686,243.818741 
	C369.366028,237.442978 363.705566,230.723068 357.377167,223.589630 
	C364.281677,219.283401 370.904846,215.196915 377.483704,211.040421 
	C391.854858,201.960831 406.035339,192.438171 422.103455,186.588013 
	C428.600952,184.222397 435.646332,182.571274 442.528564,182.202148 
	C462.487640,181.131699 482.771423,181.081543 501.788544,187.398468 
	C519.154968,193.167130 536.291504,200.100052 551.347717,211.463760 
	C560.420288,218.311249 571.756897,222.131592 580.953857,228.848831 
	C591.325500,236.424057 600.422119,245.741379 610.101440,254.269119 
	C617.780518,261.034607 625.564819,267.681915 633.183777,274.514038 
	C638.738464,279.495026 644.407837,284.404205 649.487366,289.848053 
	C662.622498,303.925385 676.978088,316.551300 692.045959,328.532928 
	C699.761169,334.667938 706.038574,342.612610 712.945374,349.759155 
	C713.380371,350.209229 713.523010,350.973297 713.993896,351.352631 
	C727.359314,362.121033 733.126221,378.328064 742.680908,391.811615 
	C748.599304,400.163666 749.922607,410.627014 750.950012,420.748383 
	C751.848694,429.601562 752.655457,438.487976 752.914185,447.376831 
	C753.340515,462.023468 750.317078,475.573334 740.410095,487.234558 
	C727.596924,502.316681 711.271729,513.000000 695.262695,523.962402 
	C664.857666,544.782715 634.192444,565.239807 603.262024,585.271362 
	C568.410400,607.842407 533.306274,630.034363 498.014618,651.911438 
	C467.560730,670.789673 436.831879,689.236511 405.955719,707.417480 
	C383.314972,720.749207 360.185638,733.248413 337.371033,746.288269 
	C311.258057,761.213257 285.611938,776.998779 259.098572,791.167175 
	C232.714828,805.266296 205.590759,817.997681 178.610504,830.952332 
	C170.278793,834.952820 161.354538,837.719238 152.153412,841.261780 
	C153.184128,830.381531 144.918350,824.974121 139.467545,818.119507 
	C132.985703,809.968262 125.673363,802.480774 119.095978,794.400330 
	C116.779137,791.554077 115.594086,787.793579 113.848549,784.473511 
	C111.066826,779.182556 107.541702,777.802612 102.093834,779.819214 
	C98.249710,781.242188 96.404747,784.955505 98.565239,790.026001 
	C101.609055,797.169678 104.918213,804.423035 109.443222,810.665955 
	C118.503937,823.166626 129.822449,833.615662 142.256348,842.807495 
	C142.766190,843.184448 143.108810,843.787476 143.650314,844.428406 
	C142.364639,844.988831 141.255737,845.472168 139.766510,845.979980 
M480.989075,612.474731 
	C486.745911,618.871948 492.323334,625.446106 498.360138,631.567139 
	C500.379486,633.614624 503.572021,634.505127 506.228210,635.924500 
	C507.152557,633.222595 508.459625,630.584717 508.924164,627.806030 
	C509.998108,621.381775 506.547668,616.093140 502.884674,611.649536 
	C494.482117,601.456299 485.441589,591.780884 476.500519,582.041748 
	C466.085114,570.696838 455.263123,559.716064 445.093231,548.158752 
	C440.398834,542.823975 436.018402,540.939941 429.163727,542.849792 
	C424.824249,544.058838 424.115265,546.417603 426.345154,549.656189 
	C432.194031,558.150879 437.646820,567.056641 444.484558,574.700989 
	C455.990845,587.564636 468.446625,599.578979 480.989075,612.474731 
z"/>
<path fill="#60BC4F" opacity="1.000000" stroke="none" 
	d="
M637.973145,112.049744 
	C642.380066,118.995857 647.103699,125.363251 650.887207,132.247330 
	C656.322388,142.136780 655.865417,153.142349 654.411560,163.798111 
	C653.406372,171.165588 650.514282,178.270966 648.528442,185.510757 
	C646.995483,191.099304 650.748230,200.183899 655.650146,203.139236 
	C658.127136,204.632553 659.980042,204.484329 661.150085,201.550812 
	C663.701355,195.154678 667.219055,188.974091 668.653381,182.340363 
	C671.101562,171.017731 676.498108,161.107803 681.560974,151.002563 
	C691.746521,130.672470 704.824158,112.257507 722.227844,97.648598 
	C734.018188,87.751625 747.146423,79.327148 760.224487,71.117218 
	C775.573975,61.481304 792.180664,54.272373 809.532898,48.899944 
	C810.880615,48.482685 812.265686,48.186165 814.181824,48.691776 
	C809.259033,54.820324 804.744568,61.338455 799.337769,67.005287 
	C782.279785,84.883530 767.869141,104.761383 753.762329,124.958725 
	C744.309509,138.492767 733.638977,151.171860 724.032776,164.605011 
	C719.062622,171.555206 715.496765,179.494019 710.788025,186.651688 
	C706.908264,192.549271 702.270935,197.947586 697.985474,203.579437 
	C694.105408,208.678558 698.572510,221.547089 704.784546,222.803009 
	C705.775452,223.003342 707.304321,222.115799 708.125854,221.280273 
	C710.433167,218.933517 712.798950,216.550186 714.614441,213.829437 
	C725.820129,197.035828 742.440430,188.255280 761.327881,184.327118 
	C776.067566,181.261612 791.302856,179.569443 806.357178,179.274887 
	C826.377014,178.883194 843.922485,186.680115 858.721008,200.263382 
	C862.837158,204.041534 866.716248,208.077942 870.620972,212.682938 
	C792.727783,207.769440 730.514465,236.718826 682.995178,296.723053 
	C652.570374,268.728180 621.869690,240.479385 591.079407,212.148224 
	C606.346130,157.071136 601.650208,104.405998 566.694153,55.482613 
	C570.368469,57.405346 573.929077,59.107754 577.333130,61.080299 
	C587.310608,66.862045 597.117981,72.945221 607.192932,78.548882 
	C619.524292,85.407494 627.020325,96.720764 634.975098,107.668663 
	C635.947815,109.007401 636.905334,110.357170 637.973145,112.049744 
z"/>
<path fill="#010000" opacity="1.000000" stroke="none" 
	d="
M480.746033,612.212646 
	C468.446625,599.578979 455.990845,587.564636 444.484558,574.700989 
	C437.646820,567.056641 432.194031,558.150879 426.345154,549.656189 
	C424.115265,546.417603 424.824249,544.058838 429.163727,542.849792 
	C436.018402,540.939941 440.398834,542.823975 445.093231,548.158752 
	C455.263123,559.716064 466.085114,570.696838 476.500519,582.041748 
	C485.441589,591.780884 494.482117,601.456299 502.884674,611.649536
	C506.547668,616.093140 509.998108,621.381775 508.924164,627.806030 
	C508.459625,630.584717 507.152557,633.222595 506.228210,635.924500 
	C503.572021,634.505127 500.379486,633.614624 498.360138,631.567139 
	C492.323334,625.446106 486.745911,618.871948 480.746033,612.212646 
z"/>
</svg>