<svg version="1.1" id="Layer_1" xmlns="http://www.w3.org/2000/svg" xmlns:xlink="http://www.w3.org/1999/xlink" x="0px" y="0px"
	 width="100%" viewBox="0 0 899 899" enable-background="new 0 0 899 899" xml:space="preserve">
<path fill="#000000" opacity="1.000000" stroke="none" 
	d="
M529.000000,900.000000 
	C352.666656,900.000000 176.833328,900.000000 1.000000,900.000000 
	C1.000000,600.333313 1.000000,300.666656 1.000000,1.000000 
	C300.666656,1.000000 600.333313,1.000000 900.000000,1.000000 
	C900.000000,300.666656 900.000000,600.333313 900.000000,900.000000 
	C776.500000,900.000000 653.000000,900.000000 529.000000,900.000000 
M58.275673,859.999878 
	C86.705101,855.495422 115.454948,852.443909 142.697998,841.497070 
	C142.147995,840.839294 141.807983,840.234314 141.299805,839.854004 
	C129.022644,830.666138 117.747787,820.334595 108.727890,807.957642 
	C104.076714,801.575500 100.694283,794.160889 97.463562,786.890564 
	C95.414818,782.280029 97.290047,778.293945 100.772156,776.911560 
	C106.070213,774.808167 109.705032,776.000061 112.350304,780.802917 
	C114.318016,784.375671 115.687912,788.409119 118.209206,791.519958 
	C124.768570,799.613098 132.096756,807.087280 138.580948,815.235962 
	C144.021790,822.073425 152.181976,827.504272 151.148743,838.617065 
	C163.572617,833.513306 175.458572,829.291016 186.759644,823.853271 
	C211.792419,811.808105 236.855118,799.753113 261.301483,786.580994 
	C287.044037,772.710327 312.056488,757.487488 337.437561,742.942017 
	C359.978027,730.024536 382.759705,717.518738 405.122925,704.303345 
	C435.866486,686.135620 466.491882,667.754150 496.845581,648.944214 
	C532.134399,627.076050 567.242004,604.904480 602.115479,582.380310 
	C631.962463,563.102539 661.603821,543.484314 690.878540,523.351257 
	C708.078735,511.522217 725.853699,500.268402 739.609863,484.002716 
	C749.483948,472.327271 752.348267,458.704254 751.909607,444.073486 
	C751.647827,435.343262 750.861206,426.613678 749.948486,417.921844 
	C748.834778,407.316345 747.285767,396.565826 740.972473,387.697815 
	C731.673523,374.636078 726.023987,358.970795 713.161865,348.444885 
	C712.919678,348.246735 712.858643,347.839233 712.633301,347.606750 
	C705.371887,340.115387 698.403931,332.304962 690.748535,325.239594 
	C682.534485,317.658661 673.433044,311.042816 665.166443,303.514252 
	C658.033203,297.017883 651.784607,289.553467 644.688599,283.011963 
	C632.521362,271.795532 620.003235,260.959381 607.622620,249.974625 
	C598.450439,241.836578 589.810059,232.959076 579.922241,225.808350 
	C570.689453,219.131271 559.388916,215.272064 550.311523,208.430511 
	C535.250000,197.078781 518.112366,190.156082 500.744629,184.391632 
	C481.725067,178.078949 461.446075,178.161118 441.486237,179.193985 
	C434.754883,179.542297 427.829071,181.019501 421.503204,183.361328 
	C405.322815,189.351212 390.943695,198.852982 376.454498,208.061142 
	C369.891632,212.231964 363.260895,216.296051 356.329651,220.615005 
	C363.053864,228.118698 369.100586,235.164780 375.470306,241.905609 
	C385.421204,252.436264 395.725098,262.634888 405.612152,273.223724 
	C410.682648,278.654083 415.384003,284.466858 419.859802,290.402649 
	C423.372040,295.060608 422.718506,299.272400 418.081299,304.532135 
	C389.496124,283.958893 365.837708,258.228485 342.344696,231.377228 
	C272.679138,297.475159 214.119232,371.953186 166.182159,454.736115 
	C174.313324,464.649780 181.308548,473.627777 188.780212,482.189972 
	C202.308151,497.692444 216.015335,513.042114 229.841782,528.279480 
	C245.225647,545.233032 260.994141,561.839600 276.265137,578.892822 
	C284.523743,588.115234 292.368378,597.745056 299.870453,607.594238 
	C304.286652,613.391968 303.543488,617.119385 298.314545,623.331970 
	C295.572693,621.410950 292.415802,619.819092 290.051636,617.439636 
	C277.090240,604.394409 264.126160,591.341125 251.543777,577.933228 
	C238.499756,564.033325 225.826569,549.782654 213.105911,535.582703 
	C194.659500,514.991150 176.316116,494.307281 157.853577,473.578339 
	C144.207855,495.336273 130.244797,517.600159 116.008934,540.299011 
	C124.202614,546.572144 131.502991,552.462769 139.122589,557.906494 
	C146.138885,562.919250 153.495773,567.455566 160.707794,572.193909 
	C164.238800,574.513794 164.579498,577.173279 162.694489,581.041748 
	C160.722260,585.089294 157.475052,584.509277 154.704178,583.740601 
	C143.285141,580.573120 132.681641,575.484924 123.082115,568.513916 
	C118.093048,564.890991 113.424408,560.826782 108.482841,556.858948 
	C105.443741,563.707031 102.512344,570.251648 99.630577,576.817993 
	C92.760178,592.472961 84.917358,607.787048 79.247665,623.866577 
	C63.639912,668.130981 47.566532,712.267395 35.141747,757.586060 
	C31.174261,772.057251 27.497843,786.610107 23.847963,801.165649 
	C22.031252,808.410645 20.553038,815.741272 18.968975,823.043457 
	C18.443602,825.465332 17.276346,828.086121 17.750742,830.331055 
	C20.513481,843.404968 41.420795,862.934021 58.275673,859.999878 
M618.464050,235.004898 
	C624.627686,240.550507 630.878906,246.002396 636.934204,251.663895 
	C645.776062,259.930756 654.531677,268.291931 663.219727,276.720398 
	C669.371033,282.687927 675.349731,288.833282 681.215393,294.708954 
	C729.512756,233.720306 791.727234,204.769913 869.621765,209.685349 
	C865.717407,205.081192 861.839600,201.043747 857.723877,197.265396 
	C842.926147,183.680450 825.380676,175.882629 805.360229,176.274155 
	C790.305603,176.568542 775.070129,178.261017 760.330017,181.325958 
	C741.441895,185.253403 724.827026,194.037201 713.611450,210.824875 
	C711.703491,213.680832 709.184509,216.152420 706.776611,218.635559 
	C706.078796,219.355194 704.678223,220.009308 703.782288,219.821747 
	C697.578369,218.522888 693.106567,205.678314 696.986938,200.578995 
	C701.272583,194.947113 705.909668,189.548477 709.789551,183.650833 
	C714.498413,176.493042 718.064636,168.554291 723.034851,161.603943 
	C732.641174,148.170441 743.310547,135.490082 752.764648,121.956451 
	C766.873291,101.759918 781.282532,81.880127 798.341858,64.002235 
	C803.747803,58.336811 808.261047,51.819569 813.182861,45.692158 
	C811.262939,45.185268 809.877930,45.482990 808.529968,45.900211 
	C791.176819,51.271061 774.570923,58.482555 759.221069,68.117592 
	C746.142395,76.326973 733.015015,84.753487 721.224365,94.650711 
	C703.820190,109.260033 690.590698,127.603226 680.624268,148.038574 
	C675.827148,157.874786 672.102112,168.239548 668.016052,178.414948 
	C665.452148,184.799805 663.162170,191.294098 660.667664,197.707535 
	C659.076782,201.797440 656.734863,201.890366 653.464539,199.206497 
	C649.271240,195.765198 646.093994,187.590073 647.548828,182.508240 
	C648.585205,178.887695 649.785522,175.308228 651.054626,171.761200 
	C654.652344,161.705643 654.883179,151.344086 653.218750,141.010239 
	C652.452942,136.255386 650.903687,131.331940 648.488831,127.198120 
	C643.278381,118.278816 637.690674,109.510201 631.479309,101.266167 
	C625.941467,93.916061 620.269043,86.131111 613.022644,80.729012 
	C601.866394,72.412117 589.335938,65.931152 577.339966,58.752460 
	C573.617493,56.524830 569.737366,54.560520 565.570007,52.278923 
	C571.097229,61.009487 577.141052,68.605171 581.094299,77.166222 
	C592.956116,102.853821 599.368591,129.815475 598.085571,158.411301 
	C597.337036,175.096115 595.474792,191.496017 590.109558,207.391190 
	C589.771423,208.392914 589.838928,210.195984 590.480835,210.763977 
	C599.545166,218.784988 608.741699,226.656494 618.464050,235.004898 
z"/>
<path fill="#FF9427" opacity="1.000000" stroke="none" 
	d="
M57.805893,859.999939 
	C41.420795,862.934021 20.513481,843.404968 17.750742,830.331055 
	C17.276346,828.086121 18.443602,825.465332 18.968975,823.043457 
	C20.553038,815.741272 22.031252,808.410645 23.847963,801.165649 
	C27.497843,786.610107 31.174261,772.057251 35.141747,757.586060 
	C47.566532,712.267395 63.639912,668.130981 79.247665,623.866577 
	C84.917358,607.787048 92.760178,592.472961 99.630577,576.817993 
	C102.512344,570.251648 105.443741,563.707031 108.482841,556.858948 
	C113.424408,560.826782 118.093048,564.890991 123.082115,568.513916 
	C132.681641,575.484924 143.285141,580.573120 154.704178,583.740601 
	C157.475052,584.509277 160.722260,585.089294 162.694489,581.041748 
	C164.579498,577.173279 164.238800,574.513794 160.707794,572.193909 
	C153.495773,567.455566 146.138885,562.919250 139.122589,557.906494 
	C131.502991,552.462769 124.202614,546.572144 116.008934,540.299011 
	C130.244797,517.600159 144.207855,495.336273 157.853577,473.578339 
	C176.316116,494.307281 194.659500,514.991150 213.105911,535.582703 
	C225.826569,549.782654 238.499756,564.033325 251.543777,577.933228 
	C264.126160,591.341125 277.090240,604.394409 290.051636,617.439636 
	C292.415802,619.819092 295.572693,621.410950 298.314545,623.331970 
	C303.543488,617.119385 304.286652,613.391968 299.870453,607.594238 
	C292.368378,597.745056 284.523743,588.115234 276.265137,578.892822 
	C260.994141,561.839600 245.225647,545.233032 229.841782,528.279480 
	C216.015335,513.042114 202.308151,497.692444 188.780212,482.189972 
	C181.308548,473.627777 174.313324,464.649780 166.182159,454.736115 
	C214.119232,371.953186 272.679138,297.475159 342.344696,231.377228 
	C365.837708,258.228485 389.496124,283.958893 418.081299,304.532135 
	C422.718506,299.272400 423.372040,295.060608 419.859802,290.402649 
	C415.384003,284.466858 410.682648,278.654083 405.612152,273.223724 
	C395.725098,262.634888 385.421204,252.436264 375.470306,241.905609 
	C369.100586,235.164780 363.053864,228.118698 356.329651,220.615005 
	C363.260895,216.296051 369.891632,212.231964 376.454498,208.061142 
	C390.943695,198.852982 405.322815,189.351212 421.503204,183.361328 
	C427.829071,181.019501 434.754883,179.542297 441.486237,179.193985 
	C461.446075,178.161118 481.725067,178.078949 500.744629,184.391632 
	C518.112366,190.156082 535.250000,197.078781 550.311523,208.430511 
	C559.388916,215.272064 570.689453,219.131271 579.922241,225.808350 
	C589.810059,232.959076 598.450439,241.836578 607.622620,249.974625 
	C620.003235,260.959381 632.521362,271.795532 644.688599,283.011963 
	C651.784607,289.553467 658.033203,297.017883 665.166443,303.514252 
	C673.433044,311.042816 682.534485,317.658661 690.748535,325.239594 
	C698.403931,332.304962 705.371887,340.115387 712.633301,347.606750 
	C712.858643,347.839233 712.919678,348.246735 713.161865,348.444885 
	C726.023987,358.970795 731.673523,374.636078 740.972473,387.697815 
	C747.285767,396.565826 748.834778,407.316345 749.948486,417.921844 
	C750.861206,426.613678 751.647827,435.343262 751.909607,444.073486 
	C752.348267,458.704254 749.483948,472.327271 739.609863,484.002716 
	C725.853699,500.268402 708.078735,511.522217 690.878540,523.351257 
	C661.603821,543.484314 631.962463,563.102539 602.115479,582.380310 
	C567.242004,604.904480 532.134399,627.076050 496.845581,648.944214 
	C466.491882,667.754150 435.866486,686.135620 405.122925,704.303345 
	C382.759705,717.518738 359.978027,730.024536 337.437561,742.942017 
	C312.056488,757.487488 287.044037,772.710327 261.301483,786.580994 
	C236.855118,799.753113 211.792419,811.808105 186.759644,823.853271 
	C175.458572,829.291016 163.572617,833.513306 151.148743,838.617065 
	C152.181976,827.504272 144.021790,822.073425 138.580948,815.235962 
	C132.096756,807.087280 124.768570,799.613098 118.209206,791.519958 
	C115.687912,788.409119 114.318016,784.375671 112.350304,780.802917 
	C109.705032,776.000061 106.070213,774.808167 100.772156,776.911560 
	C97.290047,778.293945 95.414818,782.280029 97.463562,786.890564 
	C100.694283,794.160889 104.076714,801.575500 108.727890,807.957642 
	C117.747787,820.334595 129.022644,830.666138 141.299805,839.854004 
	C141.807983,840.234314 142.147995,840.839294 142.697998,841.497070 
	C115.454948,852.443909 86.705101,855.495422 57.805893,859.999939 
M435.874542,539.070129 
	C434.211273,539.050110 432.525970,538.846069 430.888641,539.042480 
	C424.349762,539.826782 423.094086,542.183533 426.010162,548.041443 
	C431.061951,558.189697 438.307129,566.648682 446.154541,574.725220 
	C460.491516,589.480835 474.596558,604.461609 488.844543,619.304138 
	C492.946411,623.577148 497.110779,627.800415 501.432190,631.848328 
	C503.790039,634.056946 505.839783,633.634277 506.987701,630.310974 
	C509.000031,624.485413 508.665009,618.763000 505.070251,613.833252 
	C499.181274,605.757263 493.283936,597.600281 486.549622,590.247253 
	C475.096985,577.742310 463.016418,565.810913 451.148071,553.689087 
	C446.387177,548.826538 441.489655,544.097656 435.874542,539.070129 
z"/>
<path fill="#60BC4F" opacity="1.000000" stroke="none" 
	d="
M618.185181,234.784561 
	C608.741699,226.656494 599.545166,218.784988 590.480835,210.763977 
	C589.838928,210.195984 589.771423,208.392914 590.109558,207.391190 
	C595.474792,191.496017 597.337036,175.096115 598.085571,158.411301 
	C599.368591,129.815475 592.956116,102.853821 581.094299,77.166222 
	C577.141052,68.605171 571.097229,61.009487 565.570007,52.278923 
	C569.737366,54.560520 573.617493,56.524830 577.339966,58.752460 
	C589.335938,65.931152 601.866394,72.412117 613.022644,80.729012 
	C620.269043,86.131111 625.941467,93.916061 631.479309,101.266167 
	C637.690674,109.510201 643.278381,118.278816 648.488831,127.198120 
	C650.903687,131.331940 652.452942,136.255386 653.218750,141.010239 
	C654.883179,151.344086 654.652344,161.705643 651.054626,171.761200 
	C649.785522,175.308228 648.585205,178.887695 647.548828,182.508240 
	C646.093994,187.590073 649.271240,195.765198 653.464539,199.206497 
	C656.734863,201.890366 659.076782,201.797440 660.667664,197.707535 
	C663.162170,191.294098 665.452148,184.799805 668.016052,178.414948 
	C672.102112,168.239548 675.827148,157.874786 680.624268,148.038574 
	C690.590698,127.603226 703.820190,109.260033 721.224365,94.650711 
	C733.015015,84.753487 746.142395,76.326973 759.221069,68.117592 
	C774.570923,58.482555 791.176819,51.271061 808.529968,45.900211 
	C809.877930,45.482990 811.262939,45.185268 813.182861,45.692158 
	C808.261047,51.819569 803.747803,58.336811 798.341858,64.002235 
	C781.282532,81.880127 766.873291,101.759918 752.764648,121.956451 
	C743.310547,135.490082 732.641174,148.170441 723.034851,161.603943 
	C718.064636,168.554291 714.498413,176.493042 709.789551,183.650833 
	C705.909668,189.548477 701.272583,194.947113 696.986938,200.578995 
	C693.106567,205.678314 697.578369,218.522888 703.782288,219.821747 
	C704.678223,220.009308 706.078796,219.355194 706.776611,218.635559 
	C709.184509,216.152420 711.703491,213.680832 713.611450,210.824875 
	C724.827026,194.037201 741.441895,185.253403 760.330017,181.325958 
	C775.070129,178.261017 790.305603,176.568542 805.360229,176.274155 
	C825.380676,175.882629 842.926147,183.680450 857.723877,197.265396 
	C861.839600,201.043747 865.717407,205.081192 869.621765,209.685349 
	C791.727234,204.769913 729.512756,233.720306 681.215393,294.708954 
	C675.349731,288.833282 669.371033,282.687927 663.219727,276.720398 
	C654.531677,268.291931 645.776062,259.930756 636.934204,251.663895 
	C630.878906,246.002396 624.627686,240.550507 618.185181,234.784561 
z"/>
<path fill="#010000" opacity="1.000000" stroke="none" 
	d="
M436.264435,539.189087 
	C441.489655,544.097656 446.387177,548.826538 451.148071,553.689087 
	C463.016418,565.810913 475.096985,577.742310 486.549622,590.247253 
	C493.283936,597.600281 499.181274,605.757263 505.070251,613.833252 
	C508.665009,618.763000 509.000031,624.485413 506.987701,630.310974 
	C505.839783,633.634277 503.790039,634.056946 501.432190,631.848328 
	C497.110779,627.800415 492.946411,623.577148 488.844543,619.304138 
	C474.596558,604.461609 460.491516,589.480835 446.154541,574.725220 
	C438.307129,566.648682 431.061951,558.189697 426.010162,548.041443 
	C423.094086,542.183533 424.349762,539.826782 430.888641,539.042480 
	C432.525970,538.846069 434.211273,539.050110 436.264435,539.189087 
z"/>
</svg>