<svg xmlns="http://www.w3.org/2000/svg" xmlns:v="https://svgstorm.com"
viewBox = "0 0 1025 1024"
width="1025"
height="1024">
<g fill="None" fill-opacity="0.0" stroke="#0500F6" stroke-opacity="1.00" stroke-width="0.3"><path d="
M 0.00 1024.00 
L 1025.00 1024.00
L 1025.00 0.00
L 0.00 0.00
L 0.00 1024.00
M 600.00 44.00 
C 605.18 139.68 602.69 235.80 612.98 330.02 C 648.45 392.40 709.29 441.12 732.92 511.08 C 775.32 571.70 808.42 637.19 842.92 702.08 C 885.54 769.55 928.77 839.50 922.00 924.00 C 912.30 1025.97 787.31 1012.41 711.00 1014.00 C 614.09 1020.69 517.17 1014.55 420.00 1017.00 C 334.32 1006.40 233.88 1042.70 161.23 986.77 C 104.77 918.99 142.60 825.00 171.78 754.78 C 233.71 615.78 268.52 463.72 355.92 336.92 C 377.63 246.23 354.92 148.06 366.00 55.00
C 343.11 68.58 297.70 42.10 323.22 22.22 C 414.87 11.72 509.98 15.47 602.07 7.07 C 642.99 -7.78 635.04 55.58 600.00 44.00 Z"/>
</g>
<g fill="None" fill-opacity="0.0" stroke="#000000" stroke-opacity="1.00" stroke-width="0.3"><path d="
M 600.00 44.00 
C 635.04 55.58 642.99 -7.78 602.07 7.07 C 509.98 15.47 414.87 11.72 323.22 22.22 C 297.70 42.10 343.11 68.58 366.00 55.00
C 354.92 148.06 377.63 246.23 355.92 336.92 C 268.52 463.72 233.71 615.78 171.78 754.78 C 142.60 825.00 104.77 918.99 161.23 986.77 C 233.88 1042.70 334.32 1006.40 420.00 1017.00 C 517.17 1014.55 614.09 1020.69 711.00 1014.00 C 787.31 1012.41 912.30 1025.97 922.00 924.00 C 928.77 839.50 885.54 769.55 842.92 702.08 C 808.42 637.19 775.32 571.70 732.92 511.08 C 709.29 441.12 648.45 392.40 612.98 330.02 C 602.69 235.80 605.18 139.68 600.00 44.00
M 569.00 46.00 
C 580.28 153.15 557.25 270.61 596.31 369.70 C 656.59 431.65 694.72 507.16 738.00 579.00
C 673.55 627.28 576.46 637.69 505.77 593.23 C 436.68 554.11 346.91 525.90 276.00 578.00
C 281.58 559.71 290.84 542.48 296.00 524.00
C 323.61 522.79 349.56 515.00 377.00 513.00 C 404.32 523.85 428.09 472.33 393.00 474.00 C 365.74 476.94 338.99 481.88 312.00 486.00
C 330.55 421.33 389.87 373.32 398.00 307.00 C 402.09 221.51 389.36 138.89 398.00 53.00
C 454.98 50.61 512.46 50.20 569.00 46.00
M 238.00 819.00 
C 241.75 816.78 247.49 818.59 252.00 818.00
C 277.99 827.58 335.77 807.06 301.97 781.03 C 267.33 779.83 231.48 783.01 196.00 782.00
C 208.96 739.74 228.85 700.01 245.00 659.00
C 272.28 670.30 306.83 660.94 337.00 664.00 C 367.80 678.90 394.42 621.63 354.00 626.00 C 322.43 628.03 289.97 626.55 258.00 627.00
C 285.53 553.46 392.34 547.92 453.68 583.32 C 520.81 618.22 598.31 654.21 675.68 624.68 C 706.65 623.04 746.54 567.61 761.30 615.70 C 800.31 716.63 891.85 798.40 889.93 913.07 C 895.28 954.00 845.28 973.52 812.00 975.00 C 630.06 983.55 447.48 977.07 267.93 981.07 C 232.41 976.57 181.60 979.29 169.08 937.92 C 157.81 899.00 167.67 856.10 181.00 819.00
C 200.00 819.00 219.00 819.00 238.00 819.00 Z"/>
</g>
<g fill="None" fill-opacity="0.0" stroke="#FEF7D4" stroke-opacity="1.00" stroke-width="0.3"><path d="
M 569.00 46.00 
C 512.46 50.20 454.98 50.61 398.00 53.00
C 389.36 138.89 402.09 221.51 398.00 307.00 C 389.87 373.32 330.55 421.33 312.00 486.00
C 338.99 481.88 365.74 476.94 393.00 474.00 C 428.09 472.33 404.32 523.85 377.00 513.00 C 349.56 515.00 323.61 522.79 296.00 524.00
C 290.84 542.48 281.58 559.71 276.00 578.00
C 346.91 525.90 436.68 554.11 505.77 593.23 C 576.46 637.69 673.55 627.28 738.00 579.00
C 694.72 507.16 656.59 431.65 596.31 369.70 C 557.25 270.61 580.28 153.15 569.00 46.00 Z"/>
</g>
<g fill="None" fill-opacity="0.0" stroke="#F6E79A" stroke-opacity="1.00" stroke-width="0.3"><path d="
M 252.00 818.00 
C 248.25 820.22 242.51 818.41 238.00 819.00
C 219.00 819.00 200.00 819.00 181.00 819.00
C 167.67 856.10 157.81 899.00 169.08 937.92 C 181.60 979.29 232.41 976.57 267.93 981.07 C 447.48 977.07 630.06 983.55 812.00 975.00 C 845.28 973.52 895.28 954.00 889.93 913.07 C 891.85 798.40 800.31 716.63 761.30 615.70 C 746.54 567.61 706.65 623.04 675.68 624.68 C 598.31 654.21 520.81 618.22 453.68 583.32 C 392.34 547.92 285.53 553.46 258.00 627.00
C 289.97 626.55 322.43 628.03 354.00 626.00 C 394.42 621.63 367.80 678.90 337.00 664.00 C 306.83 660.94 272.28 670.30 245.00 659.00
C 228.85 700.01 208.96 739.74 196.00 782.00
C 231.48 783.01 267.33 779.83 301.97 781.03 C 335.77 807.06 277.99 827.58 252.00 818.00 Z"/>
</g>
<g fill="None" fill-opacity="0.0" stroke="#867E54" stroke-opacity="1.00" stroke-width="0.3"><path d="
M 238.00 819.00 
C 242.51 818.41 248.25 820.22 252.00 818.00
C 247.49 818.59 241.75 816.78 238.00 819.00 Z"/>
</g>
<g fill="#0500F6" fill-opacity="1.00" stroke="None">
<path d="
M 0.00 1024.00 
L 1025.00 1024.00
L 1025.00 0.00
L 0.00 0.00
L 0.00 1024.00
M 600.00 44.00 
C 605.18 139.68 602.69 235.80 612.98 330.02 C 648.45 392.40 709.29 441.12 732.92 511.08 C 775.32 571.70 808.42 637.19 842.92 702.08 C 885.54 769.55 928.77 839.50 922.00 924.00 C 912.30 1025.97 787.31 1012.41 711.00 1014.00 C 614.09 1020.69 517.17 1014.55 420.00 1017.00 C 334.32 1006.40 233.88 1042.70 161.23 986.77 C 104.77 918.99 142.60 825.00 171.78 754.78 C 233.71 615.78 268.52 463.72 355.92 336.92 C 377.63 246.23 354.92 148.06 366.00 55.00
C 343.11 68.58 297.70 42.10 323.22 22.22 C 414.87 11.72 509.98 15.47 602.07 7.07 C 642.99 -7.78 635.04 55.58 600.00 44.00 Z"/>
</g>
<g fill="#000000" fill-opacity="1.00" stroke="None">
<path d="
M 600.00 44.00 
C 635.04 55.58 642.99 -7.78 602.07 7.07 C 509.98 15.47 414.87 11.72 323.22 22.22 C 297.70 42.10 343.11 68.58 366.00 55.00
C 354.92 148.06 377.63 246.23 355.92 336.92 C 268.52 463.72 233.71 615.78 171.78 754.78 C 142.60 825.00 104.77 918.99 161.23 986.77 C 233.88 1042.70 334.32 1006.40 420.00 1017.00 C 517.17 1014.55 614.09 1020.69 711.00 1014.00 C 787.31 1012.41 912.30 1025.97 922.00 924.00 C 928.77 839.50 885.54 769.55 842.92 702.08 C 808.42 637.19 775.32 571.70 732.92 511.08 C 709.29 441.12 648.45 392.40 612.98 330.02 C 602.69 235.80 605.18 139.68 600.00 44.00
M 569.00 46.00 
C 580.28 153.15 557.25 270.61 596.31 369.70 C 656.59 431.65 694.72 507.16 738.00 579.00
C 673.55 627.28 576.46 637.69 505.77 593.23 C 436.68 554.11 346.91 525.90 276.00 578.00
C 281.58 559.71 290.84 542.48 296.00 524.00
C 323.61 522.79 349.56 515.00 377.00 513.00 C 404.32 523.85 428.09 472.33 393.00 474.00 C 365.74 476.94 338.99 481.88 312.00 486.00
C 330.55 421.33 389.87 373.32 398.00 307.00 C 402.09 221.51 389.36 138.89 398.00 53.00
C 454.98 50.61 512.46 50.20 569.00 46.00
M 238.00 819.00 
C 241.75 816.78 247.49 818.59 252.00 818.00
C 277.99 827.58 335.77 807.06 301.97 781.03 C 267.33 779.83 231.48 783.01 196.00 782.00
C 208.96 739.74 228.85 700.01 245.00 659.00
C 272.28 670.30 306.83 660.94 337.00 664.00 C 367.80 678.90 394.42 621.63 354.00 626.00 C 322.43 628.03 289.97 626.55 258.00 627.00
C 285.53 553.46 392.34 547.92 453.68 583.32 C 520.81 618.22 598.31 654.21 675.68 624.68 C 706.65 623.04 746.54 567.61 761.30 615.70 C 800.31 716.63 891.85 798.40 889.93 913.07 C 895.28 954.00 845.28 973.52 812.00 975.00 C 630.06 983.55 447.48 977.07 267.93 981.07 C 232.41 976.57 181.60 979.29 169.08 937.92 C 157.81 899.00 167.67 856.10 181.00 819.00
C 200.00 819.00 219.00 819.00 238.00 819.00 Z"/>
</g>
<g fill="#FEF7D4" fill-opacity="1.00" stroke="None">
<path d="
M 569.00 46.00 
C 512.46 50.20 454.98 50.61 398.00 53.00
C 389.36 138.89 402.09 221.51 398.00 307.00 C 389.87 373.32 330.55 421.33 312.00 486.00
C 338.99 481.88 365.74 476.94 393.00 474.00 C 428.09 472.33 404.32 523.85 377.00 513.00 C 349.56 515.00 323.61 522.79 296.00 524.00
C 290.84 542.48 281.58 559.71 276.00 578.00
C 346.91 525.90 436.68 554.11 505.77 593.23 C 576.46 637.69 673.55 627.28 738.00 579.00
C 694.72 507.16 656.59 431.65 596.31 369.70 C 557.25 270.61 580.28 153.15 569.00 46.00 Z"/>
</g>
<g fill="#F6E79A" fill-opacity="1.00" stroke="None">
<path d="
M 252.00 818.00 
C 248.25 820.22 242.51 818.41 238.00 819.00
C 219.00 819.00 200.00 819.00 181.00 819.00
C 167.67 856.10 157.81 899.00 169.08 937.92 C 181.60 979.29 232.41 976.57 267.93 981.07 C 447.48 977.07 630.06 983.55 812.00 975.00 C 845.28 973.52 895.28 954.00 889.93 913.07 C 891.85 798.40 800.31 716.63 761.30 615.70 C 746.54 567.61 706.65 623.04 675.68 624.68 C 598.31 654.21 520.81 618.22 453.68 583.32 C 392.34 547.92 285.53 553.46 258.00 627.00
C 289.97 626.55 322.43 628.03 354.00 626.00 C 394.42 621.63 367.80 678.90 337.00 664.00 C 306.83 660.94 272.28 670.30 245.00 659.00
C 228.85 700.01 208.96 739.74 196.00 782.00
C 231.48 783.01 267.33 779.83 301.97 781.03 C 335.77 807.06 277.99 827.58 252.00 818.00 Z"/>
</g>
<g fill="#867E54" fill-opacity="1.00" stroke="None">
<path d="
M 238.00 819.00 
C 242.51 818.41 248.25 820.22 252.00 818.00
C 247.49 818.59 241.75 816.78 238.00 819.00 Z"/>
</g>
</svg>