<svg xmlns="http://www.w3.org/2000/svg"
viewBox="0 0 1397 1397">
<g fill="#000000" fill-opacity="1.00" stroke="None">
<path d="
M 653.00 1395.00
C 680.67 1395.00 708.33 1395.00 736.00 1395.00
C 849.29 1398.10 961.16 1381.38 1054.75 1320.75 C 1127.34 1256.83 1190.57 1172.79 1203.02 1076.02 C 1231.38 961.75 1201.40 846.57 1167.99 740.01 C 1109.88 555.84 1023.72 379.20 886.75 235.25 C 816.09 169.55 795.75 67.45 720.23 8.77 C 625.48 8.40 560.44 109.45 501.25 175.25 C 365.28 320.34 278.98 496.72 221.98 681.98 C 193.10 799.58 207.31 928.03 214.00 1049.00 C 205.29 1278.51 451.49 1403.04 653.00 1395.00
M 709.00 40.00
C 783.68 117.28 816.43 227.03 903.75 299.25 C 1053.27 480.45 1139.36 701.32 1183.00 928.00 C 1193.18 1054.04 1158.91 1176.19 1067.25 1264.25 C 972.95 1354.97 836.47 1362.29 709.00 1361.00 C 579.75 1364.73 451.14 1343.63 347.77 1268.23 C 235.11 1189.88 243.58 1048.15 236.00 926.00 C 223.56 791.86 247.39 661.82 305.77 545.77 C 340.69 440.53 401.81 345.95 474.75 260.75 C 544.03 179.91 605.54 76.26 709.00 40.00 Z"/>
</g>
<g fill="#00D8FD" fill-opacity="1.00" stroke="None">
<path d="
M 709.00 40.00
C 605.54 76.26 544.03 179.91 474.75 260.75 C 401.81 345.95 340.69 440.53 305.77 545.77 C 247.39 661.82 223.56 791.86 236.00 926.00 C 243.58 1048.15 235.11 1189.88 347.77 1268.23 C 451.14 1343.63 579.75 1364.73 709.00 1361.00 C 836.47 1362.29 972.95 1354.97 1067.25 1264.25 C 1158.91 1176.19 1193.18 1054.04 1183.00 928.00 C 1139.36 701.32 1053.27 480.45 903.75 299.25 C 816.43 227.03 783.68 117.28 709.00 40.00 Z"/>
</g>

</svg>