<svg xmlns="http://www.w3.org/2000/svg"
viewBox="0 0 1242 1242">
<g fill="#000000" fill-opacity="1.00" stroke="None">
<path d="
M 248.00 1149.00
C 252.17 1149.03 255.88 1147.29 260.00 1147.00
C 258.18 1135.19 268.72 1130.14 279.00 1131.00
C 277.53 897.87 274.07 665.23 273.00 432.00
C 347.13 431.20 420.78 428.45 495.00 428.00
C 498.42 425.79 503.82 427.58 508.00 427.00
C 536.20 427.48 563.72 425.23 592.00 426.00
C 595.42 423.79 600.82 425.58 605.00 425.00
C 616.67 425.00 628.33 425.00 640.00 425.00
C 643.09 422.81 648.16 424.57 652.00 424.00
C 664.00 424.00 676.00 424.00 688.00 424.00
C 691.42 421.79 696.82 423.58 701.00 423.00
C 712.67 423.00 724.33 423.00 736.00 423.00
C 739.42 420.79 744.82 422.58 749.00 422.00
C 822.82 421.30 896.16 418.65 970.00 418.00
C 970.88 660.36 971.29 902.84 973.00 1145.00
C 976.75 1133.50 995.20 1130.66 1004.00 1136.00
C 1003.91 913.86 1001.76 692.22 1002.00 470.00 C 994.07 423.28 1021.60 366.02 971.75 339.25 C 855.22 233.66 740.64 124.45 623.00 21.00
C 615.28 -12.43 578.34 23.72 567.25 41.25 C 471.39 151.88 373.99 261.55 278.25 372.25 C 262.28 398.28 226.44 396.47 241.00 433.00 C 243.47 671.63 245.26 910.44 248.00 1149.00
M 966.00 381.00
C 745.72 385.88 525.22 389.88 305.00 395.00
C 405.05 279.75 506.67 165.62 606.00 50.00
C 726.33 159.83 846.94 269.73 966.00 381.00 Z"/>
</g>
<g fill="#884621" fill-opacity="1.00" stroke="None">
<path d="
M 966.00 381.00
C 846.94 269.73 726.33 159.83 606.00 50.00
C 506.67 165.62 405.05 279.75 305.00 395.00
C 525.22 389.88 745.72 385.88 966.00 381.00 Z"/>
</g>
<g fill="#F7E89A" fill-opacity="1.00" stroke="None">
<path d="
M 749.00 422.00
C 745.58 424.21 740.18 422.42 736.00 423.00
C 724.33 423.00 712.67 423.00 701.00 423.00
C 697.58 425.21 692.18 423.42 688.00 424.00
C 676.00 424.00 664.00 424.00 652.00 424.00
C 648.91 426.19 643.84 424.43 640.00 425.00
C 628.33 425.00 616.67 425.00 605.00 425.00
C 601.58 427.21 596.18 425.42 592.00 426.00
C 563.72 425.23 536.20 427.48 508.00 427.00
C 504.58 429.21 499.18 427.42 495.00 428.00
C 420.78 428.45 347.13 431.20 273.00 432.00
C 274.07 665.23 277.53 897.87 279.00 1131.00
C 299.79 1126.79 289.30 1149.81 292.00 1161.00
C 298.84 1158.01 307.57 1155.32 315.00 1157.00
C 317.72 1115.72 386.66 1106.72 355.00 1155.00
C 374.09 1154.92 392.88 1150.46 411.00 1156.00
C 420.33 1144.64 460.85 1140.35 465.00 1161.00
C 487.43 1153.30 465.75 1116.31 488.01 1110.01 C 518.45 1099.76 509.05 1141.34 511.00 1160.00
C 512.00 1160.00 513.00 1160.00 514.00 1160.00
C 512.07 1092.44 513.98 1023.23 510.00 955.00 C 516.42 928.52 486.47 877.67 524.01 872.01 C 587.38 876.94 651.44 891.46 716.22 885.78 C 741.01 902.53 726.81 945.57 736.00 973.00 C 741.73 1038.96 747.65 1105.73 749.00 1172.00
C 754.25 1172.62 758.93 1171.17 764.00 1171.00
C 768.03 1148.65 746.13 1129.63 753.77 1108.77 C 773.95 1092.69 795.21 1113.05 793.00 1136.00
C 795.72 1109.03 850.12 1094.04 838.00 1132.00
C 860.06 1122.36 865.54 1146.78 863.00 1164.00
C 872.25 1144.48 901.26 1114.00 919.00 1138.00
C 924.97 1138.50 932.17 1141.19 933.00 1148.00
C 943.21 1143.39 960.16 1147.38 959.00 1161.00
C 962.70 1159.92 964.82 1163.54 968.00 1164.00
C 968.91 1157.47 971.44 1151.38 973.00 1145.00
C 971.29 902.84 970.88 660.36 970.00 418.00
C 896.16 418.65 822.82 421.30 749.00 422.00
M 866.00 528.00
C 901.53 544.73 880.69 596.19 889.93 628.07 C 891.82 667.69 895.40 706.83 895.00 747.00 C 901.90 800.75 852.77 778.49 821.00 775.00 C 780.92 772.33 740.87 775.76 701.00 777.00 C 663.33 763.97 681.55 715.65 686.22 687.78 C 685.23 649.67 678.76 613.12 674.00 576.00 C 654.04 523.28 716.21 532.22 749.00 535.00 C 788.64 535.22 827.35 531.79 866.00 528.00
M 317.00 548.00
C 347.46 532.35 391.20 534.66 428.00 531.00 C 460.52 531.15 528.84 517.61 512.00 572.00 C 506.79 648.80 540.50 731.59 509.08 805.08 C 478.17 816.08 441.83 782.14 405.00 795.00 C 374.39 798.75 330.36 825.83 319.08 779.92 C 309.14 741.73 314.13 699.69 310.00 660.00 C 315.53 624.67 289.37 571.76 317.00 548.00 Z"/>
</g>
<g fill="#89D4EE" fill-opacity="1.00" stroke="None">
<path d="
M 855.00 565.00
C 837.21 567.54 819.30 569.54 801.00 570.00
C 802.86 594.21 803.96 618.60 805.00 643.00
C 822.78 640.77 841.75 641.92 859.00 645.00
C 857.03 618.48 855.47 591.88 855.00 565.00 Z"/>
</g>
<g fill="#89D4EE" fill-opacity="1.00" stroke="None">
<path d="
M 476.00 568.00
C 471.50 567.36 465.67 569.30 462.00 567.00
C 450.05 567.48 437.55 565.92 426.00 568.00
C 428.08 593.73 428.04 619.99 429.00 646.00
C 447.33 646.00 465.67 646.00 484.00 646.00
C 480.41 620.55 479.55 594.45 480.00 568.00
C 478.67 568.00 477.33 568.00 476.00 568.00 Z"/>
</g>
<g fill="#89D4EE" fill-opacity="1.00" stroke="None">
<path d="
M 396.00 570.00
C 377.37 573.76 346.16 567.94 337.00 583.00 C 338.40 605.66 341.02 628.00 341.00 651.00
C 359.74 648.24 378.72 646.55 398.00 646.00
C 395.97 621.16 395.65 594.60 396.00 570.00 Z"/>
</g>
<g fill="#89D4EE" fill-opacity="1.00" stroke="None">
<path d="
M 769.00 572.00
C 764.33 572.00 759.67 572.00 755.00 572.00
C 755.00 572.00 754.50 572.00 754.00 572.00
C 749.83 571.36 744.34 573.29 741.00 571.00
C 729.00 571.00 717.00 571.00 705.00 571.00
C 709.22 596.76 713.41 622.58 715.00 649.00
C 733.52 644.18 753.36 644.43 773.00 644.00
C 772.84 619.70 771.19 595.78 769.00 572.00 Z"/>
</g>
<g fill="#89D4EE" fill-opacity="1.00" stroke="None">
<path d="
M 861.00 676.00
C 843.84 681.55 824.33 677.99 806.00 679.00
C 806.65 698.91 805.13 718.29 805.00 738.00
C 825.22 737.75 845.18 738.77 864.00 744.00
C 863.10 721.30 862.27 698.59 861.00 676.00 Z"/>
</g>
<g fill="#89D4EE" fill-opacity="1.00" stroke="None">
<path d="
M 463.00 682.00
C 454.74 683.65 443.19 683.68 435.00 682.00
C 433.67 682.00 432.33 682.00 431.00 682.00
C 431.56 707.04 435.40 732.52 435.00 757.00
C 453.71 757.06 470.97 762.82 488.00 769.00
C 493.88 739.36 489.25 707.87 487.00 678.00
C 479.12 679.90 471.43 682.35 463.00 682.00 Z"/>
</g>
<g fill="#89D4EE" fill-opacity="1.00" stroke="None">
<path d="
M 774.00 680.00
C 755.38 681.21 736.77 682.43 718.00 683.00
C 721.30 703.85 708.98 719.76 710.00 740.00
C 731.07 739.55 751.60 737.10 773.00 738.00
C 774.73 719.01 773.75 699.36 774.00 680.00 Z"/>
</g>
<g fill="#89D4EE" fill-opacity="1.00" stroke="None">
<path d="
M 399.00 683.00
C 381.74 687.42 339.75 674.75 344.00 701.00 C 344.23 724.35 344.14 747.83 349.00 770.00
C 367.74 766.57 385.72 760.27 405.00 759.00
C 401.43 734.09 401.31 708.24 399.00 683.00 Z"/>
</g>
<g fill="#B12607" fill-opacity="1.00" stroke="None">
<path d="
M 698.00 922.00
C 644.31 929.50 592.40 913.48 539.00 911.00
C 542.73 997.75 551.64 1091.51 537.00 1175.00
C 598.36 1174.77 659.16 1177.15 720.00 1174.00
C 711.58 1092.08 709.86 1004.80 698.00 922.00
M 587.00 1042.00
C 603.58 1046.56 590.58 1086.05 575.30 1074.70 C 557.75 1061.26 561.85 1037.18 587.00 1042.00 Z"/>
</g>
<g fill="#008E00" fill-opacity="1.00" stroke="None">
<path d="
M 764.00 1171.00
C 765.98 1183.97 760.58 1196.22 761.00 1208.00
C 765.93 1221.79 787.91 1256.46 797.00 1228.00
C 811.14 1237.70 817.34 1214.50 822.00 1205.00
C 820.22 1224.98 845.43 1252.94 858.00 1224.00
C 867.56 1236.81 873.64 1223.12 881.00 1218.00
C 888.87 1233.13 902.38 1221.01 904.00 1209.00
C 908.13 1224.09 929.84 1231.74 932.00 1211.00
C 939.01 1215.33 950.27 1222.58 956.00 1212.00
C 959.66 1213.40 963.58 1215.71 966.00 1219.00
C 975.67 1219.66 982.70 1217.77 992.00 1213.00
C 994.87 1220.70 999.29 1227.26 1006.00 1232.00
C 1020.63 1222.71 1037.67 1198.45 1029.00 1181.00
C 1038.37 1165.09 1034.33 1139.86 1011.00 1150.00
C 1010.69 1144.85 1010.19 1136.83 1004.00 1136.00
C 995.20 1130.66 976.75 1133.50 973.00 1145.00
C 971.44 1151.38 968.91 1157.47 968.00 1164.00
C 964.82 1163.54 962.70 1159.92 959.00 1161.00
C 960.16 1147.38 943.21 1143.39 933.00 1148.00
C 932.17 1141.19 924.97 1138.50 919.00 1138.00
C 901.26 1114.00 872.25 1144.48 863.00 1164.00
C 865.54 1146.78 860.06 1122.36 838.00 1132.00
C 850.12 1094.04 795.72 1109.03 793.00 1136.00
C 795.21 1113.05 773.95 1092.69 753.77 1108.77 C 746.13 1129.63 768.03 1148.65 764.00 1171.00 Z"/>
</g>
<g fill="#008E00" fill-opacity="1.00" stroke="None">
<path d="
M 279.00 1131.00
C 268.72 1130.14 258.18 1135.19 260.00 1147.00
C 255.88 1147.29 252.17 1149.03 248.00 1149.00
C 222.04 1140.02 197.43 1152.81 217.02 1180.98 C 220.34 1197.54 242.36 1234.33 253.00 1203.00
C 266.28 1211.51 278.81 1251.43 294.00 1222.00
C 299.25 1231.22 310.77 1231.13 315.00 1221.00
C 321.02 1228.16 329.46 1220.99 331.00 1214.00
C 332.58 1210.58 339.09 1210.17 339.00 1215.00
C 342.90 1221.63 351.42 1229.56 359.00 1223.00
C 364.61 1233.85 377.71 1226.98 379.00 1217.00
C 383.35 1227.57 400.32 1235.83 404.00 1220.00
C 409.35 1225.29 415.42 1219.66 420.00 1217.00
C 423.24 1236.41 447.54 1249.49 453.00 1224.00
C 456.72 1230.79 468.21 1232.32 471.00 1224.00
C 477.42 1230.00 484.68 1231.28 490.00 1224.00
C 498.18 1243.65 512.56 1225.33 514.00 1212.00
C 515.11 1198.01 523.88 1171.78 511.00 1164.00
C 511.00 1162.67 511.00 1161.33 511.00 1160.00
C 509.05 1141.34 518.45 1099.76 488.01 1110.01 C 465.75 1116.31 487.43 1153.30 465.00 1161.00
C 460.85 1140.35 420.33 1144.64 411.00 1156.00
C 392.88 1150.46 374.09 1154.92 355.00 1155.00
C 386.66 1106.72 317.72 1115.72 315.00 1157.00
C 307.57 1155.32 298.84 1158.01 292.00 1161.00
C 289.30 1149.81 299.79 1126.79 279.00 1131.00 Z"/>
</g>
</svg>