<svg xmlns="http://www.w3.org/2000/svg"
viewBox="0 0 1521 1521">
<g fill="#000000" fill-opacity="1.00" stroke="None">
<path d="
M 1112.00 1344.00
C 1117.67 1344.00 1123.33 1344.00 1129.00 1344.00
C 1201.42 1344.12 1271.40 1340.42 1345.00 1343.00 C 1404.08 1349.60 1478.33 1348.86 1507.70 1287.70 C 1544.04 1233.96 1505.56 1147.54 1435.00 1165.00
C 1446.56 1102.72 1382.91 1047.31 1324.00 1059.00
C 1321.86 938.04 1334.77 820.84 1345.00 703.00
C 1383.81 734.71 1439.00 710.23 1431.00 657.00 C 1443.32 611.39 1408.99 577.84 1375.75 553.25 C 1309.07 512.98 1242.29 473.08 1179.00 427.00
C 1191.21 381.77 1190.57 333.03 1196.00 286.00
C 1225.50 296.15 1266.41 301.85 1258.00 256.00 C 1248.16 228.42 1267.38 181.60 1234.08 168.92 C 1165.13 158.13 1092.44 161.23 1021.00 160.00 C 984.23 149.56 951.36 166.66 962.99 208.99 C 951.77 237.32 962.83 282.64 1002.00 273.00
C 1000.78 285.87 1000.12 298.86 1000.00 312.00
C 889.46 245.43 738.37 233.53 618.23 277.23 C 426.97 379.02 154.43 457.78 103.07 699.93 C 111.45 754.31 166.55 731.72 198.00 713.00
C 187.61 836.88 204.41 963.41 198.00 1091.00
C 145.91 1076.53 89.18 1126.46 107.00 1181.00
C -11.80 1131.89 -44.57 1382.46 88.00 1357.00 C 144.21 1349.12 206.07 1353.36 259.00 1339.00
C 273.11 1340.92 287.71 1340.84 302.00 1342.00
C 310.15 1397.66 360.53 1444.58 418.00 1436.00 C 484.14 1443.75 553.64 1438.14 618.99 1449.01 C 683.94 1480.69 727.77 1407.65 721.00 1350.00
C 852.42 1363.31 980.71 1339.41 1112.00 1344.00
M 1058.00 196.00
C 1065.59 194.35 1076.48 194.32 1084.00 196.00
C 1126.50 198.66 1170.36 195.86 1212.00 202.00 C 1233.58 202.81 1219.38 239.16 1227.00 255.00
C 1186.48 256.47 1159.99 227.81 1118.00 230.00 C 1074.27 224.32 1033.12 236.95 990.00 237.00
C 992.34 223.27 994.23 209.39 994.00 195.00
C 1015.04 196.47 1036.61 195.92 1058.00 196.00
M 1152.00 410.00
C 1117.32 386.03 1082.06 361.90 1045.77 340.23 C 1017.57 330.57 1035.43 293.18 1033.00 270.00
C 1074.58 263.02 1125.67 260.20 1163.25 276.75 C 1165.33 320.41 1157.68 366.88 1152.00 410.00
M 743.00 292.00
C 745.33 292.00 747.67 292.00 750.00 292.00
C 753.75 289.78 759.49 291.59 764.00 291.00
C 971.30 279.27 1117.85 443.34 1283.08 538.92 C 1315.18 557.12 1349.60 571.49 1376.25 598.75 C 1414.45 613.25 1409.11 708.48 1361.31 671.70 C 1184.64 592.02 1012.95 496.71 828.78 437.22 C 781.68 432.54 731.45 430.09 685.33 439.33 C 545.67 500.93 400.71 559.71 263.00 631.00
C 262.24 635.73 257.46 639.05 254.00 642.00
C 218.52 655.48 191.84 689.50 155.00 701.00 C 110.45 685.48 169.02 632.90 176.00 603.00
C 176.55 600.72 178.99 599.41 179.00 597.00
C 181.88 591.36 185.53 585.71 191.00 582.00
C 298.57 461.78 450.00 403.47 588.00 331.00
C 610.63 321.46 632.32 304.03 658.00 303.00
C 679.66 295.94 702.35 291.73 726.00 292.00
C 730.59 290.38 738.48 290.30 743.00 292.00
M 1117.00 1308.00
C 1127.38 1189.57 1117.00 1066.65 1062.23 962.77 C 1006.77 861.62 853.31 895.41 795.75 978.75 C 717.95 1071.45 728.38 1199.84 742.00 1314.00
C 699.87 1323.76 717.26 1269.97 690.25 1251.75 C 666.80 1227.31 629.53 1240.49 604.00 1253.00
C 610.25 1204.50 569.55 1150.52 517.00 1167.00 C 469.92 1169.60 425.02 1208.29 431.00 1259.00
C 388.87 1230.58 314.99 1250.75 306.00 1305.00
C 270.12 1308.08 218.85 1300.91 226.00 1253.00 C 236.45 1081.87 224.61 908.48 229.00 735.00 C 217.38 690.63 253.93 676.02 286.23 660.23 C 405.45 598.73 529.31 548.04 651.08 494.08 C 713.13 454.24 805.52 465.94 872.03 489.98 C 999.69 530.84 1114.94 603.94 1240.03 651.98 C 1263.08 671.72 1321.87 669.26 1313.00 708.00 C 1290.30 870.99 1299.59 1042.53 1281.00 1206.00 C 1297.83 1300.92 1186.98 1314.65 1117.00 1308.00
M 1088.00 1307.00
C 980.91 1303.51 875.92 1324.74 768.00 1315.00
C 772.35 1212.54 741.42 1096.39 814.25 1012.25 C 859.19 936.12 1001.25 897.94 1042.32 994.68 C 1088.70 1089.91 1091.48 1200.04 1088.00 1307.00
M 1313.00 1206.00
C 1308.94 1197.94 1311.50 1186.65 1315.00 1179.00
C 1332.02 1154.75 1316.75 1123.19 1323.00 1095.00
C 1351.06 1086.71 1379.52 1101.67 1397.75 1122.25 C 1418.60 1148.84 1386.56 1181.10 1405.31 1205.70 C 1425.20 1219.32 1454.73 1181.59 1478.75 1208.25 C 1517.52 1259.83 1443.95 1324.71 1389.00 1309.00 C 1354.80 1306.17 1319.71 1306.83 1285.00 1306.00
C 1312.63 1280.37 1311.07 1241.13 1313.00 1206.00
M 195.00 1158.00
C 196.46 1157.45 197.18 1155.60 199.00 1156.00
C 199.00 1157.33 199.00 1158.67 199.00 1160.00
C 200.87 1210.82 178.81 1266.68 211.00 1311.00
C 176.08 1314.28 141.00 1316.96 106.00 1320.00 C 75.00 1324.70 25.44 1324.45 33.00 1280.00 C 31.08 1251.73 46.01 1210.80 79.00 1211.00 C 110.15 1200.05 130.46 1260.72 148.93 1235.93 C 164.94 1206.70 124.93 1178.31 137.92 1147.92 C 152.58 1119.02 212.73 1112.71 195.00 1158.00
M 546.00 1201.00
C 587.64 1214.59 566.93 1268.34 572.77 1299.23 C 593.26 1338.98 616.74 1267.68 649.02 1274.02 C 690.52 1273.35 690.46 1330.75 692.67 1361.67 C 689.73 1395.78 665.23 1434.12 626.00 1414.00 C 546.58 1400.40 461.32 1409.99 382.32 1394.68 C 346.88 1391.63 328.96 1347.94 333.00 1315.00 C 341.14 1281.25 394.92 1272.06 420.75 1293.25 C 446.84 1345.09 470.12 1281.78 462.00 1249.00 C 466.50 1211.01 512.77 1198.65 546.00 1201.00 Z"/>
</g>
<g fill="#884621" fill-opacity="1.00" stroke="None">
<path d="
M 1084.00 196.00
C 1075.33 196.00 1066.67 196.00 1058.00 196.00
C 1036.61 195.92 1015.04 196.47 994.00 195.00
C 994.23 209.39 992.34 223.27 990.00 237.00
C 1033.12 236.95 1074.27 224.32 1118.00 230.00 C 1159.99 227.81 1186.48 256.47 1227.00 255.00
C 1219.38 239.16 1233.58 202.81 1212.00 202.00 C 1170.36 195.86 1126.50 198.66 1084.00 196.00 Z"/>
</g>
<g fill="#884621" fill-opacity="1.00" stroke="None">
<path d="
M 1152.00 410.00
C 1157.68 366.88 1165.33 320.41 1163.25 276.75 C 1125.67 260.20 1074.58 263.02 1033.00 270.00
C 1035.43 293.18 1017.57 330.57 1045.77 340.23 C 1082.06 361.90 1117.32 386.03 1152.00 410.00 Z"/>
</g>
<g fill="#FE6558" fill-opacity="1.00" stroke="None">
<path d="
M 750.00 292.00
C 747.67 292.00 745.33 292.00 743.00 292.00
C 737.33 292.00 731.67 292.00 726.00 292.00
C 702.35 291.73 679.66 295.94 658.00 303.00
C 632.96 305.51 611.85 323.02 588.00 331.00
C 450.00 403.47 298.57 461.78 191.00 582.00
C 186.12 586.50 183.17 592.42 179.00 597.00
C 178.99 599.41 176.55 600.72 176.00 603.00
C 171.31 633.52 112.94 683.91 155.00 700.00 C 191.16 688.86 216.10 654.08 252.00 643.00
C 255.89 639.53 260.56 635.58 263.00 631.00
C 400.71 559.71 545.67 500.93 685.33 439.33 C 731.45 430.09 781.68 432.54 828.78 437.22 C 1012.95 496.71 1184.64 592.02 1361.31 671.70 C 1409.11 708.48 1414.45 613.25 1376.25 598.75 C 1349.60 571.49 1315.18 557.12 1283.08 538.92 C 1117.85 443.34 971.30 279.27 764.00 291.00
C 760.33 293.30 754.50 291.36 750.00 292.00 Z"/>
</g>
<g fill="#FED083" fill-opacity="1.00" stroke="None">
<path d="
M 1117.00 1308.00
C 1186.98 1314.65 1297.83 1300.92 1281.00 1206.00 C 1299.59 1042.53 1290.30 870.99 1313.00 708.00 C 1321.87 669.26 1263.08 671.72 1240.03 651.98 C 1114.94 603.94 999.69 530.84 872.03 489.98 C 805.52 465.94 713.13 454.24 651.08 494.08 C 529.31 548.04 405.45 598.73 286.23 660.23 C 253.93 676.02 217.38 690.63 229.00 735.00 C 224.61 908.48 236.45 1081.87 226.00 1253.00 C 218.85 1300.91 270.12 1308.08 306.00 1305.00
C 314.99 1250.75 388.87 1230.58 431.00 1259.00
C 425.02 1208.29 469.92 1169.60 517.00 1167.00 C 569.55 1150.52 610.25 1204.50 604.00 1253.00
C 629.53 1240.49 666.80 1227.31 690.25 1251.75 C 717.26 1269.97 699.87 1323.76 742.00 1314.00
C 728.38 1199.84 717.95 1071.45 795.75 978.75 C 853.31 895.41 1006.77 861.62 1062.23 962.77 C 1117.00 1066.65 1127.38 1189.57 1117.00 1308.00
M 664.00 810.00
C 663.34 816.50 665.32 824.33 663.00 830.00
C 657.57 860.22 658.73 893.57 655.00 925.00
C 727.06 939.35 709.24 1074.47 633.00 1066.00 C 532.62 1074.58 424.88 1071.63 328.93 1047.07 C 280.88 1030.18 288.12 968.28 305.93 931.93 C 336.09 929.79 321.88 897.71 322.02 874.98 C 327.04 806.49 292.92 710.80 354.23 663.23 C 443.80 627.99 550.44 648.21 640.08 670.92 C 666.79 709.30 659.81 765.87 664.00 810.00 Z"/>
</g>
<g fill="#000000" fill-opacity="1.00" stroke="None">
<path d="
M 663.00 830.00
C 663.66 823.50 661.68 815.67 664.00 810.00
C 659.81 765.87 666.79 709.30 640.08 670.92 C 550.44 648.21 443.80 627.99 354.23 663.23 C 292.92 710.80 327.04 806.49 322.02 874.98 C 321.88 897.71 336.09 929.79 305.93 931.93 C 288.12 968.28 280.88 1030.18 328.93 1047.07 C 424.88 1071.63 532.62 1074.58 633.00 1066.00 C 709.24 1074.47 727.06 939.35 655.00 925.00
C 658.73 893.57 657.57 860.22 663.00 830.00
M 477.00 682.00
C 481.11 722.54 486.83 762.70 488.00 804.00
C 462.80 803.80 438.32 800.72 413.00 801.00 C 393.45 794.20 349.36 816.64 350.00 788.00 C 346.31 745.20 347.44 685.37 403.02 685.02 C 427.33 682.12 452.02 679.45 477.00 682.00
M 519.00 805.00
C 519.20 764.11 513.83 724.64 509.00 685.00
C 535.28 688.18 561.69 690.83 587.67 695.33 C 622.59 689.25 627.83 716.79 628.00 745.00 C 629.00 767.58 646.42 815.54 606.00 804.00 C 577.30 804.93 547.65 807.18 519.00 805.00
M 488.00 841.00
C 486.33 868.92 487.93 897.64 484.00 925.00
C 440.70 928.95 397.05 921.92 354.00 925.00
C 359.63 896.70 351.63 867.65 352.00 839.00
C 397.41 836.37 442.99 838.97 488.00 841.00
M 521.00 842.00
C 530.67 842.00 540.33 842.00 550.00 842.00
C 576.27 842.76 601.77 840.44 628.00 841.00
C 628.57 868.90 625.58 895.88 623.00 923.00
C 587.43 924.04 551.42 923.34 516.00 925.00
C 520.04 898.25 516.40 867.03 521.00 842.00
M 452.00 963.00
C 455.75 960.78 461.49 962.59 466.00 962.00
C 478.00 962.00 490.00 962.00 502.00 962.00
C 505.75 959.78 511.49 961.59 516.00 961.00
C 530.33 961.00 544.67 961.00 559.00 961.00
C 566.42 958.70 575.82 960.64 584.00 960.00
C 613.99 963.42 675.31 945.56 667.00 994.00 C 671.27 1035.71 617.67 1031.29 589.00 1034.00 C 514.43 1032.88 439.96 1031.46 367.98 1020.02 C 332.03 1025.70 305.89 978.90 337.00 962.00 C 375.34 958.71 413.49 963.73 452.00 963.00 Z"/>
</g>
<g fill="#89D4EE" fill-opacity="1.00" stroke="None">
<path d="
M 477.00 682.00
C 452.02 679.45 427.33 682.12 403.02 685.02 C 347.44 685.37 346.31 745.20 350.00 788.00 C 349.36 816.64 393.45 794.20 413.00 801.00 C 438.32 800.72 462.80 803.80 488.00 804.00
C 486.83 762.70 481.11 722.54 477.00 682.00 Z"/>
</g>
<g fill="#89D4EE" fill-opacity="1.00" stroke="None">
<path d="
M 519.00 805.00
C 547.65 807.18 577.30 804.93 606.00 804.00 C 646.42 815.54 629.00 767.58 628.00 745.00 C 627.83 716.79 622.59 689.25 587.67 695.33 C 561.69 690.83 535.28 688.18 509.00 685.00
C 513.83 724.64 519.20 764.11 519.00 805.00 Z"/>
</g>
<g fill="#89D4EE" fill-opacity="1.00" stroke="None">
<path d="
M 488.00 841.00
C 442.99 838.97 397.41 836.37 352.00 839.00
C 351.63 867.65 359.63 896.70 354.00 925.00
C 397.05 921.92 440.70 928.95 484.00 925.00
C 487.93 897.64 486.33 868.92 488.00 841.00 Z"/>
</g>
<g fill="#89D4EE" fill-opacity="1.00" stroke="None">
<path d="
M 550.00 842.00
C 541.41 843.65 529.52 843.68 521.00 842.00
C 516.40 867.03 520.04 898.25 516.00 925.00
C 551.42 923.34 587.43 924.04 623.00 923.00
C 625.58 895.88 628.57 868.90 628.00 841.00
C 601.77 840.44 576.27 842.76 550.00 842.00 Z"/>
</g>
<g fill="#884621" fill-opacity="1.00" stroke="None">
<path d="
M 1088.00 1307.00
C 1091.48 1200.04 1088.70 1089.91 1042.32 994.68 C 1001.25 897.94 859.19 936.12 814.25 1012.25 C 741.42 1096.39 772.35 1212.54 768.00 1315.00
C 875.92 1324.74 980.91 1303.51 1088.00 1307.00
M 1033.00 1145.00
C 1079.52 1133.58 1082.62 1211.30 1040.33 1216.33 C 994.59 1225.50 987.40 1145.13 1033.00 1145.00 Z"/>
</g>
<g fill="#FE6457" fill-opacity="1.00" stroke="None">
<path d="
M 559.00 961.00
C 544.67 961.00 530.33 961.00 516.00 961.00
C 512.25 963.22 506.51 961.41 502.00 962.00
C 490.00 962.00 478.00 962.00 466.00 962.00
C 462.25 964.22 456.51 962.41 452.00 963.00
C 413.49 963.73 375.34 958.71 337.00 962.00 C 305.89 978.90 332.03 1025.70 367.98 1020.02 C 439.96 1031.46 514.43 1032.88 589.00 1034.00 C 617.67 1031.29 671.27 1035.71 667.00 994.00 C 675.31 945.56 613.99 963.42 584.00 960.00
C 576.66 962.33 567.17 960.34 559.00 961.00 Z"/>
</g>
<g fill="#008D00" fill-opacity="1.00" stroke="None">
<path d="
M 1315.00 1179.00
C 1312.44 1187.49 1312.96 1196.84 1313.00 1206.00
C 1311.07 1241.13 1312.63 1280.37 1285.00 1306.00
C 1319.71 1306.83 1354.80 1306.17 1389.00 1309.00 C 1443.95 1324.71 1517.52 1259.83 1478.75 1208.25 C 1454.73 1181.59 1425.20 1219.32 1405.31 1205.70 C 1386.56 1181.10 1418.60 1148.84 1397.75 1122.25 C 1379.52 1101.67 1351.06 1086.71 1323.00 1095.00
C 1316.75 1123.19 1332.02 1154.75 1315.00 1179.00 Z"/>
</g>
<g fill="#008D00" fill-opacity="1.00" stroke="None">
<path d="
M 199.00 1160.00
C 197.34 1160.54 196.67 1162.56 195.00 1163.00
C 195.00 1161.33 195.00 1159.67 195.00 1158.00
C 212.73 1112.71 152.58 1119.02 137.92 1147.92 C 124.93 1178.31 164.94 1206.70 148.93 1235.93 C 130.46 1260.72 110.15 1200.05 79.00 1211.00 C 46.01 1210.80 31.08 1251.73 33.00 1280.00 C 25.44 1324.45 75.00 1324.70 106.00 1320.00 C 141.00 1316.96 176.08 1314.28 211.00 1311.00
C 178.81 1266.68 200.87 1210.82 199.00 1160.00 Z"/>
</g>
<g fill="#000000" fill-opacity="1.00" stroke="None">
<path d="
M 1033.00 1145.00
C 987.40 1145.13 994.59 1225.50 1040.33 1216.33 C 1082.62 1211.30 1079.52 1133.58 1033.00 1145.00
M 1044.00 1156.00
C 1091.84 1175.21 1017.79 1235.67 1013.00 1181.00 C 1011.19 1155.65 1036.31 1163.97 1044.00 1156.00 Z"/>
</g>
<g fill="#FE6457" fill-opacity="1.00" stroke="None">
<path d="
M 1044.00 1156.00
C 1036.31 1163.97 1011.19 1155.65 1013.00 1181.00 C 1017.79 1235.67 1091.84 1175.21 1044.00 1156.00 Z"/>
</g>

<g fill="#008E00" fill-opacity="1.00" stroke="None">
<path d="
M 546.00 1201.00
C 512.77 1198.65 466.50 1211.01 462.00 1249.00 C 470.12 1281.78 446.84 1345.09 420.75 1293.25 C 394.92 1272.06 341.14 1281.25 333.00 1315.00 C 328.96 1347.94 346.88 1391.63 382.32 1394.68 C 461.32 1409.99 546.58 1400.40 626.00 1414.00 C 665.23 1434.12 689.73 1395.78 692.67 1361.67 C 690.46 1330.75 690.52 1273.35 649.02 1274.02 C 616.74 1267.68 593.26 1338.98 572.77 1299.23 C 566.93 1268.34 587.64 1214.59 546.00 1201.00 Z"/>
</g>
</svg>