<svg xmlns="http://www.w3.org/2000/svg"
viewBox="0 0 1533 1533">
<g fill="#000002" fill-opacity="1.00" stroke="None">
<path d="
M 783.00 279.00
C 834.90 213.55 838.12 103.11 771.25 46.75 C 707.08 -15.87 596.86 5.24 531.75 53.75 C 459.66 108.10 467.84 210.40 532.00 267.00
C 493.63 262.94 455.30 274.10 416.00 268.00 C 352.43 269.08 245.32 256.05 238.98 340.98 C 216.98 454.39 224.28 576.73 228.00 693.00 C 226.79 806.75 216.70 928.64 258.23 1031.77 C 337.22 1109.75 468.96 1078.61 571.92 1077.08 C 575.63 1107.08 570.42 1160.71 617.00 1157.00
C 597.20 1214.90 602.01 1282.14 630.03 1335.98 C 668.38 1457.67 808.09 1470.44 916.00 1480.00 C 1002.61 1483.95 1087.87 1447.56 1126.75 1367.75 C 1169.02 1330.38 1147.65 1251.87 1205.33 1230.33 C 1237.66 1225.14 1238.27 1270.76 1248.02 1291.98 C 1255.40 1313.61 1237.51 1368.47 1274.00 1360.00 C 1297.26 1358.63 1359.66 1370.88 1345.00 1336.00
C 1358.17 1247.85 1330.25 1153.72 1256.08 1099.92 C 1180.76 1039.07 1084.80 1113.75 1055.31 1188.31 C 1014.91 1252.87 970.70 1346.74 883.00 1351.00 C 780.26 1366.81 728.54 1249.19 740.00 1165.00
C 790.02 1171.83 800.11 1117.28 803.00 1081.00 C 886.42 1083.75 982.01 1107.32 1055.77 1059.77 C 1088.52 1032.86 1085.74 985.46 1089.00 946.00 C 1088.96 758.75 1121.99 573.76 1102.78 387.22 C 1103.44 346.73 1095.78 305.39 1054.22 288.78 C 967.43 270.92 872.54 269.34 783.00 279.00
M 1075.00 696.00
C 1037.93 700.12 1016.61 750.95 977.31 761.31 C 742.90 853.35 585.09 527.64 351.78 610.78 C 314.35 625.72 279.52 649.09 252.00 679.00
C 253.05 559.62 238.47 433.92 271.30 321.30 C 335.69 276.90 424.43 310.64 496.07 296.07 C 527.66 293.21 587.71 316.74 573.22 262.78 C 520.61 230.52 475.37 151.21 528.75 100.75 C 587.21 23.26 735.53 9.06 783.77 105.23 C 798.47 138.09 800.84 177.53 787.22 211.22 C 790.47 245.11 737.33 262.48 750.78 294.22 C 769.74 328.96 819.53 294.46 853.00 304.00 C 892.79 299.29 928.68 305.78 969.00 307.00 C 1004.65 309.56 1043.29 309.98 1070.08 334.92 C 1088.49 452.71 1085.34 576.17 1075.00 696.00
M 1071.00 723.00
C 1066.47 808.04 1070.74 898.35 1060.01 983.01 C 1055.13 1074.01 938.30 1058.23 872.00 1056.00 C 838.15 1061.70 766.08 1029.09 775.00 1088.00 C 783.54 1141.59 726.10 1139.92 689.00 1133.00 C 653.36 1127.70 584.01 1144.01 600.00 1086.00 C 605.57 1030.46 537.71 1051.08 503.99 1050.99 C 430.14 1054.43 336.41 1064.19 278.03 1013.97 C 250.75 938.15 253.10 852.24 251.00 769.00 C 244.21 693.56 325.94 650.33 386.22 631.22 C 576.24 599.50 698.09 801.96 882.00 808.00 C 955.36 812.39 1026.92 782.08 1071.00 723.00
M 1276.00 1330.00
C 1276.69 1279.56 1259.57 1182.32 1190.93 1203.93 C 1129.05 1224.98 1148.52 1304.23 1109.25 1344.25 C 1079.80 1388.69 1044.18 1437.78 985.98 1442.98 C 874.04 1451.96 720.13 1452.97 659.69 1340.31 C 631.69 1285.95 619.99 1219.92 643.00 1161.00
C 666.57 1162.71 690.67 1162.31 714.00 1165.00
C 706.51 1250.20 746.59 1362.09 840.00 1379.00 C 992.17 1408.89 1046.28 1239.70 1117.75 1144.75 C 1183.61 1062.12 1295.32 1137.23 1309.93 1221.07 C 1309.64 1245.01 1326.65 1266.31 1323.00 1292.00 C 1332.68 1328.56 1306.57 1336.02 1276.00 1330.00 Z"/>
</g>
<g fill="#DDE0DF" fill-opacity="1.00" stroke="None">
<path d="
M 1075.00 696.00
C 1085.34 576.17 1088.49 452.71 1070.08 334.92 C 1043.29 309.98 1004.65 309.56 969.00 307.00 C 928.68 305.78 892.79 299.29 853.00 304.00 C 819.53 294.46 769.74 328.96 750.78 294.22 C 737.33 262.48 790.47 245.11 787.22 211.22 C 800.84 177.53 798.47 138.09 783.77 105.23 C 735.53 9.06 587.21 23.26 528.75 100.75 C 475.37 151.21 520.61 230.52 573.22 262.78 C 587.71 316.74 527.66 293.21 496.07 296.07 C 424.43 310.64 335.69 276.90 271.30 321.30 C 238.47 433.92 253.05 559.62 252.00 679.00
C 279.52 649.09 314.35 625.72 351.78 610.78 C 585.09 527.64 742.90 853.35 977.31 761.31 C 1016.61 750.95 1037.93 700.12 1075.00 696.00
M 571.00 143.00
C 569.37 137.74 569.31 129.19 571.00 124.00
C 589.16 75.82 653.98 66.39 696.25 84.75 C 740.00 109.36 746.92 171.90 729.03 215.02 C 721.74 257.46 659.77 302.54 632.00 255.00
C 592.26 235.48 571.92 186.54 571.00 143.00
M 895.00 433.00
C 899.75 430.74 906.49 432.62 912.00 432.00
C 954.83 424.07 928.96 477.47 898.00 463.00 C 868.30 463.67 839.49 465.88 810.00 466.00 C 777.93 476.78 766.43 422.92 806.00 437.00 C 835.73 435.93 865.15 433.64 895.00 433.00
M 845.00 507.00
C 871.42 514.14 912.54 496.68 930.99 518.01 C 931.69 555.52 889.21 531.12 865.00 537.00 C 837.31 532.00 798.96 547.67 779.23 527.77 C 762.95 493.45 824.74 511.53 845.00 507.00 Z"/>
</g>
<g fill="#000002" fill-opacity="1.00" stroke="None">
<path d="
M 571.00 124.00
C 571.00 130.33 571.00 136.67 571.00 143.00
C 571.92 186.54 592.26 235.48 632.00 255.00
C 659.77 302.54 721.74 257.46 729.03 215.02 C 746.92 171.90 740.00 109.36 696.25 84.75 C 653.98 66.39 589.16 75.82 571.00 124.00
M 674.00 107.00
C 710.51 114.91 717.62 161.47 709.67 192.67 C 702.30 218.44 675.49 264.50 647.92 233.08 C 618.12 218.96 602.10 186.62 597.07 155.93 C 586.98 112.21 640.76 101.39 674.00 107.00 Z"/>
</g>
<g fill="#24F7D9" fill-opacity="1.00" stroke="None">
<path d="
M 1071.00 723.00
C 1026.92 782.08 955.36 812.39 882.00 808.00 C 698.09 801.96 576.24 599.50 386.22 631.22 C 325.94 650.33 244.21 693.56 251.00 769.00 C 253.10 852.24 250.75 938.15 278.03 1013.97 C 336.41 1064.19 430.14 1054.43 503.99 1050.99 C 537.71 1051.08 605.57 1030.46 600.00 1086.00 C 584.01 1144.01 653.36 1127.70 689.00 1133.00 C 726.10 1139.92 783.54 1141.59 775.00 1088.00 C 766.08 1029.09 838.15 1061.70 872.00 1056.00 C 938.30 1058.23 1055.13 1074.01 1060.01 983.01 C 1070.74 898.35 1066.47 808.04 1071.00 723.00 Z"/>
</g>
<g fill="#24F7D9" fill-opacity="1.00" stroke="None">
<path d="
M 1276.00 1330.00
C 1306.57 1336.02 1332.68 1328.56 1323.00 1292.00 C 1326.65 1266.31 1309.64 1245.01 1309.93 1221.07 C 1295.32 1137.23 1183.61 1062.12 1117.75 1144.75 C 1046.28 1239.70 992.17 1408.89 840.00 1379.00 C 746.59 1362.09 706.51 1250.20 714.00 1165.00
C 690.67 1162.31 666.57 1162.71 643.00 1161.00
C 619.99 1219.92 631.69 1285.95 659.69 1340.31 C 720.13 1452.97 874.04 1451.96 985.98 1442.98 C 1044.18 1437.78 1079.80 1388.69 1109.25 1344.25 C 1148.52 1304.23 1129.05 1224.98 1190.93 1203.93 C 1259.57 1182.32 1276.69 1279.56 1276.00 1330.00 Z"/>
</g>
<g fill="#000002" fill-opacity="1.00" stroke="None">
<path d="
M 1312.00 1364.00
C 1277.32 1370.37 1261.51 1411.95 1236.30 1435.30 C 1172.86 1520.64 1372.25 1576.03 1355.00 1468.00 C 1358.56 1426.99 1330.80 1394.68 1312.00 1364.00
M 1304.00 1400.00
C 1320.55 1426.49 1337.01 1455.60 1327.01 1489.01 C 1310.31 1505.47 1250.13 1496.69 1250.33 1465.33 C 1262.24 1438.89 1291.42 1424.22 1304.00 1400.00 Z"/>
</g>
<g fill="#24F7D9" fill-opacity="1.00" stroke="None">
<path d="
M 1304.00 1400.00
C 1291.42 1424.22 1262.24 1438.89 1250.33 1465.33 C 1250.13 1496.69 1310.31 1505.47 1327.01 1489.01 C 1337.01 1455.60 1320.55 1426.49 1304.00 1400.00 Z"/>
</g>
</svg>