<svg xmlns="http://www.w3.org/2000/svg"
viewBox="0 0 1297 1297">
<g fill="#000000" fill-opacity="1.00" stroke="None">
<path d="
M 199.00 1145.00
C 225.08 1147.85 213.14 1093.99 201.92 1077.08 C 179.11 1030.73 161.12 982.63 138.98 936.03 C 98.28 894.59 152.48 803.58 201.08 852.92 C 209.35 1059.65 515.23 1119.54 645.75 991.75 C 742.08 854.20 662.10 659.55 526.77 581.23 C 503.12 556.47 543.31 527.31 567.93 540.07 C 647.41 600.59 718.61 710.33 833.93 672.93 C 973.23 635.54 1015.47 454.02 941.93 341.07 C 932.18 313.03 974.54 301.80 995.33 298.33 C 1024.28 297.35 1052.05 305.11 1077.31 317.70 C 1134.22 342.47 1120.90 420.21 1102.31 466.31 C 1042.49 574.56 892.98 653.10 931.01 797.99 C 945.61 904.41 1059.05 958.62 1149.33 988.67 C 1174.22 990.67 1210.50 1013.41 1225.75 984.75 C 1238.76 963.46 1254.62 943.12 1262.22 919.22 C 1262.39 887.69 1216.24 897.21 1196.02 884.98 C 1123.43 852.57 1081.97 755.46 1122.08 684.08 C 1188.03 576.39 1318.73 485.20 1282.98 341.02 C 1248.11 146.90 973.64 74.09 837.25 209.25 C 770.62 283.07 858.06 376.59 828.92 457.92 C 770.03 568.82 637.19 501.30 579.25 422.75 C 540.90 347.13 419.49 352.68 386.31 427.31 C 351.55 560.41 461.75 673.14 522.23 781.77 C 559.36 857.89 478.44 958.23 395.02 937.98 C 306.71 922.80 300.78 817.98 274.92 751.08 C 259.18 661.21 150.91 639.26 88.70 697.70 C -51.04 802.34 14.00 1020.00 114.00 1126.00
C 143.17 1124.71 170.94 1142.39 199.00 1145.00
M 487.00 403.00
C 489.61 401.44 495.46 401.28 498.00 403.00
C 564.61 425.72 598.80 509.90 667.23 535.77 C 736.41 578.78 836.81 539.67 859.98 461.98 C 893.89 383.09 795.05 285.99 872.70 222.70 C 996.97 122.64 1225.89 185.38 1253.98 351.02 C 1293.96 525.77 1054.31 599.52 1077.93 770.07 C 1089.87 842.26 1146.17 918.15 1223.00 928.00
C 1214.02 959.41 1189.85 969.78 1160.33 955.67 C 1062.53 928.34 939.54 861.18 957.00 739.00 C 976.23 606.09 1151.07 547.67 1147.00 404.00 C 1172.35 280.43 979.63 212.84 913.08 309.08 C 902.12 366.85 956.32 414.92 948.00 476.00 C 953.17 590.77 815.96 686.29 713.30 624.70 C 650.08 588.87 608.35 482.25 524.93 508.93 C 467.65 532.71 488.31 614.70 541.23 630.77 C 647.24 707.48 709.27 883.16 604.75 985.75 C 493.07 1052.21 292.09 1032.95 240.67 898.33 C 247.50 843.81 194.78 775.27 138.30 813.30 C 36.24 892.41 156.27 1014.49 181.00 1105.00
C 159.94 1099.14 139.28 1091.48 117.00 1090.00
C 56.93 994.72 -6.05 847.96 81.25 749.25 C 116.89 710.23 195.85 669.38 231.25 728.75 C 261.28 781.58 264.53 843.96 293.92 897.08 C 345.60 1021.67 540.98 983.44 557.33 855.33 C 575.41 731.29 445.30 653.13 420.69 538.31 C 385.47 483.64 413.63 398.04 487.00 403.00 Z"/>
</g>
<g fill="#ED6F54" fill-opacity="1.00" stroke="None">
<path d="
M 498.00 403.00
C 494.33 403.00 490.67 403.00 487.00 403.00
C 413.63 398.04 385.47 483.64 420.69 538.31 C 445.30 653.13 575.41 731.29 557.33 855.33 C 540.98 983.44 345.60 1021.67 293.92 897.08 C 264.53 843.96 261.28 781.58 231.25 728.75 C 195.85 669.38 116.89 710.23 81.25 749.25 C -6.05 847.96 56.93 994.72 117.00 1090.00
C 139.28 1091.48 159.94 1099.14 181.00 1105.00
C 156.27 1014.49 36.24 892.41 138.30 813.30 C 194.78 775.27 247.50 843.81 240.67 898.33 C 292.09 1032.95 493.07 1052.21 604.75 985.75 C 709.27 883.16 647.24 707.48 541.23 630.77 C 488.31 614.70 467.65 532.71 524.93 508.93 C 608.35 482.25 650.08 588.87 713.30 624.70 C 815.96 686.29 953.17 590.77 948.00 476.00 C 956.32 414.92 902.12 366.85 913.08 309.08 C 979.63 212.84 1172.35 280.43 1147.00 404.00 C 1151.07 547.67 976.23 606.09 957.00 739.00 C 939.54 861.18 1062.53 928.34 1160.33 955.67 C 1189.85 969.78 1214.02 959.41 1223.00 928.00
C 1146.17 918.15 1089.87 842.26 1077.93 770.07 C 1054.31 599.52 1293.96 525.77 1253.98 351.02 C 1225.89 185.38 996.97 122.64 872.70 222.70 C 795.05 285.99 893.89 383.09 859.98 461.98 C 836.81 539.67 736.41 578.78 667.23 535.77 C 598.80 509.90 564.61 425.72 498.00 403.00 Z"/>
</g>
</svg>