<svg xmlns="http://www.w3.org/2000/svg"
viewBox="0 0 1217 1217">
<g fill="#000000" fill-opacity="1.00" stroke="None">
<path d="
M 328.00 199.00 
C 321.80 197.03 315.68 190.62 315.00 184.00
C 300.74 152.63 291.92 119.29 276.77 88.23 C 259.15 64.20 251.38 18.23 217.03 16.03 C 206.55 43.80 241.46 76.60 251.69 105.31 C 265.61 136.78 274.85 170.16 290.00 201.00
C 261.96 255.27 253.90 318.25 240.98 377.98 C 239.10 408.18 217.91 440.42 235.23 468.77 C 319.34 643.81 424.12 808.80 513.23 981.77 C 524.06 1003.98 559.52 1032.71 518.70 1042.70 C 495.63 1053.92 462.27 1079.52 486.08 1106.92 C 505.91 1134.45 546.38 1114.24 572.92 1108.92 C 598.64 1097.44 622.80 1081.62 650.00 1074.00
C 656.83 1098.75 684.61 1127.73 677.70 1149.70 C 646.69 1159.34 642.74 1205.48 677.00 1211.00 C 734.48 1198.01 789.19 1175.66 841.92 1148.92 C 884.20 1124.00 959.38 1098.59 955.22 1040.78 C 925.71 1029.49 895.19 1048.91 868.00 1059.00
C 854.63 1036.34 839.56 1014.31 827.00 991.00
C 862.67 978.22 896.96 961.50 929.25 941.25 C 968.62 935.12 1000.57 889.24 963.70 857.30 C 925.54 837.17 884.92 866.94 849.00 879.00
C 762.57 685.02 640.23 506.82 560.78 309.22 C 538.50 274.48 483.99 272.31 450.08 247.92 C 410.34 229.10 370.55 209.78 328.00 199.00
M 822.00 893.00 
C 734.94 927.35 653.34 975.88 568.00 1015.00
C 558.26 991.22 540.00 971.43 529.00 948.00
C 549.76 935.22 576.89 920.74 582.99 894.99 C 565.05 876.35 532.39 908.01 512.00 918.00
C 502.52 899.88 491.31 882.62 483.00 864.00
C 498.76 855.83 514.07 846.09 528.70 835.70 C 545.13 828.62 561.02 792.15 530.33 802.33 C 512.40 807.81 495.29 816.30 479.25 826.25 C 460.77 843.99 456.57 808.33 447.00 797.00
C 470.95 780.58 502.19 763.57 511.93 733.93 C 487.46 714.45 454.69 755.39 430.00 766.00
C 423.21 753.07 415.14 740.49 409.00 727.00
C 432.57 709.83 470.92 696.03 475.00 663.00
C 444.35 657.75 418.20 683.91 392.00 696.00
C 384.96 683.20 377.11 670.51 371.00 657.00
C 394.52 640.16 431.35 630.54 438.99 598.99 C 412.39 583.00 378.64 615.99 352.00 627.00
C 343.11 613.79 336.02 599.69 328.00 586.00
C 351.97 570.92 388.60 562.03 395.99 530.99 C 370.12 514.85 336.28 545.85 310.00 556.00
C 303.20 541.94 293.83 528.34 290.00 513.00
C 310.32 502.10 340.44 489.62 340.00 462.00
C 317.30 454.56 294.93 472.16 275.00 482.00
C 245.93 444.22 270.11 399.88 275.99 357.99 C 281.92 314.03 295.89 272.17 308.00 230.00
C 357.55 240.57 403.59 262.61 449.08 284.92 C 493.25 306.69 548.56 316.78 554.78 375.22 C 636.33 551.86 742.79 716.30 822.00 893.00
M 801.00 1005.00 
C 812.43 1028.56 827.29 1050.57 841.00 1073.00
C 797.69 1093.23 753.96 1113.12 711.00 1134.00
C 700.52 1109.77 688.22 1086.29 678.00 1062.00
C 719.00 1042.99 759.75 1023.27 801.00 1005.00 Z"/>
</g>
<g fill="#45D8FF" fill-opacity="1.00" stroke="None">
<path d="
M 822.00 893.00 
C 742.79 716.30 636.33 551.86 554.78 375.22 C 548.56 316.78 493.25 306.69 449.08 284.92 C 403.59 262.61 357.55 240.57 308.00 230.00
C 295.89 272.17 281.92 314.03 275.99 357.99 C 270.11 399.88 245.93 444.22 275.00 482.00
C 294.93 472.16 317.30 454.56 340.00 462.00
C 340.44 489.62 310.32 502.10 290.00 513.00
C 293.83 528.34 303.20 541.94 310.00 556.00
C 336.28 545.85 370.12 514.85 395.99 530.99 C 388.60 562.03 351.97 570.92 328.00 586.00
C 336.02 599.69 343.11 613.79 352.00 627.00
C 378.64 615.99 412.39 583.00 438.99 598.99 C 431.35 630.54 394.52 640.16 371.00 657.00
C 377.11 670.51 384.96 683.20 392.00 696.00
C 418.20 683.91 444.35 657.75 475.00 663.00
C 470.92 696.03 432.57 709.83 409.00 727.00
C 415.14 740.49 423.21 753.07 430.00 766.00
C 454.69 755.39 487.46 714.45 511.93 733.93 C 502.19 763.57 470.95 780.58 447.00 797.00
C 456.57 808.33 460.77 843.99 479.25 826.25 C 495.29 816.30 512.40 807.81 530.33 802.33 C 561.02 792.15 545.13 828.62 528.70 835.70 C 514.07 846.09 498.76 855.83 483.00 864.00
C 491.31 882.62 502.52 899.88 512.00 918.00
C 532.39 908.01 565.05 876.35 582.99 894.99 C 576.89 920.74 549.76 935.22 529.00 948.00
C 540.00 971.43 558.26 991.22 568.00 1015.00
C 653.34 975.88 734.94 927.35 822.00 893.00 Z"/>
</g>
</svg>