<svg xmlns="http://www.w3.org/2000/svg"
viewBox="0 0 979 979">
<g fill="#000000" fill-opacity="1.00" stroke="None">
<path d="
M 294.00 968.00
C 300.33 968.00 306.67 968.00 313.00 968.00
C 429.68 953.56 548.96 982.05 665.00 962.00
C 671.76 959.70 680.49 961.64 688.00 961.00
C 749.02 952.09 807.95 956.99 869.78 959.78 C 932.94 960.18 933.88 888.32 948.01 844.01 C 954.30 720.35 931.85 597.67 938.00 477.00 C 951.44 421.11 921.78 356.60 956.70 309.70 C 983.80 260.45 954.91 204.82 934.93 159.07 C 913.94 117.34 909.88 60.69 864.08 35.92 C 813.01 10.51 751.46 19.85 696.00 9.00 C 506.02 3.85 320.34 24.30 131.00 25.00 C 63.53 2.08 63.57 85.34 45.78 127.78 C 33.39 180.07 2.09 228.74 11.07 285.93 C 36.70 336.79 31.58 397.51 36.00 455.00 C 41.84 580.21 41.99 705.70 43.00 831.00 C 33.20 884.31 52.94 952.66 115.98 952.02 C 176.13 954.07 235.36 959.96 294.00 968.00
M 649.00 43.00
C 707.36 40.56 761.56 54.67 819.00 56.00 C 874.02 58.20 884.90 116.63 901.92 157.08 C 914.68 199.97 956.30 250.38 927.25 294.25 C 784.76 379.24 599.35 339.57 437.78 338.22 C 326.33 315.40 207.75 321.47 92.00 316.00 C 29.15 312.75 32.39 242.06 53.98 199.98 C 70.84 154.18 82.52 106.93 99.00 61.00
C 102.31 61.22 104.33 57.76 108.00 59.00
C 114.67 59.00 121.33 59.00 128.00 59.00
C 164.52 58.76 200.30 55.55 237.00 56.00
C 260.76 53.67 286.49 55.66 311.00 55.00
C 386.32 53.63 460.46 47.56 535.00 43.00
C 571.93 41.33 612.14 41.33 649.00 43.00
M 110.00 352.00
C 122.17 352.67 135.66 350.67 147.00 353.00
C 159.00 353.00 171.00 353.00 183.00 353.00
C 188.50 353.65 195.33 351.68 200.00 354.00
C 356.45 353.53 504.16 387.91 662.00 382.00
C 664.76 379.84 669.49 381.55 673.00 381.00
C 688.67 381.00 704.33 381.00 720.00 381.00
C 726.09 378.71 734.16 380.63 741.00 380.00
C 800.63 381.54 855.09 362.23 910.00 346.00
C 908.84 475.79 903.71 609.29 919.00 740.00 C 919.73 800.71 924.17 868.66 889.92 917.92 C 830.11 936.10 763.92 908.63 702.00 926.00 C 569.32 945.02 434.78 920.53 302.00 934.00 C 239.01 924.06 174.37 920.48 109.99 916.01 C 40.93 897.60 82.65 798.55 74.00 745.00 C 65.60 611.26 73.58 473.47 58.00 341.00
C 74.41 347.60 91.39 353.23 110.00 352.00 Z"/>
</g>
<g fill="#FF0000" fill-opacity="1.00" stroke="None">
        <path d="
M 222.00 687.00
C 235.83 687.67 250.99 685.67 264.00 688.00
C 274.93 687.32 285.08 689.68 296.00 689.00
C 302.00 689.00 308.00 689.00 314.00 689.00
C 322.67 689.00 331.33 689.00 340.00 689.00
C 351.09 686.68 364.15 688.66 376.00 688.00
C 384.61 688.72 392.43 686.38 401.00 687.00
C 405.48 735.13 391.38 778.60 393.00 826.00 C 396.54 881.72 465.24 850.16 501.00 863.00
C 508.16 863.66 516.66 861.67 523.00 864.00
C 562.04 870.63 558.99 821.43 558.00 795.00 C 553.01 764.07 551.21 732.36 548.00 701.00
C 556.61 700.28 564.43 702.62 573.00 702.00
C 582.33 702.00 591.67 702.00 601.00 702.00
C 613.87 701.52 626.39 702.50 639.00 703.00
C 655.67 703.00 672.33 703.00 689.00 703.00
C 717.12 700.62 718.84 660.43 724.00 638.00 C 719.03 609.82 731.03 571.88 711.08 550.92 C 651.05 542.89 583.74 562.62 525.00 553.00 C 527.47 522.29 530.61 491.75 533.02 461.02 C 527.71 435.69 553.99 390.56 517.00 385.00 C 484.77 381.99 452.80 387.96 420.02 386.02 C 379.92 385.16 397.35 429.00 397.00 455.00 C 397.66 487.58 395.67 520.83 398.00 553.00
C 339.01 556.03 279.32 547.35 221.67 547.67 C 194.48 556.55 210.80 598.49 200.93 620.93 C 197.79 643.74 192.12 681.42 222.00 687.00 Z"/>
    </g>
<g fill="#E6CDCB" fill-opacity="1.00" stroke="None">
<path d="
M 311.00 55.00
C 287.24 57.33 261.51 55.34 237.00 56.00
C 200.30 55.55 164.52 58.76 128.00 59.00
C 122.41 60.63 113.52 60.69 108.00 59.00
C 104.33 57.76 102.31 61.22 99.00 61.00
C 82.52 106.93 70.84 154.18 53.98 199.98 C 32.39 242.06 29.15 312.75 92.00 316.00 C 207.75 321.47 326.33 315.40 437.78 338.22 C 599.35 339.57 784.76 379.24 927.25 294.25 C 956.30 250.38 914.68 199.97 901.92 157.08 C 884.90 116.63 874.02 58.20 819.00 56.00 C 761.56 54.67 707.36 40.56 649.00 43.00
C 611.00 43.00 573.00 43.00 535.00 43.00
C 460.46 47.56 386.32 53.63 311.00 55.00 Z"/>
</g>
<g fill="#E7CECB" fill-opacity="1.00" stroke="None">
<path d="
M 741.00 380.00
C 734.91 382.29 726.84 380.37 720.00 381.00
C 704.33 381.00 688.67 381.00 673.00 381.00
C 670.24 383.16 665.51 381.45 662.00 382.00
C 504.16 387.91 356.45 353.53 200.00 354.00
C 194.50 353.35 187.67 355.32 183.00 353.00
C 171.00 353.00 159.00 353.00 147.00 353.00
C 134.83 352.33 121.34 354.33 110.00 352.00
C 91.39 353.23 74.41 347.60 58.00 341.00
C 73.58 473.47 65.60 611.26 74.00 745.00 C 82.65 798.55 40.93 897.60 109.99 916.01 C 174.37 920.48 239.01 924.06 302.00 934.00 C 434.78 920.53 569.32 945.02 702.00 926.00 C 763.92 908.63 830.11 936.10 889.92 917.92 C 924.17 868.66 919.73 800.71 919.00 740.00 C 903.71 609.29 908.84 475.79 910.00 346.00
C 855.09 362.23 800.63 381.54 741.00 380.00
M 689.00 703.00
C 673.40 704.66 654.52 704.67 639.00 703.00
C 626.39 702.50 613.87 701.52 601.00 702.00
C 592.74 703.65 581.19 703.68 573.00 702.00
C 564.43 702.62 556.61 700.28 548.00 701.00
C 551.21 732.36 553.01 764.07 558.00 795.00 C 558.99 821.43 562.04 870.63 523.00 864.00
C 515.83 863.34 507.34 865.33 501.00 863.00
C 465.24 850.16 396.54 881.72 393.00 826.00 C 391.38 778.60 405.48 735.13 401.00 687.00
C 392.43 686.38 384.61 688.72 376.00 688.00
C 364.91 690.32 351.85 688.34 340.00 689.00
C 331.33 689.00 322.67 689.00 314.00 689.00
C 309.08 690.62 300.85 690.69 296.00 689.00
C 285.08 689.68 274.93 687.32 264.00 688.00
C 250.17 687.33 235.01 689.33 222.00 687.00
C 192.12 681.42 197.79 643.74 200.93 620.93 C 210.80 598.49 194.48 556.55 221.67 547.67 C 279.32 547.35 339.01 556.03 398.00 553.00
C 395.67 520.83 397.66 487.58 397.00 455.00 C 397.35 429.00 379.92 385.16 420.02 386.02 C 452.80 387.96 484.77 381.99 517.00 385.00 C 553.99 390.56 527.71 435.69 533.02 461.02 C 530.61 491.75 527.47 522.29 525.00 553.00 C 583.74 562.62 651.05 542.89 711.08 550.92 C 731.03 571.88 719.03 609.82 724.00 638.00 C 718.84 660.43 717.12 700.62 689.00 703.00 Z"/>
</g>
</svg>