<svg xmlns="http://www.w3.org/2000/svg"
viewBox = "120 450 1200 1200">
<g fill="#000000" fill-opacity="1.00" stroke="None">
<path d="
M 910.00 480.00
C 896.33 480.00 882.67 480.00 869.00 480.00
C 859.84 484.47 847.43 480.81 837.00 482.00
C 828.67 482.00 820.33 482.00 812.00 482.00
C 794.54 483.56 776.02 484.33 758.00 485.00
C 754.00 485.00 750.00 485.00 746.00 485.00
C 737.29 489.01 725.05 486.43 715.00 488.00
C 712.00 488.00 709.00 488.00 706.00 488.00
C 706.00 488.00 705.50 488.00 705.00 488.00
C 698.35 489.71 690.45 490.09 683.00 490.00
C 677.51 491.42 670.94 491.94 665.00 493.00
C 664.00 493.00 663.00 493.00 662.00 493.00
C 659.53 496.28 654.96 497.49 651.00 498.00
C 648.32 502.54 647.39 507.46 648.00 513.00
C 651.67 516.47 649.68 523.20 651.00 528.00
C 651.00 529.33 651.00 530.67 651.00 532.00
C 652.99 535.99 653.79 541.19 654.00 546.00
C 653.69 549.94 655.94 553.19 656.00 557.00
C 660.26 568.10 661.16 581.81 664.00 594.00
C 663.87 598.96 666.88 603.07 667.00 608.00
C 667.00 609.00 667.00 610.00 667.00 611.00
C 669.76 615.72 671.49 621.26 672.00 627.00
C 672.00 628.00 672.00 629.00 672.00 630.00
C 679.11 648.92 684.14 670.05 690.00 690.00
C 690.02 690.50 689.94 691.51 690.00 692.00
C 694.79 698.24 694.95 706.83 698.00 714.00
C 698.06 714.49 697.93 715.51 698.00 716.00
C 700.98 718.90 701.47 724.02 703.00 728.00
C 702.92 729.45 703.07 730.86 704.00 732.00
C 706.12 734.75 707.91 737.91 708.00 742.00
C 707.49 746.12 710.27 749.27 711.00 753.00
C 717.35 762.97 720.30 774.75 724.00 786.00
C 724.07 786.49 723.94 787.51 724.00 788.00
C 727.14 790.61 728.03 795.07 729.00 799.00
C 728.92 800.45 729.07 801.86 730.00 803.00
C 736.89 816.81 741.10 832.49 747.00 847.00
C 749.29 854.51 751.19 862.01 755.00 869.00
C 758.23 871.89 759.47 876.63 760.00 881.00
C 761.70 888.65 765.43 895.60 768.00 903.00
C 770.80 906.30 772.79 910.47 773.00 915.00
C 772.17 918.90 775.64 921.47 776.00 925.00
C 780.58 931.20 790.78 955.64 797.00 940.00
C 802.01 941.01 802.27 948.21 807.00 950.00
C 807.04 951.10 808.34 950.81 809.00 951.00
C 816.24 946.21 819.68 937.57 826.00 932.00
C 826.22 931.64 826.00 931.00 826.00 931.00
C 837.31 914.43 849.19 896.78 862.00 881.00
C 862.00 881.00 861.84 880.44 862.00 880.00
C 868.08 870.73 873.08 860.43 880.00 852.00
C 881.03 850.05 883.05 848.40 883.00 846.00
C 886.34 840.63 889.21 823.57 897.00 831.00
C 899.72 832.50 901.54 836.05 905.00 836.00
C 915.11 841.17 924.35 848.69 932.00 857.00
C 934.74 858.09 935.83 862.03 939.00 862.00
C 942.45 864.05 944.58 868.00 948.00 870.00
C 953.99 875.18 959.89 881.04 965.00 887.00
C 967.05 890.45 971.00 892.58 973.00 896.00
C 973.20 896.40 973.00 897.00 973.00 897.00
C 979.93 903.49 985.84 910.30 991.00 918.00
C 992.40 922.54 996.14 926.16 999.00 930.00
C 1000.94 932.54 1002.03 935.45 1004.00 938.00
C 1007.78 940.13 1010.08 945.83 1012.00 950.00
C 1012.00 950.00 1011.96 950.50 1012.00 951.00
C 1020.80 961.97 1025.31 975.80 1030.00 989.00
C 1030.00 989.00 1029.86 989.55 1030.00 990.00
C 1034.77 996.71 1036.04 1005.04 1038.00 1013.00
C 1038.00 1014.00 1038.00 1015.00 1038.00 1016.00
C 1041.01 1021.28 1043.01 1027.47 1043.00 1034.00
C 1043.00 1035.33 1043.00 1036.67 1043.00 1038.00
C 1044.87 1043.02 1046.15 1049.11 1046.00 1055.00
C 1049.75 1078.17 1049.13 1106.09 1043.00 1128.00
C 1043.00 1129.00 1043.00 1130.00 1043.00 1131.00
C 1041.84 1136.97 1041.19 1144.25 1038.00 1149.00
C 1037.99 1149.50 1038.02 1150.50 1038.00 1151.00
C 1038.19 1154.67 1035.58 1157.53 1035.00 1161.00
C 1034.44 1165.29 1033.27 1170.18 1030.00 1173.00
C 1028.45 1177.05 1025.17 1180.54 1025.00 1185.00
C 1001.90 1237.77 954.42 1281.89 903.00 1306.00
C 903.00 1306.00 902.47 1305.89 902.00 1306.00
C 889.25 1314.28 873.90 1319.89 859.00 1324.00
C 859.00 1324.00 858.50 1323.99 858.00 1324.00
C 848.82 1328.31 838.39 1330.85 828.00 1332.00
C 827.00 1332.00 826.00 1332.00 825.00 1332.00
C 822.98 1336.21 817.09 1332.30 814.00 1335.00
C 808.30 1336.53 801.35 1336.68 795.00 1337.00
C 792.33 1337.00 789.67 1337.00 787.00 1337.00
C 782.48 1341.38 774.06 1337.87 768.00 1339.00
C 762.00 1339.00 756.00 1339.00 750.00 1339.00
C 743.62 1337.83 734.80 1341.44 730.00 1337.00
C 727.33 1337.00 724.67 1337.00 722.00 1337.00
C 716.92 1337.04 711.27 1336.68 707.00 1335.00
C 701.58 1333.72 694.06 1335.75 690.00 1332.00
C 689.00 1332.00 688.00 1332.00 687.00 1332.00
C 675.36 1330.57 663.31 1329.07 653.00 1324.00
C 652.51 1323.94 651.50 1324.01 651.00 1324.00
C 637.15 1321.19 623.27 1316.86 611.00 1311.00
C 611.00 1311.00 610.50 1311.02 610.00 1311.00
C 599.65 1307.98 589.16 1303.30 580.00 1298.00
C 580.00 1298.00 579.50 1298.05 579.00 1298.00
C 561.91 1289.61 543.82 1281.29 529.00 1269.00
C 519.80 1264.25 511.33 1257.50 503.00 1251.00
C 484.15 1237.56 467.48 1221.05 452.00 1204.00
C 451.80 1203.60 452.00 1203.00 452.00 1203.00
C 452.00 1203.00 452.20 1202.40 452.00 1202.00
C 447.69 1199.22 445.24 1194.70 442.00 1191.00
C 433.75 1183.91 428.26 1175.20 423.00 1166.00
C 423.00 1166.00 423.16 1165.44 423.00 1165.00
C 414.86 1157.16 410.64 1146.52 405.00 1137.00
C 405.00 1137.00 405.11 1136.47 405.00 1136.00
C 401.20 1131.75 398.28 1126.07 397.00 1120.00
C 393.07 1112.45 391.47 1104.40 387.00 1097.00
C 383.99 1093.70 382.72 1088.64 382.00 1084.00
C 381.94 1083.51 382.11 1082.47 382.00 1082.00
C 377.33 1073.54 375.38 1062.98 374.00 1053.00
C 374.00 1052.00 374.00 1051.00 374.00 1050.00
C 370.50 1048.53 372.57 1043.91 372.00 1041.00
C 368.26 1035.23 369.99 1026.19 369.00 1019.00
C 369.00 1008.00 369.00 997.00 369.00 986.00
C 368.90 980.89 369.07 975.22 371.00 971.00
C 371.96 966.17 370.42 959.44 374.00 956.00
C 374.00 955.00 374.00 954.00 374.00 953.00
C 373.92 948.39 376.06 944.37 377.00 940.00
C 377.97 935.61 378.87 929.31 382.00 927.00
C 382.70 922.33 386.98 918.85 387.00 914.00
C 387.19 910.24 388.93 906.19 392.00 904.00
C 393.78 899.40 396.88 894.67 400.00 891.00
C 400.00 891.00 399.76 890.32 400.00 890.00
C 403.00 885.83 406.13 881.63 408.00 877.00
C 413.16 870.43 417.51 862.96 424.00 858.00
C 424.20 857.60 424.00 857.00 424.00 857.00
C 436.09 843.52 449.56 830.78 464.00 821.00
C 479.28 809.77 496.18 798.55 514.00 792.00
C 515.36 791.34 516.66 790.73 518.00 790.00
C 522.29 787.96 524.20 783.53 527.00 780.00
C 526.47 777.85 527.99 776.59 529.00 775.00
C 529.64 771.16 532.10 763.65 526.00 763.00
C 517.11 759.72 511.28 750.18 507.00 742.00
C 501.18 737.88 498.46 731.23 494.00 726.00
C 493.16 722.49 489.84 720.14 488.00 717.00
C 482.10 712.08 477.75 706.10 473.00 700.00
C 472.76 699.68 473.00 699.00 473.00 699.00
C 458.59 684.58 445.00 668.06 432.00 652.00
C 431.16 648.51 427.78 646.11 426.00 643.00
C 415.84 633.84 407.49 620.89 397.25 610.75 C 392.31 594.38 357.96 596.96 370.00 615.00
C 356.73 623.32 343.52 631.52 331.00 641.00
C 330.56 641.16 330.00 641.00 330.00 641.00
C 320.53 650.56 308.80 657.55 299.00 667.00
C 294.56 669.71 291.08 673.80 287.00 677.00
C 268.04 696.42 249.57 715.66 233.00 736.00
C 229.40 742.48 222.74 747.24 220.00 754.00
C 215.46 759.86 212.47 767.04 207.00 772.00
C 205.40 775.02 202.40 777.47 202.00 781.00
C 198.93 784.76 197.65 789.93 194.00 793.00
C 194.00 793.00 194.10 793.52 194.00 794.00
C 185.89 808.12 179.38 825.05 171.00 838.00
C 171.00 838.00 171.08 838.51 171.00 839.00
C 169.64 842.72 168.80 847.32 166.00 850.00
C 166.00 850.00 166.08 850.51 166.00 851.00
C 163.34 857.19 162.12 864.77 158.00 870.00
C 157.89 870.48 158.06 871.51 158.00 872.00
C 156.41 875.90 156.05 881.17 153.00 884.00
C 153.00 884.00 153.08 884.51 153.00 885.00
C 152.75 890.13 150.55 894.95 148.00 899.00
C 147.98 899.50 148.06 900.51 148.00 901.00
C 145.09 910.78 144.02 922.18 140.00 931.00
C 139.99 931.50 140.01 932.50 140.00 933.00
C 138.55 937.06 140.66 943.24 137.00 946.00
C 137.00 947.33 137.00 948.67 137.00 950.00
C 135.65 954.74 137.71 961.60 134.00 965.00
C 133.76 968.67 133.56 973.04 132.00 976.00
C 132.00 978.00 132.00 980.00 132.00 982.00
C 132.67 988.25 130.33 993.74 131.00 1000.00
C 130.08 1004.12 133.08 1010.43 129.00 1013.00
C 129.00 1031.00 129.00 1049.00 129.00 1067.00
C 133.04 1069.62 130.10 1075.87 131.00 1080.00
C 130.27 1085.93 132.58 1091.09 132.00 1097.00
C 132.00 1099.33 132.00 1101.67 132.00 1104.00
C 134.12 1113.81 136.89 1124.33 137.00 1135.00
C 140.61 1136.78 138.87 1143.99 140.00 1148.00
C 140.00 1149.00 140.00 1150.00 140.00 1151.00
C 143.81 1155.94 142.94 1163.89 145.00 1170.00
C 148.89 1177.97 150.82 1187.96 153.00 1197.00
C 153.06 1197.49 152.98 1198.50 153.00 1199.00
C 156.33 1202.21 156.77 1207.50 158.00 1212.00
C 158.11 1212.47 157.94 1213.51 158.00 1214.00
C 164.48 1226.75 168.95 1240.45 174.00 1254.00
C 174.00 1254.00 173.89 1254.53 174.00 1255.00
C 177.70 1261.31 181.95 1267.88 184.00 1275.00
C 184.00 1275.00 183.89 1275.53 184.00 1276.00
C 186.89 1278.04 188.36 1281.60 189.00 1285.00
C 189.00 1285.00 188.89 1285.53 189.00 1286.00
C 192.73 1289.78 195.05 1295.08 197.00 1300.00
C 197.00 1300.00 196.83 1300.57 197.00 1301.00
C 204.25 1309.99 208.96 1321.06 215.00 1331.00
C 215.00 1331.00 214.83 1331.57 215.00 1332.00
C 218.31 1335.30 220.48 1339.95 223.00 1344.00
C 223.00 1344.00 222.84 1344.56 223.00 1345.00
C 229.60 1352.66 235.33 1361.52 241.00 1370.00
C 241.49 1373.20 244.33 1375.29 246.00 1378.00
C 260.15 1393.93 273.35 1411.13 288.00 1427.00
C 298.33 1436.51 308.55 1446.71 318.00 1457.00
C 320.76 1458.42 322.27 1461.65 325.00 1463.00
C 332.12 1468.30 338.86 1474.75 345.00 1481.00
C 356.17 1489.95 367.50 1497.64 378.00 1507.00
C 380.90 1509.48 385.05 1510.55 387.00 1514.00
C 388.96 1515.03 390.60 1517.05 393.00 1517.00
C 398.86 1521.54 406.04 1524.53 411.00 1530.00
C 413.78 1532.11 416.28 1534.92 420.00 1535.00
C 427.01 1539.21 435.14 1542.24 441.00 1548.00
C 441.00 1548.00 441.56 1547.84 442.00 1548.00
C 452.66 1554.78 465.11 1558.59 475.00 1566.00
C 475.00 1566.00 475.52 1565.90 476.00 1566.00
C 484.38 1570.69 494.45 1572.86 502.00 1579.00
C 502.49 1579.06 503.51 1578.92 504.00 1579.00
C 521.72 1586.08 540.51 1592.16 558.00 1600.00
C 560.48 1600.24 562.56 1601.74 565.00 1602.00
C 566.94 1601.38 568.13 1603.20 570.00 1603.00
C 577.13 1604.89 584.92 1606.23 591.00 1610.00
C 591.50 1610.01 592.51 1609.94 593.00 1610.00
C 602.14 1611.46 610.79 1614.64 620.00 1616.00
C 625.81 1616.46 631.78 1618.66 637.00 1620.00
C 638.99 1620.28 640.78 1621.48 643.00 1621.00
C 651.71 1623.11 662.34 1622.58 670.00 1626.00
C 671.33 1626.00 672.67 1626.00 674.00 1626.00
C 678.77 1625.91 684.09 1626.20 688.00 1628.00
C 694.56 1627.41 700.39 1629.72 707.00 1629.00
C 711.36 1629.25 716.75 1628.03 720.00 1631.00
C 723.33 1631.00 726.67 1631.00 730.00 1631.00
C 747.00 1631.00 764.00 1631.00 781.00 1631.00
C 785.00 1631.00 789.00 1631.00 793.00 1631.00
C 798.86 1627.57 807.05 1629.51 814.00 1629.00
C 820.07 1625.14 828.93 1627.71 836.00 1626.00
C 838.72 1625.83 841.67 1626.61 844.00 1625.00
C 846.10 1622.92 850.15 1624.51 853.00 1624.00
C 856.17 1620.45 862.49 1622.14 867.00 1621.00
C 868.33 1621.00 869.67 1621.00 871.00 1621.00
C 873.83 1617.39 879.88 1619.41 884.00 1618.00
C 884.50 1617.99 885.50 1617.98 886.00 1618.00
C 888.93 1614.83 894.16 1616.40 898.00 1615.00
C 900.27 1615.54 901.77 1613.48 904.00 1614.00
C 907.87 1612.41 912.51 1610.62 917.00 1610.00
C 923.43 1608.61 929.65 1606.57 936.00 1605.00
C 939.25 1602.10 944.53 1600.93 949.00 1600.00
C 953.12 1600.52 956.27 1597.73 960.00 1597.00
C 963.04 1594.34 966.91 1592.62 971.00 1592.00
C 971.00 1592.00 971.50 1592.02 972.00 1592.00
C 981.10 1586.85 992.12 1583.30 1002.00 1579.00
C 1009.34 1578.91 1014.02 1572.00 1021.00 1571.00
C 1025.67 1566.41 1032.03 1563.46 1038.00 1561.00
C 1038.00 1561.00 1038.57 1561.17 1039.00 1561.00
C 1048.15 1554.55 1058.12 1548.44 1068.00 1543.00
C 1072.11 1542.05 1075.33 1539.05 1079.00 1537.00
C 1080.84 1533.07 1085.26 1532.90 1088.00 1530.00
C 1131.62 1498.84 1171.78 1459.32 1205.00 1417.00
C 1206.67 1414.29 1209.51 1412.20 1210.00 1409.00
C 1213.49 1403.79 1216.30 1398.33 1221.00 1394.00
C 1221.22 1393.64 1221.00 1393.00 1221.00 1393.00
C 1227.10 1384.59 1231.24 1374.66 1238.00 1367.00
C 1238.00 1367.00 1237.95 1366.50 1238.00 1366.00
C 1239.40 1362.50 1240.64 1358.16 1244.00 1356.00
C 1244.58 1354.29 1246.06 1352.89 1246.00 1351.00
C 1248.45 1345.92 1250.49 1340.17 1254.00 1336.00
C 1254.00 1336.00 1253.95 1335.50 1254.00 1335.00
C 1257.28 1328.37 1259.63 1320.94 1264.00 1315.00
C 1265.71 1312.65 1267.03 1309.99 1267.00 1307.00
C 1267.42 1302.99 1269.16 1298.64 1272.00 1296.00
C 1275.40 1288.32 1278.84 1280.47 1280.00 1272.00
C 1282.37 1264.04 1284.14 1254.90 1288.00 1248.00
C 1288.08 1245.92 1287.31 1242.72 1290.00 1242.00
C 1290.01 1241.50 1289.94 1240.49 1290.00 1240.00
C 1293.23 1229.67 1293.27 1216.29 1298.00 1208.00
C 1298.00 1206.67 1298.00 1205.33 1298.00 1204.00
C 1299.04 1195.93 1300.90 1187.43 1303.00 1180.00
C 1303.00 1178.00 1303.00 1176.00 1303.00 1174.00
C 1303.43 1166.28 1304.19 1157.99 1306.00 1151.00
C 1306.00 1147.00 1306.00 1143.00 1306.00 1139.00
C 1306.63 1117.66 1306.77 1097.33 1306.00 1076.00
C 1306.00 1072.00 1306.00 1068.00 1306.00 1064.00
C 1304.04 1056.98 1303.74 1048.68 1303.00 1041.00
C 1303.00 1039.33 1303.00 1037.67 1303.00 1036.00
C 1299.69 1028.28 1300.14 1018.48 1298.00 1010.00
C 1298.00 1008.67 1298.00 1007.33 1298.00 1006.00
C 1295.84 1000.20 1293.94 993.47 1293.00 987.00
C 1293.87 981.50 1291.14 976.94 1290.00 972.00
C 1287.19 967.65 1285.75 961.60 1285.00 956.00
C 1285.00 956.00 1285.01 955.50 1285.00 955.00
C 1280.53 948.61 1280.15 939.53 1277.00 932.00
C 1277.00 931.00 1277.00 930.00 1277.00 929.00
C 1271.25 922.71 1270.34 913.73 1267.00 906.00
C 1266.91 902.71 1265.46 899.86 1264.00 897.00
C 1260.27 892.01 1257.22 886.22 1256.00 880.00
C 1253.86 876.48 1252.96 872.59 1251.00 869.00
C 1243.39 858.27 1237.39 845.62 1231.00 834.00
C 1228.09 829.76 1226.17 825.07 1223.00 821.00
C 1223.00 821.00 1223.16 820.44 1223.00 820.00
C 1216.16 812.20 1210.47 802.72 1205.00 794.00
C 1205.00 794.00 1205.09 793.48 1205.00 793.00
C 1188.34 773.31 1173.40 751.87 1155.00 733.00
C 1154.80 732.60 1155.00 732.00 1155.00 732.00
C 1144.67 722.50 1134.45 712.29 1125.00 702.00
C 1113.57 693.27 1103.75 682.16 1092.00 674.00
C 1085.31 669.86 1079.92 663.37 1073.00 660.00
C 1074.51 650.89 1080.40 642.53 1085.00 635.00
C 1085.00 635.00 1084.92 634.49 1085.00 634.00
C 1088.46 624.41 1092.54 614.36 1098.00 606.00
C 1098.00 606.00 1097.89 605.47 1098.00 605.00
C 1104.33 589.06 1110.77 572.69 1119.00 558.00
C 1119.00 558.00 1118.89 557.47 1119.00 557.00
C 1122.79 548.57 1125.96 539.01 1132.00 532.00
C 1132.00 532.00 1131.95 531.50 1132.00 531.00
C 1135.66 524.15 1138.80 516.11 1145.00 511.00
C 1145.58 509.29 1147.06 507.89 1147.00 506.00
C 1147.90 502.94 1150.01 500.32 1150.00 497.00
C 1150.00 493.67 1150.00 490.33 1150.00 487.00
C 1146.60 485.04 1142.50 483.14 1140.00 480.00
C 1139.50 480.00 1138.49 480.06 1138.00 480.00
C 1088.30 478.96 1038.37 479.42 988.00 479.00
C 988.00 479.00 987.50 479.00 987.00 479.00
C 962.32 481.33 935.50 479.33 910.00 480.00
M 1115.00 508.00
C 1111.82 516.84 1105.40 523.96 1103.00 533.00
C 1101.78 534.55 1101.74 537.02 1100.00 538.00
C 1083.60 574.17 1069.48 611.39 1050.25 646.25 C 1032.27 663.93 1056.52 680.63 1070.70 690.30 C 1085.30 701.76 1099.08 714.48 1113.00 727.00
C 1121.00 734.18 1128.88 742.04 1136.00 750.00
C 1145.75 758.16 1152.97 768.51 1161.00 778.00
C 1197.46 822.74 1227.75 871.69 1248.00 925.00
C 1249.11 925.84 1250.03 927.46 1250.00 929.00
C 1249.37 931.72 1252.07 933.41 1252.00 936.00
C 1253.93 937.64 1254.36 940.58 1255.00 943.00
C 1259.37 961.12 1267.05 978.39 1270.00 997.00
C 1271.51 1000.45 1273.28 1004.72 1273.00 1009.00
C 1272.41 1011.91 1274.59 1014.06 1274.00 1017.00
C 1275.99 1020.99 1276.79 1026.19 1277.00 1031.00
C 1276.28 1034.94 1278.49 1038.10 1278.00 1042.00
C 1279.48 1045.70 1279.86 1050.60 1280.00 1055.00
C 1281.64 1060.66 1282.06 1067.56 1282.00 1074.00
C 1282.00 1079.00 1282.00 1084.00 1282.00 1089.00
C 1283.66 1100.59 1283.67 1115.48 1282.00 1127.00
C 1282.76 1135.61 1280.74 1143.50 1281.00 1152.00
C 1281.03 1157.08 1280.68 1162.73 1279.00 1167.00
C 1279.38 1172.93 1276.87 1178.11 1277.00 1184.00
C 1276.74 1188.76 1276.05 1194.07 1274.00 1198.00
C 1259.25 1280.54 1220.96 1357.37 1166.00 1422.00
C 1160.57 1428.16 1155.60 1434.96 1149.00 1440.00
C 1148.80 1440.40 1149.00 1441.00 1149.00 1441.00
C 1144.15 1446.66 1138.63 1452.22 1133.00 1457.00
C 1126.93 1462.36 1121.14 1467.86 1115.00 1473.00
C 1041.98 1535.43 954.33 1576.99 861.00 1594.00
C 856.61 1595.73 851.14 1596.76 846.00 1597.00
C 841.75 1596.36 838.27 1598.64 834.00 1598.00
C 829.67 1599.62 824.11 1600.08 819.00 1600.00
C 807.88 1600.15 797.33 1602.64 786.00 1602.00
C 768.74 1603.66 748.19 1603.67 731.00 1602.00
C 726.33 1602.00 721.67 1602.00 717.00 1602.00
C 710.23 1602.08 702.92 1601.75 697.00 1600.00
C 692.28 1599.94 686.95 1599.61 683.00 1598.00
C 678.75 1598.64 675.27 1596.36 671.00 1597.00
C 665.52 1596.95 659.66 1595.83 655.00 1594.00
C 541.75 1575.30 435.78 1525.42 348.00 1449.00
C 341.71 1444.02 336.03 1438.29 330.00 1433.00
C 322.00 1425.82 314.12 1417.96 307.00 1410.00
C 301.64 1403.93 296.14 1398.14 291.00 1392.00
C 228.07 1319.28 183.37 1233.78 164.00 1141.00
C 162.24 1137.29 160.97 1132.54 161.00 1128.00
C 161.06 1123.16 158.65 1118.94 159.00 1114.00
C 156.96 1108.69 156.05 1102.17 156.00 1096.00
C 156.56 1090.78 154.28 1086.28 155.00 1081.00
C 153.07 1072.74 152.88 1063.12 153.00 1054.00
C 153.00 1044.33 153.00 1034.67 153.00 1025.00
C 153.65 1019.84 151.69 1013.34 154.00 1009.00
C 153.90 1002.56 154.14 995.56 156.00 990.00
C 164.78 897.43 203.40 810.52 265.00 740.00
C 269.49 734.48 274.36 729.35 279.00 724.00
C 288.15 713.43 298.74 704.18 309.00 695.00
C 311.41 693.89 312.62 691.04 315.00 690.00
C 320.30 683.47 327.45 678.94 334.00 674.00
C 350.70 660.58 369.37 649.89 386.00 637.00
C 397.42 648.36 407.29 661.32 417.00 674.00
C 424.11 680.54 429.09 689.08 436.00 696.00
C 437.11 698.41 439.96 699.62 441.00 702.00
C 448.99 708.88 454.76 717.77 461.00 726.00
C 463.23 727.89 465.07 730.67 467.00 733.00
C 472.47 737.33 475.52 743.79 480.00 749.00
C 484.93 755.89 491.47 761.90 494.00 770.00
C 475.17 777.47 458.76 790.42 442.00 802.00
C 436.47 808.47 428.98 812.85 423.00 819.00
C 376.05 863.85 347.25 923.51 345.00 988.00
C 345.00 997.67 345.00 1007.33 345.00 1017.00
C 345.00 1021.00 345.00 1025.00 345.00 1029.00
C 346.60 1034.77 347.71 1041.54 348.00 1048.00
C 358.07 1108.08 386.51 1163.40 425.00 1211.00
C 431.48 1217.07 436.77 1224.53 443.00 1231.00
C 447.85 1236.66 453.37 1242.22 459.00 1247.00
C 464.24 1252.18 470.54 1256.17 475.00 1262.00
C 477.04 1262.81 477.97 1265.27 480.00 1266.00
C 484.89 1270.19 490.89 1273.14 495.00 1278.00
C 553.34 1322.08 620.90 1351.47 693.00 1362.00
C 700.12 1362.17 707.60 1363.49 714.00 1365.00
C 719.43 1364.90 724.40 1366.71 730.00 1366.00
C 747.33 1366.00 764.67 1366.00 782.00 1366.00
C 785.00 1366.00 788.00 1366.00 791.00 1366.00
C 795.68 1364.44 801.57 1364.00 807.00 1364.00
C 862.05 1356.76 914.75 1337.63 960.00 1305.00
C 964.07 1299.98 970.33 1297.48 975.00 1293.00
C 984.60 1284.03 994.15 1273.95 1004.00 1265.00
C 1040.43 1223.31 1062.66 1172.20 1070.00 1118.00
C 1070.41 1112.37 1070.42 1105.95 1072.00 1101.00
C 1072.14 1085.21 1072.13 1069.48 1071.00 1054.00
C 1069.52 1050.30 1069.14 1045.40 1069.00 1041.00
C 1061.77 986.31 1037.00 935.57 1003.00 892.00
C 995.89 885.46 990.91 876.92 984.00 870.00
C 975.34 862.16 966.78 853.62 959.00 845.00
C 956.24 843.58 954.73 840.35 952.00 839.00
C 947.45 834.80 941.75 831.90 938.00 827.00
C 926.82 818.62 916.15 809.53 903.92 803.08 C 891.57 794.25 871.72 804.16 868.68 818.68 C 855.55 843.56 838.84 866.58 823.00 890.00
C 819.13 894.87 816.87 901.10 812.00 905.00
C 807.75 909.52 805.41 915.00 802.00 920.00
C 754.87 797.31 701.85 674.32 679.00 543.00
C 677.50 538.88 676.03 533.86 676.00 529.00
C 676.21 525.44 674.55 522.40 674.00 519.00
C 675.00 519.00 676.00 519.00 677.00 519.00
C 680.42 516.79 685.82 518.58 690.00 518.00
C 696.94 518.75 703.11 516.50 710.00 517.00
C 715.66 515.36 722.56 514.94 729.00 515.00
C 742.24 515.30 754.69 512.48 768.00 513.00
C 771.76 510.78 777.49 512.59 782.00 512.00
C 787.42 509.72 794.82 511.63 801.00 511.00
C 809.09 508.69 819.16 510.65 828.00 510.00
C 836.42 507.69 846.82 509.65 856.00 509.00
C 867.00 509.00 878.00 509.00 889.00 509.00
C 915.13 504.35 944.59 508.32 972.00 507.00
C 1002.34 507.00 1032.67 507.00 1063.00 507.00
C 1071.67 507.00 1080.33 507.00 1089.00 507.00
C 1097.50 507.66 1107.32 505.67 1115.00 508.00 Z"/>
</g>
<g fill="#00F5E9" fill-opacity="1.00" stroke="None">
<path d="
M 893.00 509.00
C 891.67 509.00 890.33 509.00 889.00 509.00
C 878.00 509.00 867.00 509.00 856.00 509.00
C 847.58 511.31 837.18 509.35 828.00 510.00
C 819.91 512.31 809.84 510.35 801.00 511.00
C 795.58 513.28 788.18 511.37 782.00 512.00
C 778.25 514.22 772.51 512.41 768.00 513.00
C 754.69 512.48 742.24 515.30 729.00 515.00
C 723.34 516.64 716.44 517.06 710.00 517.00
C 703.11 516.50 696.94 518.75 690.00 518.00
C 686.58 520.21 681.18 518.42 677.00 519.00
C 676.00 519.00 675.00 519.00 674.00 519.00
C 674.55 522.40 676.21 525.44 676.00 529.00
C 677.50 533.12 678.97 538.14 679.00 543.00
C 701.85 674.32 754.87 797.31 802.00 920.00
C 805.41 915.00 807.75 909.52 812.00 905.00
C 815.87 900.13 818.13 893.90 823.00 890.00
C 838.84 866.58 855.55 843.56 868.68 818.68 C 871.72 804.16 891.57 794.25 903.92 803.08 C 916.15 809.53 926.82 818.62 938.00 827.00
C 942.69 830.95 948.50 833.72 952.00 839.00
C 954.73 840.35 956.24 843.58 959.00 845.00
C 967.66 852.84 976.22 861.38 984.00 870.00
C 991.80 876.13 996.91 884.55 1003.00 892.00
C 1037.00 935.57 1061.77 986.31 1069.00 1041.00
C 1070.61 1044.66 1071.10 1049.55 1071.00 1054.00
C 1072.13 1069.48 1072.14 1085.21 1072.00 1101.00
C 1072.10 1106.78 1071.89 1113.11 1070.00 1118.00
C 1062.66 1172.20 1040.43 1223.31 1004.00 1265.00
C 994.90 1274.78 985.44 1284.98 975.00 1293.00
C 971.18 1298.43 964.99 1301.03 960.00 1305.00
C 914.75 1337.63 862.05 1356.76 807.00 1364.00
C 802.32 1365.56 796.43 1366.00 791.00 1366.00
C 788.00 1366.00 785.00 1366.00 782.00 1366.00
C 777.25 1368.26 770.51 1366.38 765.00 1367.00
C 760.41 1368.62 752.52 1368.70 748.00 1367.00
C 742.17 1366.35 735.01 1368.32 730.00 1366.00
C 724.40 1366.71 719.43 1364.90 714.00 1365.00
C 706.82 1365.06 699.36 1363.69 693.00 1362.00
C 620.90 1351.47 553.34 1322.08 495.00 1278.00
C 489.93 1274.12 483.96 1271.09 480.00 1266.00
C 477.97 1265.27 477.04 1262.81 475.00 1262.00
C 470.13 1258.21 465.69 1253.98 461.00 1250.00
C 454.01 1243.82 447.12 1236.96 441.00 1230.00
C 435.48 1223.70 429.73 1217.73 425.00 1211.00
C 386.51 1163.40 358.07 1108.08 348.00 1048.00
C 346.20 1042.29 345.05 1035.51 345.00 1029.00
C 345.00 1025.00 345.00 1021.00 345.00 1017.00
C 343.35 1008.41 343.32 996.52 345.00 988.00
C 347.25 923.51 376.05 863.85 423.00 819.00
C 428.22 811.99 435.56 807.45 442.00 802.00
C 458.76 790.42 475.17 777.47 494.00 770.00
C 491.47 761.90 484.93 755.89 480.00 749.00
C 474.53 744.67 471.48 738.21 467.00 733.00
C 465.07 730.67 463.23 727.89 461.00 726.00
C 453.74 718.67 448.07 709.70 441.00 702.00
C 439.96 699.62 437.11 698.41 436.00 696.00
C 428.20 689.87 423.09 681.45 417.00 674.00
C 407.29 661.32 397.42 648.36 386.00 637.00
C 369.37 649.89 350.70 660.58 334.00 674.00
C 328.35 679.95 321.11 684.39 315.00 690.00
C 312.62 691.04 311.41 693.89 309.00 695.00
C 300.62 705.29 289.20 712.54 281.00 723.00
C 275.48 728.57 271.09 735.16 265.00 740.00
C 203.40 810.52 164.78 897.43 156.00 990.00
C 155.64 996.31 155.57 1003.38 154.00 1009.00
C 153.35 1014.16 155.31 1020.66 153.00 1025.00
C 153.00 1034.67 153.00 1044.33 153.00 1054.00
C 154.56 1062.37 154.61 1071.99 155.00 1081.00
C 154.28 1086.28 156.56 1090.78 156.00 1096.00
C 157.61 1101.43 158.45 1107.94 159.00 1114.00
C 158.65 1118.94 161.06 1123.16 161.00 1128.00
C 162.48 1131.80 163.66 1136.55 164.00 1141.00
C 183.37 1233.78 228.07 1319.28 291.00 1392.00
C 298.06 1397.92 303.54 1405.46 310.00 1412.00
C 315.51 1418.33 321.71 1424.55 328.00 1430.00
C 334.60 1436.48 342.01 1442.15 348.00 1449.00
C 435.78 1525.42 541.75 1575.30 655.00 1594.00
C 660.40 1594.35 666.29 1595.40 671.00 1597.00
C 675.27 1596.36 678.75 1598.64 683.00 1598.00
C 688.03 1598.17 693.71 1598.43 698.00 1600.00
C 704.31 1600.36 711.38 1600.43 717.00 1602.00
C 721.67 1602.00 726.33 1602.00 731.00 1602.00
C 749.33 1602.00 767.67 1602.00 786.00 1602.00
C 797.33 1602.64 807.88 1600.15 819.00 1600.00
C 823.36 1598.49 828.93 1598.12 834.00 1598.00
C 838.27 1598.64 841.75 1596.36 846.00 1597.00
C 850.39 1595.27 855.86 1594.24 861.00 1594.00
C 954.33 1576.99 1041.98 1535.43 1115.00 1473.00
C 1120.17 1466.47 1127.12 1461.78 1133.00 1456.00
C 1138.82 1451.65 1143.23 1445.30 1149.00 1441.00
C 1149.00 1441.00 1148.80 1440.40 1149.00 1440.00
C 1154.85 1434.09 1159.49 1427.11 1166.00 1422.00
C 1220.96 1357.37 1259.25 1280.54 1274.00 1198.00
C 1274.58 1193.32 1275.21 1188.00 1277.00 1184.00
C 1276.87 1178.11 1279.38 1172.93 1279.00 1167.00
C 1279.17 1161.97 1279.43 1156.29 1281.00 1152.00
C 1280.74 1143.50 1282.76 1135.61 1282.00 1127.00
C 1282.00 1114.33 1282.00 1101.67 1282.00 1089.00
C 1282.00 1084.00 1282.00 1079.00 1282.00 1074.00
C 1280.48 1068.63 1280.21 1062.05 1280.00 1056.00
C 1278.46 1051.98 1278.00 1046.76 1278.00 1042.00
C 1278.49 1038.10 1276.28 1034.94 1277.00 1031.00
C 1275.27 1026.94 1274.53 1021.74 1274.00 1017.00
C 1274.59 1014.06 1272.41 1011.91 1273.00 1009.00
C 1271.31 1005.60 1270.24 1001.14 1270.00 997.00
C 1267.05 978.39 1259.37 961.12 1255.00 943.00
C 1253.07 941.36 1252.64 938.42 1252.00 936.00
C 1252.07 933.41 1249.37 931.72 1250.00 929.00
C 1248.17 928.51 1247.82 926.65 1248.00 925.00
C 1227.75 871.69 1197.46 822.74 1161.00 778.00
C 1151.99 769.39 1144.86 758.95 1136.00 750.00
C 1128.00 742.82 1120.12 734.96 1113.00 727.00
C 1099.08 714.48 1085.30 701.76 1070.70 690.30 C 1056.52 680.63 1032.27 663.93 1050.25 646.25 C 1069.48 611.39 1083.60 574.17 1100.00 538.00
C 1100.27 536.17 1101.02 533.70 1103.00 533.00
C 1105.40 523.96 1111.82 516.84 1115.00 508.00
C 1106.33 508.00 1097.67 508.00 1089.00 508.00
C 1080.33 508.00 1071.67 508.00 1063.00 508.00
C 1032.67 508.00 1002.34 508.00 972.00 508.00
C 970.67 508.00 969.33 508.00 968.00 508.00
C 943.99 510.33 917.83 508.33 893.00 509.00 Z"/>
</g>
</svg>