<svg xmlns="http://www.w3.org/2000/svg"
viewBox = "90 520 1050 1050">
<g fill="#000055" fill-opacity="1.00" stroke="None">
<path d="
M 588.00 527.00 
C 605.32 526.64 622.79 524.93 640.00 527.00
C 638.36 524.41 633.57 527.66 632.00 525.00
C 617.24 524.99 601.83 524.62 588.00 527.00 Z"/>
</g>
<g fill="#070491" fill-opacity="1.00" stroke="None">
<path d="
M 640.00 527.00 
C 644.78 526.31 647.96 530.43 653.00 529.00
C 654.40 530.21 656.26 529.98 658.00 530.00
C 650.11 527.12 641.09 524.65 632.00 525.00
C 633.57 527.66 638.36 524.41 640.00 527.00 Z"/>
</g>
<g fill="#000000" fill-opacity="1.00" stroke="None">
<path d="
M 588.00 527.00 
C 584.33 527.00 580.67 527.00 577.00 527.00
C 561.07 530.88 541.91 529.18 525.00 532.00 C 508.20 532.61 492.28 537.23 476.00 540.00
C 475.50 540.01 474.50 539.99 474.00 540.00
C 448.68 548.49 421.26 551.63 397.77 566.77 C 377.40 579.64 357.93 594.73 340.25 612.25 C 316.30 628.57 306.01 654.80 308.00 683.00
C 311.20 686.01 311.27 695.03 308.00 698.00
C 308.00 701.33 308.00 704.67 308.00 708.00
C 308.10 714.44 307.86 721.44 306.00 727.00
C 306.74 737.94 304.41 748.09 305.00 759.00
C 303.75 767.36 307.55 778.23 303.00 785.00
C 303.00 805.67 303.00 826.33 303.00 847.00
C 307.58 855.81 303.73 868.64 305.00 879.00
C 304.23 898.94 306.48 918.12 306.00 938.00
C 306.00 944.00 306.00 950.00 306.00 956.00
C 310.02 960.60 307.12 968.16 308.00 974.00
C 308.54 979.61 306.84 985.82 309.00 991.00
C 310.70 1004.34 310.15 1019.11 311.00 1033.00
C 311.00 1038.00 311.00 1043.00 311.00 1048.00
C 315.25 1051.56 311.96 1058.92 313.00 1064.00
C 312.32 1075.59 314.68 1086.41 314.00 1098.00
C 315.79 1112.98 316.10 1129.21 316.00 1145.00
C 316.00 1152.00 316.00 1159.00 316.00 1166.00
C 319.94 1181.72 317.65 1200.18 319.00 1217.00
C 320.66 1236.93 320.67 1260.14 319.00 1280.00
C 319.00 1307.33 319.00 1334.67 319.00 1362.00
C 319.00 1362.50 319.00 1363.00 319.00 1363.00
C 321.50 1375.48 318.71 1390.13 321.00 1403.00
C 321.00 1405.67 321.00 1408.33 321.00 1411.00
C 325.18 1413.69 321.54 1420.15 324.00 1424.00
C 324.00 1424.00 323.84 1424.56 324.00 1425.00
C 340.34 1443.40 359.77 1465.53 381.00 1478.00
C 381.00 1478.00 381.50 1477.95 382.00 1478.00
C 406.54 1491.88 432.55 1503.91 457.00 1517.00
C 457.48 1517.11 458.51 1516.94 459.00 1517.00
C 466.11 1519.83 474.01 1522.49 480.00 1527.00
C 480.00 1527.00 480.52 1526.91 481.00 1527.00
C 491.22 1530.07 501.41 1533.82 511.00 1538.00
C 511.49 1538.06 512.50 1537.98 513.00 1538.00
C 517.89 1539.50 524.23 1539.84 528.00 1543.00
C 529.00 1543.00 530.00 1543.00 531.00 1543.00
C 544.24 1546.58 558.26 1548.72 571.00 1553.00
C 571.00 1553.00 571.50 1553.03 572.00 1553.00
C 586.45 1555.49 601.83 1556.39 616.00 1559.00
C 616.00 1559.00 616.50 1559.00 617.00 1559.00
C 621.33 1559.00 625.67 1559.00 630.00 1559.00
C 641.67 1559.00 653.33 1559.00 665.00 1559.00
C 682.29 1559.31 697.77 1554.85 714.00 1553.00
C 715.00 1553.00 716.00 1553.00 717.00 1553.00
C 747.82 1544.96 779.86 1535.24 808.00 1517.00
C 808.00 1517.00 808.52 1517.11 809.00 1517.00
C 830.91 1502.65 852.89 1489.02 872.00 1470.00
C 872.00 1470.00 871.89 1469.47 872.00 1469.00
C 881.53 1454.73 893.78 1441.36 901.00 1426.00
C 901.00 1426.00 900.95 1425.50 901.00 1425.00
C 911.27 1412.14 906.95 1393.61 914.00 1380.00
C 914.00 1379.00 914.00 1378.00 914.00 1377.00
C 914.98 1372.83 913.52 1366.81 917.00 1364.00
C 917.25 1351.38 921.81 1339.82 922.00 1327.00
C 922.14 1321.30 922.42 1314.95 924.00 1310.00
C 923.84 1298.55 925.74 1287.60 925.00 1276.00
C 926.28 1265.98 922.41 1253.43 927.00 1245.00
C 927.00 1232.33 927.00 1219.67 927.00 1207.00
C 926.35 1182.76 928.72 1159.27 928.00 1135.00
C 928.00 1121.00 928.00 1107.00 928.00 1093.00 C 929.31 1079.99 925.37 1064.43 930.00 1053.00
C 930.00 1041.33 930.00 1029.67 930.00 1018.00
C 925.48 1002.76 929.23 984.44 928.00 968.00 C 929.27 960.14 925.41 948.44 930.00 943.00
C 930.00 930.00 930.00 917.00 930.00 904.00
C 925.50 897.84 929.21 887.70 928.00 880.00
C 928.59 868.44 926.26 857.61 927.00 846.00
C 927.00 835.33 927.00 824.67 927.00 814.00
C 922.50 807.84 926.21 797.70 925.00 790.00
C 925.64 778.09 923.29 766.93 924.00 755.00
C 922.42 748.99 922.00 741.76 922.00 735.00
C 920.54 717.33 916.34 700.46 914.00 683.00
C 912.66 678.94 911.03 674.92 911.00 670.00
C 897.83 650.52 877.31 636.72 859.30 621.70 C 841.30 604.50 819.37 593.24 799.00 581.00
C 791.20 579.87 785.77 572.65 778.00 571.00
C 771.79 569.29 765.15 566.43 760.00 563.00
C 760.00 563.00 759.50 563.02 759.00 563.00
C 754.99 562.58 750.64 560.84 748.00 558.00
C 747.54 557.87 746.49 558.08 746.00 558.00
C 742.49 556.22 737.58 555.87 735.00 553.00
C 734.50 552.98 733.49 553.06 733.00 553.00
C 711.08 544.46 688.11 539.99 667.00 532.00
C 666.51 531.94 665.50 532.01 665.00 532.00
C 661.22 530.76 655.47 532.51 653.00 529.00
C 647.96 530.43 644.78 526.31 640.00 527.00
C 622.79 524.93 605.32 526.64 588.00 527.00
M 630.00 555.00 
C 681.24 562.38 730.12 580.30 776.70 601.30 C 817.34 620.53 859.20 646.76 886.00 685.00
C 832.55 744.71 755.99 774.60 679.00 785.00
C 674.67 786.62 669.11 787.08 664.00 787.00
C 555.05 788.31 437.75 775.55 359.70 693.30 C 349.39 683.23 342.88 670.83 338.22 657.78 C 349.72 633.67 375.88 618.72 395.75 601.75 C 433.28 573.77 480.43 566.22 526.00 560.00
C 532.96 558.21 541.21 557.88 549.00 558.00
C 565.84 557.71 582.03 554.81 599.00 555.00
C 608.26 553.35 620.81 553.32 630.00 555.00
M 341.00 713.00 
C 347.33 718.51 353.55 724.71 359.00 731.00
C 414.64 777.92 483.32 803.80 555.00 811.00
C 560.33 811.29 566.38 811.44 571.00 813.00
C 580.91 812.65 589.99 815.66 600.00 815.00
C 604.17 815.64 609.66 813.71 613.00 816.00
C 628.00 816.00 643.00 816.00 658.00 816.00
C 745.21 808.37 830.54 780.26 895.00 718.00
C 895.62 730.16 899.52 741.53 899.00 754.00
C 901.24 758.09 899.40 764.16 900.00 769.00
C 902.26 773.75 900.38 780.49 901.00 786.00
C 903.28 791.42 901.37 798.82 902.00 805.00
C 901.23 824.28 903.47 842.79 903.00 862.00
C 905.22 865.75 903.41 871.49 904.00 876.00
C 906.28 881.42 904.37 888.82 905.00 895.00
C 906.64 902.26 906.68 912.81 905.00 920.00
C 889.15 922.36 878.44 938.30 863.92 944.92 C 778.74 982.05 682.55 1004.77 586.93 987.07 C 498.55 976.08 409.46 958.26 335.00 908.00
C 325.02 906.98 330.31 893.80 329.00 887.00
C 326.69 877.91 328.65 866.84 328.00 857.00
C 328.00 829.00 328.00 801.00 328.00 773.00
C 328.66 767.17 326.68 760.01 329.00 755.00
C 329.65 750.17 327.69 744.01 330.00 740.00
C 330.70 727.61 330.38 714.24 334.00 703.00
C 335.58 706.81 338.53 709.75 341.00 713.00
M 338.00 943.00 
C 370.78 961.83 405.69 977.33 442.00 988.00
C 446.55 988.18 451.32 989.96 455.00 992.00
C 455.50 992.02 456.51 991.94 457.00 992.00
C 461.40 992.73 466.41 993.67 470.00 996.00
C 485.57 998.43 500.37 1003.66 516.00 1006.00
C 521.40 1006.35 527.29 1007.40 532.00 1009.00
C 534.91 1008.41 537.06 1010.59 540.00 1010.00
C 545.77 1010.25 552.06 1010.98 557.00 1013.00
C 560.58 1012.38 563.40 1014.62 567.00 1014.00
C 576.00 1014.96 585.75 1015.57 594.00 1018.00
C 595.67 1018.00 597.33 1018.00 599.00 1018.00
C 605.73 1018.03 613.05 1018.38 619.00 1020.00
C 627.16 1019.65 634.72 1021.77 643.00 1021.00
C 656.00 1021.00 669.00 1021.00 682.00 1021.00
C 685.67 1021.00 689.33 1021.00 693.00 1021.00
C 699.38 1019.16 707.02 1018.87 714.00 1018.00
C 715.33 1018.00 716.67 1018.00 718.00 1018.00
C 722.39 1016.27 727.86 1015.24 733.00 1015.00
C 737.25 1015.33 740.72 1012.67 745.00 1013.00
C 748.45 1011.49 752.72 1009.72 757.00 1010.00
C 759.23 1010.52 760.73 1008.46 763.00 1009.00
C 766.66 1006.72 771.53 1005.69 776.00 1005.00
C 777.00 1005.00 778.00 1005.00 779.00 1005.00
C 782.69 1002.85 787.60 1001.90 792.00 1001.00
C 818.70 993.80 843.99 983.20 870.00 974.00
C 874.21 970.93 879.52 968.96 884.00 966.00
C 885.82 966.55 886.47 964.25 888.00 964.00
C 893.57 959.84 899.18 954.17 906.00 952.00
C 903.82 994.12 908.21 1038.09 905.00 1080.00
C 904.98 1114.75 905.45 1150.26 903.00 1184.00
C 903.00 1197.00 903.00 1210.00 903.00 1223.00
C 903.03 1240.10 903.31 1257.89 901.00 1274.00
C 895.38 1279.83 886.74 1281.86 881.00 1288.00
C 877.77 1292.02 872.41 1293.49 868.00 1296.00
C 836.20 1313.76 800.77 1322.26 766.00 1332.00
C 761.25 1334.29 755.62 1336.58 750.00 1337.00
C 740.48 1339.15 730.84 1340.97 721.00 1342.00
C 716.36 1343.73 710.45 1344.12 705.00 1344.00
C 684.74 1345.66 661.19 1345.67 641.00 1344.00
C 630.90 1344.06 620.26 1343.71 611.00 1342.00
C 602.58 1342.03 593.60 1341.67 586.00 1340.00
C 582.67 1340.00 579.33 1340.00 576.00 1340.00
C 566.86 1339.89 557.28 1339.00 549.00 1337.00
C 546.67 1337.00 544.33 1337.00 542.00 1337.00
C 536.67 1336.71 530.62 1336.57 526.00 1335.00
C 522.68 1333.07 517.89 1334.16 515.00 1332.00
C 476.02 1324.48 438.49 1311.71 404.00 1292.00
C 397.70 1288.24 389.90 1285.73 385.00 1280.00
C 384.20 1279.87 383.89 1278.91 383.00 1279.00
C 377.25 1275.04 371.30 1271.62 366.00 1267.00
C 360.01 1261.82 354.11 1255.96 349.00 1250.00
C 347.26 1247.64 345.45 1245.49 344.00 1243.00
C 344.00 1238.33 344.00 1233.67 344.00 1229.00
C 342.40 1215.64 342.54 1200.97 342.00 1187.00
C 340.21 1175.69 339.90 1163.12 340.00 1151.00
C 340.00 1143.00 340.00 1135.00 340.00 1127.00
C 338.43 1113.63 338.40 1099.01 338.00 1085.00
C 336.38 1074.32 336.00 1062.43 336.00 1051.00
C 333.76 1046.91 335.60 1040.84 335.00 1036.00
C 335.00 1031.33 335.00 1026.67 335.00 1022.00
C 333.42 1012.98 333.05 1002.75 333.00 993.00
C 330.76 988.91 332.60 982.84 332.00 978.00
C 330.20 967.36 329.89 955.46 330.00 944.00
C 330.00 942.00 330.00 940.00 330.00 938.00
C 332.55 939.83 336.43 940.06 338.00 943.00
M 344.00 1283.00 
C 351.86 1287.95 357.92 1295.49 366.00 1300.00
C 367.55 1301.55 370.18 1301.83 371.00 1304.00
C 428.94 1342.52 495.86 1363.78 566.00 1368.00
C 572.37 1368.12 579.38 1368.42 585.00 1370.00
C 593.92 1369.32 602.07 1371.68 611.00 1371.00
C 615.50 1371.64 621.33 1369.70 625.00 1372.00
C 631.16 1372.66 638.66 1370.68 644.00 1373.00
C 661.67 1373.00 679.33 1373.00 697.00 1373.00
C 700.42 1370.79 705.82 1372.58 710.00 1372.00
C 775.70 1361.82 841.15 1344.90 899.00 1312.00
C 893.37 1362.72 887.42 1417.16 848.00 1454.00
C 844.01 1459.50 838.08 1462.83 833.00 1467.00
C 789.63 1498.18 741.91 1524.36 688.00 1529.00
C 683.36 1530.73 677.45 1531.12 672.00 1531.00
C 653.54 1531.16 635.15 1531.09 617.00 1530.00
C 611.25 1530.03 604.94 1529.68 600.00 1528.00
C 544.78 1521.00 492.29 1504.00 442.77 1479.23 C 399.91 1457.75 336.06 1432.25 344.00 1372.00
C 341.67 1352.57 343.66 1331.18 343.00 1311.00 C 343.66 1302.31 341.68 1288.65 344.00 1283.00 Z"/>
</g>
<g fill="#020169" fill-opacity="1.00" stroke="None">
<path d="
M 476.00 540.00 
C 492.28 537.23 508.20 532.61 525.00 532.00 C 541.91 529.18 561.07 530.88 577.00 527.00
C 543.02 529.76 507.44 528.82 476.00 540.00 Z"/>
</g>
<g fill="#00003D" fill-opacity="1.00" stroke="None">
<path d="
M 665.00 532.00 
C 663.40 530.35 660.44 529.92 658.00 530.00
C 656.26 529.98 654.40 530.21 653.00 529.00
C 655.47 532.51 661.22 530.76 665.00 532.00 Z"/>
</g>
<g fill="#020168" fill-opacity="1.00" stroke="None">
<path d="
M 733.00 553.00 
C 712.44 542.76 689.45 537.71 667.00 532.00
C 688.11 539.99 711.08 544.46 733.00 553.00 Z"/>
</g>
<g fill="#020173" fill-opacity="1.00" stroke="None">
<path d="
M 303.00 848.00 
C 303.00 847.50 303.00 847.00 303.00 847.00
C 303.00 826.33 303.00 805.67 303.00 785.00
C 305.93 776.99 302.06 766.60 305.00 759.00
C 304.41 748.09 306.74 737.94 306.00 727.00
C 306.36 720.69 306.43 713.62 308.00 708.00
C 308.00 704.67 308.00 701.33 308.00 698.00
C 309.62 693.52 309.60 687.47 308.00 683.00
C 306.01 654.80 316.30 628.57 340.25 612.25 C 357.93 594.73 377.40 579.64 397.77 566.77 C 421.26 551.63 448.68 548.49 474.00 540.00
C 442.75 546.27 411.02 554.02 384.75 572.75 C 362.47 590.36 340.23 608.02 320.30 629.30 C 297.78 658.09 312.18 696.62 304.33 730.33 C 303.87 769.34 299.85 809.27 303.00 848.00 Z"/>
</g>
<g fill="#020168" fill-opacity="1.00" stroke="None">
<path d="
M 746.00 558.00 
C 742.98 555.77 739.00 553.32 735.00 553.00
C 737.58 555.87 742.49 556.22 746.00 558.00 Z"/>
</g>
<g fill="#5F5F5F" fill-opacity="1.00" stroke="None">
<path d="
M 599.00 555.00 
C 609.33 555.00 619.67 555.00 630.00 555.00
C 620.81 553.32 608.26 553.35 599.00 555.00 Z"/>
</g>
<g fill="#E2E2E2" fill-opacity="1.00" stroke="None">
<path d="
M 549.00 558.00 
C 541.97 559.54 533.70 559.75 526.00 560.00
C 480.43 566.22 433.28 573.77 395.75 601.75 C 375.88 618.72 349.72 633.67 338.22 657.78 C 342.88 670.83 349.39 683.23 359.70 693.30 C 437.75 775.55 555.05 788.31 664.00 787.00
C 668.36 785.49 673.93 785.12 679.00 785.00
C 755.99 774.60 832.55 744.71 886.00 685.00
C 859.20 646.76 817.34 620.53 776.70 601.30 C 730.12 580.30 681.24 562.38 630.00 555.00
C 619.67 555.00 609.33 555.00 599.00 555.00
C 582.03 554.81 565.84 557.71 549.00 558.00 Z"/>
</g>
<g fill="#636363" fill-opacity="1.00" stroke="None">
<path d="
M 526.00 560.00 
C 533.70 559.75 541.97 559.54 549.00 558.00
C 541.21 557.88 532.96 558.21 526.00 560.00 Z"/>
</g>
<g fill="#000042" fill-opacity="1.00" stroke="None">
<path d="
M 759.00 563.00 
C 756.24 560.00 751.54 559.88 748.00 558.00
C 750.64 560.84 754.99 562.58 759.00 563.00 Z"/>
</g>
<g fill="#000055" fill-opacity="1.00" stroke="None">
<path d="
M 778.00 571.00 
C 772.85 567.20 766.19 564.86 760.00 563.00
C 765.15 566.43 771.79 569.29 778.00 571.00 Z"/>
</g>
<g fill="#010163" fill-opacity="1.00" stroke="None">
<path d="
M 911.00 670.00 
C 900.43 647.89 877.05 636.52 859.75 620.25 C 841.15 604.18 821.16 590.29 799.00 581.00
C 819.37 593.24 841.30 604.50 859.30 621.70 C 877.31 636.72 897.83 650.52 911.00 670.00 Z"/>
</g>
<g fill="#00001E" fill-opacity="1.00" stroke="None">
<path d="
M 308.00 698.00 
C 311.27 695.03 311.20 686.01 308.00 683.00
C 309.60 687.47 309.62 693.52 308.00 698.00 Z"/>
</g>
<g fill="#020272" fill-opacity="1.00" stroke="None">
<path d="
M 922.00 735.00 
C 924.72 737.28 921.23 742.79 924.00 745.00
C 922.40 723.96 920.12 702.52 914.00 683.00
C 916.34 700.46 920.54 717.33 922.00 735.00 Z"/>
</g>
<g fill="#E2E2E2" fill-opacity="1.00" stroke="None">
<path d="
M 330.00 740.00 
C 329.35 744.83 331.31 750.99 329.00 755.00
C 328.34 760.83 330.32 767.99 328.00 773.00
C 328.00 801.00 328.00 829.00 328.00 857.00
C 330.31 866.09 328.35 877.16 329.00 887.00
C 332.52 893.07 325.79 905.55 335.00 908.00
C 409.46 958.26 498.55 976.08 586.93 987.07 C 682.55 1004.77 778.74 982.05 863.92 944.92 C 878.44 938.30 889.15 922.36 905.00 920.00
C 905.00 911.67 905.00 903.33 905.00 895.00
C 902.72 889.58 904.63 882.18 904.00 876.00
C 901.78 872.25 903.59 866.51 903.00 862.00
C 903.47 842.79 901.23 824.28 902.00 805.00
C 899.72 799.58 901.63 792.18 901.00 786.00
C 898.74 781.25 900.62 774.51 900.00 769.00
C 897.76 764.91 899.60 758.84 899.00 754.00
C 899.52 741.53 895.62 730.16 895.00 718.00
C 830.54 780.26 745.21 808.37 658.00 816.00
C 644.07 817.66 626.86 817.67 613.00 816.00
C 608.83 815.36 603.34 817.29 600.00 815.00
C 589.99 815.66 580.91 812.65 571.00 813.00
C 565.57 813.08 559.58 812.78 555.00 811.00
C 483.32 803.80 414.64 777.92 359.00 731.00
C 352.67 725.49 346.45 719.29 341.00 713.00
C 338.53 709.75 335.58 706.81 334.00 703.00
C 330.38 714.24 330.70 727.61 330.00 740.00 Z"/>
</g>
<g fill="#000028" fill-opacity="1.00" stroke="None">
<path d="
M 306.00 727.00 
C 307.86 721.44 308.10 714.44 308.00 708.00
C 306.43 713.62 306.36 720.69 306.00 727.00 Z"/>
</g>
<g fill="#8A8A8A" fill-opacity="1.00" stroke="None">
<path d="
M 359.00 731.00 
C 353.55 724.71 347.33 718.51 341.00 713.00
C 346.45 719.29 352.67 725.49 359.00 731.00 Z"/>
</g>
<g fill="#000030" fill-opacity="1.00" stroke="None">
<path d="
M 924.00 755.00 
C 924.00 751.67 924.00 748.33 924.00 745.00
C 921.23 742.79 924.72 737.28 922.00 735.00
C 922.00 741.76 922.42 748.99 924.00 755.00 Z"/>
</g>
<g fill="#848484" fill-opacity="1.00" stroke="None">
<path d="
M 329.00 755.00 
C 331.31 750.99 329.35 744.83 330.00 740.00
C 327.69 744.01 329.65 750.17 329.00 755.00 Z"/>
</g>
<g fill="#989898" fill-opacity="1.00" stroke="None">
<path d="
M 900.00 769.00 
C 899.40 764.16 901.24 758.09 899.00 754.00
C 899.60 758.84 897.76 764.91 900.00 769.00 Z"/>
</g>
<g fill="#515151" fill-opacity="1.00" stroke="None">
<path d="
M 328.00 773.00 
C 330.32 767.99 328.34 760.83 329.00 755.00
C 326.68 760.01 328.66 767.17 328.00 773.00 Z"/>
</g>
<g fill="#01006A" fill-opacity="1.00" stroke="None">
<path d="
M 925.00 790.00 
C 927.95 796.59 924.04 806.48 927.00 813.00
C 927.06 793.47 926.02 773.67 924.00 755.00
C 923.29 766.93 925.64 778.09 925.00 790.00 Z"/>
</g>
<g fill="#000023" fill-opacity="1.00" stroke="None">
<path d="
M 303.00 785.00 
C 307.55 778.23 303.75 767.36 305.00 759.00
C 302.06 766.60 305.93 776.99 303.00 785.00 Z"/>
</g>
<g fill="#646464" fill-opacity="1.00" stroke="None">
<path d="
M 901.00 786.00 
C 900.38 780.49 902.26 773.75 900.00 769.00
C 900.62 774.51 898.74 781.25 901.00 786.00 Z"/>
</g>
<g fill="#535353" fill-opacity="1.00" stroke="None">
<path d="
M 664.00 787.00 
C 669.11 787.08 674.67 786.62 679.00 785.00
C 673.93 785.12 668.36 785.49 664.00 787.00 Z"/>
</g>
<g fill="#303030" fill-opacity="1.00" stroke="None">
<path d="
M 902.00 805.00 
C 901.37 798.82 903.28 791.42 901.00 786.00
C 901.63 792.18 899.72 799.58 902.00 805.00 Z"/>
</g>
<g fill="#00002B" fill-opacity="1.00" stroke="None">
<path d="
M 927.00 814.00 
C 927.00 813.50 927.00 813.00 927.00 813.00
C 924.04 806.48 927.95 796.59 925.00 790.00
C 926.21 797.70 922.50 807.84 927.00 814.00 Z"/>
</g>
<g fill="#7F7F7F" fill-opacity="1.00" stroke="None">
<path d="
M 571.00 813.00 
C 566.38 811.44 560.33 811.29 555.00 811.00
C 559.58 812.78 565.57 813.08 571.00 813.00 Z"/>
</g>
<g fill="#0A09B4" fill-opacity="1.00" stroke="None">
<path d="
M 927.00 814.00 
C 927.00 824.67 927.00 835.33 927.00 846.00
C 929.51 864.22 928.89 884.75 931.00 903.00
C 930.73 872.79 928.16 842.64 927.00 813.00
C 927.00 813.00 927.00 813.50 927.00 814.00 Z"/>
</g>
<g fill="#646464" fill-opacity="1.00" stroke="None">
<path d="
M 613.00 816.00 
C 609.66 813.71 604.17 815.64 600.00 815.00
C 603.34 817.29 608.83 815.36 613.00 816.00 Z"/>
</g>
<g fill="#8F8F8F" fill-opacity="1.00" stroke="None">
<path d="
M 658.00 816.00 
C 643.00 816.00 628.00 816.00 613.00 816.00
C 626.86 817.67 644.07 817.66 658.00 816.00 Z"/>
</g>
<g fill="#000066" fill-opacity="1.00" stroke="None">
<path d="
M 928.00 880.00 
C 930.90 887.02 927.11 896.67 930.00 904.00
C 930.00 917.00 930.00 930.00 930.00 943.00
C 928.32 967.43 928.37 993.57 930.00 1018.00
C 930.00 1029.67 930.00 1041.33 930.00 1053.00
C 927.67 1079.83 929.66 1107.75 929.00 1135.00
C 932.15 1058.24 928.95 980.39 931.00 903.00
C 928.89 884.75 929.51 864.22 927.00 846.00
C 926.26 857.61 928.59 868.44 928.00 880.00 Z"/>
</g>
<g fill="#000025" fill-opacity="1.00" stroke="None">
<path d="
M 303.00 848.00 
C 303.00 848.00 303.00 848.50 303.00 849.00
C 305.31 857.76 303.35 868.49 304.00 878.00
C 304.00 878.00 304.00 878.50 304.00 879.00
C 304.25 879.25 305.00 879.00 305.00 879.00
C 303.73 868.64 307.58 855.81 303.00 847.00
C 303.00 847.00 303.00 847.50 303.00 848.00 Z"/>
</g>
<g fill="#000075" fill-opacity="1.00" stroke="None">
<path d="
M 304.00 878.00 
C 303.35 868.49 305.31 857.76 303.00 849.00
C 303.65 858.51 301.69 869.24 304.00 878.00 Z"/>
</g>
<g fill="#515151" fill-opacity="1.00" stroke="None">
<path d="
M 329.00 887.00 
C 328.35 877.16 330.31 866.09 328.00 857.00
C 328.65 866.84 326.69 877.91 329.00 887.00 Z"/>
</g>
<g fill="#ABABAB" fill-opacity="1.00" stroke="None">
<path d="
M 904.00 876.00 
C 903.41 871.49 905.22 865.75 903.00 862.00
C 903.59 866.51 901.78 872.25 904.00 876.00 Z"/>
</g>
<g fill="#777777" fill-opacity="1.00" stroke="None">
<path d="
M 905.00 895.00 
C 904.37 888.82 906.28 881.42 904.00 876.00
C 904.63 882.18 902.72 889.58 905.00 895.00 Z"/>
</g>
<g fill="#00004D" fill-opacity="1.00" stroke="None">
<path d="
M 304.00 912.00 
C 306.96 919.59 303.03 930.48 306.00 938.00
C 306.48 918.12 304.23 898.94 305.00 879.00
C 305.00 879.00 304.25 879.25 304.00 879.00
C 304.00 890.00 304.00 901.00 304.00 912.00 Z"/>
</g>
<g fill="#000019" fill-opacity="1.00" stroke="None">
<path d="
M 930.00 904.00 
C 927.11 896.67 930.90 887.02 928.00 880.00
C 929.21 887.70 925.50 897.84 930.00 904.00 Z"/>
</g>
<g fill="#858585" fill-opacity="1.00" stroke="None">
<path d="
M 335.00 908.00 
C 325.79 905.55 332.52 893.07 329.00 887.00
C 330.31 893.80 325.02 906.98 335.00 908.00 Z"/>
</g>
<g fill="#414141" fill-opacity="1.00" stroke="None">
<path d="
M 905.00 920.00 
C 906.68 912.81 906.64 902.26 905.00 895.00
C 905.00 903.33 905.00 911.67 905.00 920.00 Z"/>
</g>
<g fill="#07069B" fill-opacity="1.00" stroke="None">
<path d="
M 309.00 1006.00 
C 309.00 1001.00 309.00 996.00 309.00 991.00
C 306.84 985.82 308.54 979.61 308.00 974.00
C 305.40 968.90 308.48 961.48 306.00 956.00
C 306.00 950.00 306.00 944.00 306.00 938.00
C 303.03 930.48 306.96 919.59 304.00 912.00
C 303.87 928.20 304.30 944.27 306.00 960.00 C 307.53 975.11 305.01 991.96 309.00 1006.00 Z"/>
</g>
<g fill="#004C03" fill-opacity="1.00" stroke="None">
<path d="
M 330.00 944.00 
C 330.00 943.96 331.00 944.00 331.00 944.00
C 331.00 942.67 331.00 941.33 331.00 940.00
C 333.57 940.24 335.62 942.08 338.00 943.00
C 336.43 940.06 332.55 939.83 330.00 938.00
C 330.00 940.00 330.00 942.00 330.00 944.00 Z"/>
</g>
<g fill="#008F00" fill-opacity="1.00" stroke="None">
<path d="
M 331.00 944.00 
C 330.26 955.60 332.59 966.43 332.00 978.00
C 334.22 981.75 332.41 987.49 333.00 992.00
C 334.61 1001.35 335.00 1011.90 335.00 1022.00
C 335.00 1026.67 335.00 1031.33 335.00 1036.00
C 337.24 1040.09 335.40 1046.16 336.00 1051.00
C 337.59 1061.36 337.96 1072.91 338.00 1084.00
C 339.91 1097.61 340.11 1112.54 340.00 1127.00
C 340.00 1135.00 340.00 1143.00 340.00 1151.00
C 341.55 1162.04 341.73 1174.30 342.00 1186.00
C 344.03 1199.58 344.10 1214.54 344.00 1229.00
C 344.00 1233.67 344.00 1238.33 344.00 1243.00
C 355.97 1255.93 369.14 1268.82 383.00 1279.00
C 383.89 1278.91 384.20 1279.87 385.00 1280.00
C 391.45 1283.79 398.19 1287.58 404.00 1292.00
C 438.49 1311.71 476.02 1324.48 515.00 1332.00
C 520.09 1332.28 525.66 1333.21 530.00 1335.00
C 534.05 1335.07 538.71 1335.40 542.00 1337.00
C 544.33 1337.00 546.67 1337.00 549.00 1337.00
C 558.05 1337.44 567.65 1338.30 576.00 1340.00
C 579.33 1340.00 582.67 1340.00 586.00 1340.00
C 594.39 1340.08 603.38 1340.41 611.00 1342.00
C 621.36 1342.18 632.38 1342.43 642.00 1344.00
C 662.67 1344.00 683.33 1344.00 704.00 1344.00
C 709.03 1342.47 715.33 1342.37 721.00 1342.00
C 730.84 1340.97 740.48 1339.15 750.00 1337.00
C 754.66 1334.38 760.58 1333.19 766.00 1332.00
C 800.77 1322.26 836.20 1313.76 868.00 1296.00
C 871.39 1292.28 876.88 1290.99 881.00 1288.00
C 886.74 1281.86 895.38 1279.83 901.00 1274.00
C 901.72 1257.10 901.34 1239.26 903.00 1223.00
C 903.00 1210.00 903.00 1197.00 903.00 1184.00
C 903.74 1148.77 903.34 1112.60 905.00 1078.00
C 906.01 1036.12 903.28 994.28 905.00 953.00
C 898.68 955.65 894.28 961.31 888.00 964.00
C 886.47 964.25 885.82 966.55 884.00 966.00
C 880.71 970.39 874.85 972.03 870.00 974.00
C 843.99 983.20 818.70 993.80 792.00 1001.00
C 788.26 1002.99 783.61 1004.86 779.00 1005.00
C 778.00 1005.00 777.00 1005.00 776.00 1005.00
C 772.26 1006.99 767.61 1008.86 763.00 1009.00
C 760.73 1008.46 759.23 1010.52 757.00 1010.00
C 753.60 1011.69 749.14 1012.76 745.00 1013.00
C 740.72 1012.67 737.25 1015.33 733.00 1015.00
C 728.74 1017.22 723.08 1017.56 718.00 1018.00
C 716.67 1018.00 715.33 1018.00 714.00 1018.00
C 708.43 1020.35 701.38 1020.41 695.00 1021.00
C 669.82 1024.75 640.92 1023.32 616.00 1020.00
C 610.25 1020.03 603.94 1019.68 599.00 1018.00
C 597.33 1018.00 595.67 1018.00 594.00 1018.00
C 584.81 1017.78 575.29 1016.31 567.00 1014.00
C 563.40 1014.62 560.58 1012.38 557.00 1013.00
C 551.34 1012.34 544.89 1012.21 540.00 1010.00
C 537.06 1010.59 534.91 1008.41 532.00 1009.00
C 526.42 1009.31 520.69 1007.74 516.00 1006.00
C 500.37 1003.66 485.57 998.43 470.00 996.00
C 465.66 995.05 460.63 994.22 457.00 992.00
C 456.51 991.94 455.50 992.02 455.00 992.00
C 450.58 991.32 445.81 989.65 442.00 988.00
C 405.69 977.33 370.78 961.83 338.00 943.00
C 335.62 942.08 333.57 940.24 331.00 940.00
C 331.00 941.33 331.00 942.67 331.00 944.00
M 489.00 1098.00 
C 489.53 1099.28 488.03 1099.86 488.00 1101.00
C 487.25 1111.03 475.00 1120.75 482.00 1130.00
C 482.09 1130.48 482.00 1131.00 482.00 1131.00
C 484.71 1135.04 483.89 1140.95 484.00 1146.00
C 487.99 1144.86 488.90 1138.79 493.00 1137.00
C 493.16 1136.56 493.00 1136.00 493.00 1136.00
C 495.57 1130.70 497.59 1125.33 502.25 1121.25 C 509.73 1113.79 510.32 1127.50 506.00 1131.00
C 505.98 1131.50 506.00 1132.00 506.00 1132.00
C 505.41 1137.00 502.92 1141.08 502.00 1146.00
C 508.36 1143.33 512.16 1135.78 518.00 1132.00
C 518.13 1131.20 519.09 1130.89 519.00 1130.00
C 524.25 1125.23 528.57 1116.58 536.00 1116.00
C 535.89 1117.00 536.47 1118.73 535.00 1119.00
C 534.75 1119.30 535.00 1120.00 535.00 1120.00
C 533.23 1126.56 527.19 1131.41 529.00 1139.00
C 543.58 1138.89 554.69 1127.95 568.00 1124.00
C 567.84 1128.72 564.32 1138.00 573.00 1136.00 C 578.43 1136.73 582.62 1133.39 587.00 1131.00
C 591.58 1127.10 597.87 1122.96 596.00 1116.00
C 598.00 1116.00 600.00 1116.00 602.00 1116.00
C 614.73 1127.55 606.36 1148.06 597.00 1159.00
C 604.71 1157.30 610.12 1150.90 616.25 1146.25 C 622.57 1141.13 623.95 1131.35 629.00 1127.00
C 629.50 1127.01 630.00 1127.00 630.00 1127.00
C 633.08 1125.25 638.58 1125.54 642.00 1127.00
C 652.19 1133.72 640.34 1143.07 640.00 1151.00
C 648.71 1151.91 656.20 1147.28 663.25 1143.25 C 670.60 1140.75 674.01 1130.40 682.00 1130.00
C 684.15 1134.99 672.89 1141.61 681.03 1143.97 C 687.19 1144.50 692.88 1142.70 698.00 1140.00
C 703.99 1138.12 708.16 1132.79 714.00 1131.00
C 717.89 1124.58 724.67 1133.62 719.00 1137.00
C 718.84 1137.44 719.00 1138.00 719.00 1138.00
C 723.78 1144.83 736.62 1139.88 743.22 1137.22 C 750.15 1134.45 755.35 1127.27 758.00 1121.00
C 758.01 1120.50 758.00 1120.00 758.00 1120.00
C 761.80 1115.81 753.48 1112.93 757.26 1109.26 C 761.52 1108.27 764.39 1113.16 768.00 1114.00
C 769.54 1113.63 770.40 1115.43 772.00 1115.00
C 779.76 1118.50 790.09 1121.69 794.00 1130.00
C 795.55 1138.98 784.95 1143.14 778.00 1144.00
C 777.92 1145.26 775.94 1144.56 776.00 1146.00
C 787.45 1149.43 802.65 1164.71 812.25 1150.25 C 819.11 1137.64 836.12 1130.82 848.00 1140.00
C 850.98 1141.17 853.51 1143.04 856.00 1145.00
C 854.63 1147.38 851.93 1144.94 850.00 1145.00
C 839.44 1139.28 825.82 1139.55 818.00 1150.00
C 814.51 1154.04 810.83 1158.75 806.00 1161.00
C 798.02 1163.68 788.52 1157.25 782.00 1153.00
C 781.57 1152.83 781.00 1153.00 781.00 1153.00
C 773.62 1149.62 766.13 1146.27 757.78 1146.22 C 757.67 1137.54 774.45 1144.88 780.22 1139.22 C 789.89 1139.02 792.73 1127.72 782.32 1125.68 C 776.63 1122.11 767.77 1114.79 762.00 1119.00
C 762.41 1120.56 761.54 1121.69 761.00 1123.00
C 761.01 1129.41 755.86 1134.34 751.00 1138.00
C 747.69 1140.48 744.01 1142.21 740.00 1143.00
C 733.87 1146.37 726.75 1146.49 720.00 1145.00
C 715.21 1145.47 713.04 1140.05 714.00 1136.00
C 707.52 1139.68 701.53 1143.75 694.77 1146.77 C 688.47 1149.51 673.05 1152.50 673.00 1142.00
C 667.08 1146.48 661.17 1151.23 654.00 1153.00
C 652.60 1154.21 650.74 1153.98 649.00 1154.00
C 645.87 1155.11 636.80 1157.16 636.00 1152.00
C 636.00 1150.67 636.00 1149.33 636.00 1148.00
C 635.99 1142.48 641.65 1138.72 641.00 1133.00 C 637.89 1127.09 630.62 1130.34 629.00 1135.00
C 629.53 1136.28 628.03 1136.86 628.00 1138.00
C 626.03 1140.55 624.94 1143.46 623.00 1146.00
C 615.79 1154.30 606.82 1160.98 596.77 1164.77 C 577.32 1169.56 597.18 1151.52 601.00 1145.00
C 604.32 1139.01 604.35 1132.04 604.00 1125.00
C 602.45 1123.45 602.17 1120.83 600.00 1120.00
C 600.44 1122.32 598.76 1124.02 598.00 1126.00
C 593.39 1132.07 586.97 1136.69 580.00 1139.00
C 576.46 1141.02 571.95 1139.55 568.00 1140.00
C 563.81 1140.47 561.02 1135.81 562.00 1132.00
C 551.14 1136.70 539.27 1146.29 527.00 1143.00
C 523.98 1141.92 523.69 1138.78 524.00 1136.00
C 524.00 1134.67 524.00 1133.33 524.00 1132.00
C 517.01 1136.85 513.25 1144.71 506.25 1149.25 C 494.77 1159.32 495.22 1138.47 502.00 1134.00
C 501.72 1132.72 502.76 1130.50 501.00 1130.00
C 496.58 1136.77 493.51 1143.93 488.00 1150.00
C 486.70 1154.62 483.46 1158.58 480.25 1162.25 C 472.78 1164.66 477.41 1152.90 479.00 1150.00
C 478.97 1149.50 479.00 1149.00 479.00 1149.00
C 478.38 1143.07 480.61 1135.74 477.00 1131.00
C 470.08 1138.23 469.09 1149.97 462.00 1157.00
C 461.83 1157.43 462.00 1158.00 462.00 1158.00
C 459.76 1163.50 447.59 1180.86 445.00 1168.00 C 449.79 1150.98 458.11 1131.34 475.00 1123.00
C 474.99 1122.50 475.00 1122.00 475.00 1122.00
C 477.42 1115.16 479.80 1107.76 484.00 1102.00
C 483.47 1100.72 484.97 1100.14 485.00 1099.00
C 485.76 1096.71 485.81 1094.19 487.00 1092.00
C 480.44 1094.54 476.28 1101.86 469.92 1104.92 C 464.93 1113.83 448.37 1103.85 461.69 1103.65 C 468.10 1099.96 473.96 1094.93 480.00 1091.00
C 480.48 1090.91 481.00 1091.00 481.00 1091.00
C 485.34 1085.34 491.98 1081.68 496.00 1076.00
C 496.73 1074.66 497.34 1073.36 498.00 1072.00
C 498.03 1067.19 509.13 1056.90 509.66 1065.68 C 500.38 1075.11 495.65 1087.46 489.00 1098.00
M 804.00 1196.00 
C 804.94 1196.57 805.82 1197.15 807.00 1197.00
C 812.31 1197.07 814.17 1204.20 819.03 1204.97 C 823.18 1207.55 832.64 1204.39 833.00 1211.00
C 829.83 1210.39 825.35 1212.25 823.00 1210.00
C 822.50 1210.00 822.00 1210.00 822.00 1210.00
C 824.61 1221.14 810.44 1216.31 806.00 1213.00
C 805.51 1212.93 804.49 1213.08 804.00 1213.00
C 802.33 1213.00 800.67 1213.00 799.00 1213.00
C 800.41 1218.36 796.56 1224.74 791.00 1225.00
C 783.40 1224.37 774.43 1226.62 768.00 1223.00
C 767.50 1222.99 767.00 1223.00 767.00 1223.00
C 761.05 1220.63 765.58 1214.05 769.70 1212.70 C 775.11 1209.46 770.27 1202.00 765.00 1203.00
C 761.22 1202.96 757.45 1202.72 754.00 1204.00
C 754.22 1207.54 758.74 1208.93 760.00 1212.00
C 763.80 1215.26 761.37 1225.66 755.75 1220.24 C 756.91 1215.60 753.37 1211.55 750.00 1208.00
C 749.85 1207.55 750.05 1206.50 750.00 1206.00
C 745.96 1195.67 767.88 1195.03 772.00 1202.00
C 776.25 1202.25 776.18 1207.74 776.00 1211.00
C 775.48 1214.37 771.86 1216.70 769.00 1218.00
C 775.14 1224.50 803.78 1221.95 789.25 1209.75 C 789.28 1202.33 800.54 1207.25 804.00 1209.00
C 805.14 1209.93 806.55 1210.08 808.00 1210.00
C 810.51 1210.80 813.19 1211.28 816.00 1211.00
C 813.39 1207.18 808.03 1207.39 804.77 1204.23 C 800.40 1202.84 797.76 1192.91 804.00 1196.00
M 591.00 1220.00 
C 591.65 1222.65 590.02 1226.11 587.00 1226.00
C 584.33 1226.00 581.67 1226.00 579.00 1226.00
C 567.30 1224.50 554.17 1226.02 543.00 1224.00
C 542.50 1224.00 542.00 1224.00 542.00 1224.00
C 535.53 1215.85 552.72 1220.86 556.00 1218.00
C 548.25 1212.59 541.67 1214.97 535.00 1221.00
C 534.56 1221.16 534.00 1221.00 534.00 1221.00
C 530.17 1225.59 515.44 1241.06 515.78 1228.78 C 528.51 1222.87 513.93 1207.39 505.00 1216.00
C 513.95 1215.76 510.28 1225.80 503.31 1220.69 C 496.51 1217.08 501.52 1208.78 508.00 1210.00
C 510.67 1210.00 513.33 1210.00 516.00 1210.00
C 521.72 1210.44 525.18 1216.97 526.00 1222.00
C 529.90 1218.50 535.04 1216.42 538.00 1212.00
C 534.42 1210.57 521.43 1206.46 531.03 1203.03 C 550.73 1205.08 564.40 1223.70 585.00 1222.00
C 575.69 1215.06 580.31 1202.55 592.22 1209.78 C 600.81 1213.39 610.14 1216.21 619.00 1218.00
C 608.72 1224.17 596.30 1215.70 586.00 1213.00
C 585.96 1216.15 590.02 1217.30 591.00 1220.00
M 408.00 1258.00 
C 407.78 1258.38 408.00 1259.00 408.00 1259.00
C 406.70 1261.82 406.59 1264.97 406.00 1268.00
C 414.21 1268.84 420.43 1274.19 428.68 1275.32 C 435.36 1276.61 441.79 1288.01 448.25 1280.25 C 455.49 1279.80 452.09 1295.50 463.00 1294.00
C 463.54 1285.58 471.88 1288.64 468.00 1296.00 C 459.87 1309.10 451.01 1285.77 441.00 1288.00 C 431.86 1290.68 432.07 1284.44 429.00 1280.00
C 426.67 1280.44 424.98 1278.76 423.00 1278.00
C 419.90 1280.44 421.54 1292.00 412.98 1287.02 C 399.71 1286.62 399.91 1271.49 391.75 1264.25 C 377.66 1255.40 388.85 1240.46 403.00 1245.00 C 410.09 1243.37 412.63 1254.66 408.00 1258.00 Z"/>
</g>
<g fill="#000019" fill-opacity="1.00" stroke="None">
<path d="
M 930.00 1018.00 
C 928.37 993.57 928.32 967.43 930.00 943.00
C 925.41 948.44 929.27 960.14 928.00 968.00 C 929.23 984.44 925.48 1002.76 930.00 1018.00 Z"/>
</g>
<g fill="#001300" fill-opacity="1.00" stroke="None">
<path d="
M 332.00 978.00 
C 332.59 966.43 330.26 955.60 331.00 944.00
C 331.00 944.00 330.00 943.96 330.00 944.00
C 329.89 955.46 330.20 967.36 332.00 978.00 Z"/>
</g>
<g fill="#003900" fill-opacity="1.00" stroke="None">
<path d="
M 888.00 964.00 
C 894.28 961.31 898.68 955.65 905.00 953.00
C 903.28 994.28 906.01 1036.12 905.00 1078.00
C 905.00 1078.50 905.00 1079.50 905.00 1080.00
C 908.21 1038.09 903.82 994.12 906.00 952.00
C 899.18 954.17 893.57 959.84 888.00 964.00 Z"/>
</g>
<g fill="#000035" fill-opacity="1.00" stroke="None">
<path d="
M 308.00 974.00 
C 307.12 968.16 310.02 960.60 306.00 956.00
C 308.48 961.48 305.40 968.90 308.00 974.00 Z"/>
</g>
<g fill="#003400" fill-opacity="1.00" stroke="None">
<path d="
M 870.00 974.00 
C 874.85 972.03 880.71 970.39 884.00 966.00
C 879.52 968.96 874.21 970.93 870.00 974.00 Z"/>
</g>
<g fill="#003000" fill-opacity="1.00" stroke="None">
<path d="
M 333.00 993.00 
C 333.00 992.50 333.00 992.00 333.00 992.00
C 332.41 987.49 334.22 981.75 332.00 978.00
C 332.60 982.84 330.76 988.91 333.00 993.00 Z"/>
</g>
<g fill="#004501" fill-opacity="1.00" stroke="None">
<path d="
M 455.00 992.00 
C 451.32 989.96 446.55 988.18 442.00 988.00
C 445.81 989.65 450.58 991.32 455.00 992.00 Z"/>
</g>
<g fill="#000034" fill-opacity="1.00" stroke="None">
<path d="
M 309.00 1006.00 
C 309.00 1010.33 309.00 1014.67 309.00 1019.00
C 311.86 1022.60 308.12 1029.47 311.00 1033.00
C 310.15 1019.11 310.70 1004.34 309.00 991.00
C 309.00 996.00 309.00 1001.00 309.00 1006.00 Z"/>
</g>
<g fill="#005201" fill-opacity="1.00" stroke="None">
<path d="
M 333.00 993.00 
C 333.05 1002.75 333.42 1012.98 335.00 1022.00
C 335.00 1011.90 334.61 1001.35 333.00 992.00
C 333.00 992.00 333.00 992.50 333.00 993.00 Z"/>
</g>
<g fill="#004301" fill-opacity="1.00" stroke="None">
<path d="
M 470.00 996.00 
C 466.41 993.67 461.40 992.73 457.00 992.00
C 460.63 994.22 465.66 995.05 470.00 996.00 Z"/>
</g>
<g fill="#004A01" fill-opacity="1.00" stroke="None">
<path d="
M 779.00 1005.00 
C 783.61 1004.86 788.26 1002.99 792.00 1001.00
C 787.60 1001.90 782.69 1002.85 779.00 1005.00 Z"/>
</g>
<g fill="#003D00" fill-opacity="1.00" stroke="None">
<path d="
M 763.00 1009.00 
C 767.61 1008.86 772.26 1006.99 776.00 1005.00
C 771.53 1005.69 766.66 1006.72 763.00 1009.00 Z"/>
</g>
<g fill="#004901" fill-opacity="1.00" stroke="None">
<path d="
M 532.00 1009.00 
C 527.29 1007.40 521.40 1006.35 516.00 1006.00
C 520.69 1007.74 526.42 1009.31 532.00 1009.00 Z"/>
</g>
<g fill="#004101" fill-opacity="1.00" stroke="None">
<path d="
M 557.00 1013.00 
C 552.06 1010.98 545.77 1010.25 540.00 1010.00
C 544.89 1012.21 551.34 1012.34 557.00 1013.00 Z"/>
</g>
<g fill="#004401" fill-opacity="1.00" stroke="None">
<path d="
M 745.00 1013.00 
C 749.14 1012.76 753.60 1011.69 757.00 1010.00
C 752.72 1009.72 748.45 1011.49 745.00 1013.00 Z"/>
</g>
<g fill="#004301" fill-opacity="1.00" stroke="None">
<path d="
M 594.00 1018.00 
C 585.75 1015.57 576.00 1014.96 567.00 1014.00
C 575.29 1016.31 584.81 1017.78 594.00 1018.00 Z"/>
</g>
<g fill="#004D03" fill-opacity="1.00" stroke="None">
<path d="
M 718.00 1018.00 
C 723.08 1017.56 728.74 1017.22 733.00 1015.00
C 727.86 1015.24 722.39 1016.27 718.00 1018.00 Z"/>
</g>
<g fill="#002D00" fill-opacity="1.00" stroke="None">
<path d="
M 616.00 1020.00 
C 617.00 1020.00 618.00 1020.00 619.00 1020.00
C 613.05 1018.38 605.73 1018.03 599.00 1018.00
C 603.94 1019.68 610.25 1020.03 616.00 1020.00 Z"/>
</g>
<g fill="#003600" fill-opacity="1.00" stroke="None">
<path d="
M 693.00 1021.00 
C 693.50 1021.00 694.50 1020.97 695.00 1021.00
C 701.38 1020.41 708.43 1020.35 714.00 1018.00
C 707.02 1018.87 699.38 1019.16 693.00 1021.00 Z"/>
</g>
<g fill="#03037E" fill-opacity="1.00" stroke="None">
<path d="
M 314.00 1098.00 
C 314.68 1086.41 312.32 1075.59 313.00 1064.00
C 310.23 1059.62 313.74 1052.70 311.00 1048.00
C 311.00 1043.00 311.00 1038.00 311.00 1033.00
C 308.12 1029.47 311.86 1022.60 309.00 1019.00
C 310.13 1045.41 311.56 1072.26 314.00 1098.00 Z"/>
</g>
<g fill="#006806" fill-opacity="1.00" stroke="None">
<path d="
M 695.00 1021.00 
C 694.50 1020.97 693.50 1021.00 693.00 1021.00
C 689.33 1021.00 685.67 1021.00 682.00 1021.00
C 670.07 1022.66 654.86 1022.67 643.00 1021.00
C 634.72 1021.77 627.16 1019.65 619.00 1020.00
C 618.00 1020.00 617.00 1020.00 616.00 1020.00
C 640.92 1023.32 669.82 1024.75 695.00 1021.00 Z"/>
</g>
<g fill="#001300" fill-opacity="1.00" stroke="None">
<path d="
M 682.00 1021.00 
C 669.00 1021.00 656.00 1021.00 643.00 1021.00
C 654.86 1022.67 670.07 1022.66 682.00 1021.00 Z"/>
</g>
<g fill="#001600" fill-opacity="1.00" stroke="None">
<path d="
M 336.00 1051.00 
C 335.40 1046.16 337.24 1040.09 335.00 1036.00
C 335.60 1040.84 333.76 1046.91 336.00 1051.00 Z"/>
</g>
<g fill="#00002E" fill-opacity="1.00" stroke="None">
<path d="
M 313.00 1064.00 
C 311.96 1058.92 315.25 1051.56 311.00 1048.00
C 313.74 1052.70 310.23 1059.62 313.00 1064.00 Z"/>
</g>
<g fill="#003200" fill-opacity="1.00" stroke="None">
<path d="
M 338.00 1085.00 
C 338.00 1084.50 338.00 1084.00 338.00 1084.00
C 337.96 1072.91 337.59 1061.36 336.00 1051.00
C 336.00 1062.43 336.38 1074.32 338.00 1085.00 Z"/>
</g>
<g fill="#000019" fill-opacity="1.00" stroke="None">
<path d="
M 928.00 1135.00 
C 928.00 1134.96 929.00 1135.00 929.00 1135.00
C 929.66 1107.75 927.67 1079.83 930.00 1053.00
C 925.37 1064.43 929.31 1079.99 928.00 1093.00 C 928.00 1107.00 928.00 1121.00 928.00 1135.00 Z"/>
</g>
<g fill="#005200" fill-opacity="1.00" stroke="None">
<path d="
M 498.00 1072.00 
C 501.28 1069.70 503.07 1063.63 508.00 1064.00
C 501.18 1074.89 492.99 1085.50 489.00 1098.00
C 495.65 1087.46 500.38 1075.11 509.66 1065.68 C 509.13 1056.90 498.03 1067.19 498.00 1072.00 Z"/>
</g>
<g fill="#000800" fill-opacity="1.00" stroke="None">
<path d="
M 498.00 1072.00 
C 497.34 1073.36 496.73 1074.66 496.00 1076.00
C 492.83 1082.44 486.30 1086.58 481.00 1091.00
C 481.00 1091.00 480.48 1090.91 480.00 1091.00
C 474.26 1097.64 465.64 1105.40 457.00 1104.00
C 459.84 1112.77 469.05 1102.87 474.08 1101.08 C 479.40 1096.68 483.96 1090.83 490.00 1088.00
C 488.07 1091.42 487.59 1096.05 485.00 1099.00
C 484.97 1100.14 483.47 1100.72 484.00 1102.00
C 481.43 1108.72 479.07 1116.16 475.00 1122.00
C 475.00 1122.00 474.99 1122.50 475.00 1123.00
C 469.56 1127.69 461.27 1133.62 457.25 1141.25 C 452.50 1149.12 449.49 1157.73 446.22 1166.22 C 447.39 1180.20 458.28 1162.00 462.00 1158.00
C 462.00 1158.00 461.83 1157.43 462.00 1157.00
C 467.73 1148.08 470.18 1135.50 478.00 1129.00
C 480.36 1134.90 481.06 1143.23 479.00 1149.00
C 479.00 1149.00 478.97 1149.50 479.00 1150.00
C 479.87 1154.41 476.50 1157.66 477.00 1162.00
C 483.29 1161.80 483.68 1153.04 488.00 1150.00
C 493.51 1143.93 496.58 1136.77 501.00 1130.00
C 502.76 1130.50 501.72 1132.72 502.00 1134.00
C 495.55 1141.96 498.29 1158.55 508.75 1145.75 C 515.55 1140.01 520.23 1132.45 527.00 1127.00
C 525.94 1129.89 525.62 1133.62 524.00 1136.00
C 523.69 1138.78 523.98 1141.92 527.00 1143.00
C 540.40 1143.55 551.79 1135.74 563.00 1130.00
C 561.72 1134.52 564.71 1137.91 568.00 1140.00
C 571.95 1139.55 576.46 1141.02 580.00 1139.00
C 586.15 1135.29 592.63 1131.29 598.00 1126.00
C 598.76 1124.02 600.44 1122.32 600.00 1120.00
C 602.17 1120.83 602.45 1123.45 604.00 1125.00
C 606.14 1131.03 605.73 1140.12 601.00 1145.00
C 599.54 1153.05 589.53 1157.10 588.00 1165.00
C 599.33 1164.82 608.42 1157.70 617.00 1151.00
C 621.25 1146.99 624.01 1141.80 628.00 1138.00
C 628.03 1136.86 629.53 1136.28 629.00 1135.00
C 628.10 1127.69 639.15 1126.78 641.77 1132.23 C 642.70 1138.12 637.85 1143.14 636.00 1148.00
C 636.00 1149.33 636.00 1150.67 636.00 1152.00
C 639.39 1155.44 644.64 1153.50 649.00 1154.00
C 650.74 1153.98 652.60 1154.21 654.00 1153.00
C 660.83 1149.70 667.16 1144.28 674.00 1141.00
C 673.98 1151.42 689.29 1148.69 695.22 1145.22 C 702.79 1142.70 708.51 1136.42 716.00 1134.00
C 714.29 1138.46 714.79 1143.85 720.00 1145.00
C 726.75 1146.49 733.87 1146.37 740.00 1143.00
C 746.14 1140.33 751.95 1135.99 757.00 1131.00
C 758.71 1128.50 759.28 1125.15 761.00 1123.00
C 761.54 1121.69 762.41 1120.56 762.00 1119.00
C 765.67 1112.30 776.34 1120.46 781.25 1123.75 C 788.65 1125.76 794.97 1135.41 784.77 1138.77 C 776.52 1142.63 767.44 1143.63 758.00 1143.00
C 757.84 1148.85 766.61 1144.34 770.02 1146.98 C 773.40 1149.54 778.41 1149.80 781.00 1153.00
C 781.00 1153.00 781.57 1152.83 782.00 1153.00
C 789.67 1156.72 797.35 1160.40 806.00 1161.00
C 810.83 1158.75 814.51 1154.04 818.00 1150.00
C 824.27 1138.02 840.69 1137.00 850.00 1145.00
C 851.93 1144.94 854.63 1147.38 856.00 1145.00
C 853.51 1143.04 850.98 1141.17 848.00 1140.00
C 834.26 1131.94 819.94 1140.52 811.25 1152.25 C 800.84 1165.60 785.65 1149.36 774.00 1146.00
C 774.84 1144.89 776.46 1143.97 778.00 1144.00
C 784.95 1143.14 795.55 1138.98 794.00 1130.00
C 787.63 1123.34 779.32 1119.60 772.00 1115.00
C 770.40 1115.43 769.54 1113.63 768.00 1114.00
C 763.90 1115.28 758.58 1105.67 757.00 1113.00
C 760.32 1114.00 760.78 1118.36 758.00 1120.00
C 758.00 1120.00 758.01 1120.50 758.00 1121.00
C 757.11 1129.52 749.49 1136.01 741.92 1138.92 C 735.87 1142.54 719.93 1146.38 719.00 1138.00
C 719.00 1138.00 718.84 1137.44 719.00 1137.00
C 719.56 1134.76 720.38 1132.52 720.00 1130.00
C 717.88 1129.94 715.77 1129.78 714.00 1131.00
C 708.16 1132.79 703.99 1138.12 698.00 1140.00
C 694.05 1144.79 687.09 1145.36 681.00 1145.00 C 672.20 1144.30 680.16 1135.06 681.00 1131.00
C 668.51 1138.58 657.68 1153.23 641.00 1152.00 C 634.97 1145.46 649.50 1138.04 644.00 1130.00
C 640.54 1125.68 634.93 1127.24 630.00 1127.00
C 630.00 1127.00 629.50 1127.01 629.00 1127.00
C 624.59 1142.24 610.20 1156.95 594.00 1161.00
C 604.52 1149.38 613.63 1130.00 602.00 1116.00
C 600.00 1116.00 598.00 1116.00 596.00 1116.00
C 597.87 1122.96 591.58 1127.10 587.00 1131.00
C 581.06 1139.91 559.95 1139.88 567.00 1125.00
C 553.67 1129.95 542.38 1141.40 527.00 1140.00
C 527.04 1132.68 530.35 1125.26 535.00 1120.00
C 535.00 1120.00 534.75 1119.30 535.00 1119.00
C 530.36 1114.33 524.42 1127.68 519.00 1130.00
C 519.09 1130.89 518.13 1131.20 518.00 1132.00
C 513.01 1137.97 508.13 1144.91 501.00 1148.00
C 501.50 1142.44 503.20 1136.50 506.00 1132.00
C 506.00 1132.00 505.98 1131.50 506.00 1131.00
C 508.15 1126.69 508.75 1115.51 502.25 1123.25 C 498.72 1127.16 496.59 1132.41 493.00 1136.00
C 493.00 1136.00 493.16 1136.56 493.00 1137.00
C 490.73 1141.81 487.02 1145.67 484.00 1150.00
C 482.08 1144.39 483.35 1137.11 482.00 1131.00
C 482.00 1131.00 482.09 1130.48 482.00 1130.00
C 472.91 1121.93 485.63 1109.76 488.00 1101.00
C 488.03 1099.86 489.53 1099.28 489.00 1098.00
C 492.99 1085.50 501.18 1074.89 508.00 1064.00
C 503.07 1063.63 501.28 1069.70 498.00 1072.00
M 467.00 1141.00 
C 461.68 1150.69 457.92 1161.81 449.00 1169.00
C 448.97 1165.04 450.47 1160.80 453.00 1158.00
C 453.08 1157.51 453.00 1157.00 453.00 1157.00
C 454.67 1153.02 455.32 1147.72 459.00 1145.00
C 462.44 1139.63 465.78 1132.49 472.00 1130.00
C 470.63 1133.80 468.89 1137.39 467.00 1141.00 Z"/>
</g>
<g fill="#002B00" fill-opacity="1.00" stroke="None">
<path d="
M 481.00 1091.00 
C 486.30 1086.58 492.83 1082.44 496.00 1076.00
C 491.98 1081.68 485.34 1085.34 481.00 1091.00 Z"/>
</g>
<g fill="#005200" fill-opacity="1.00" stroke="None">
<path d="
M 903.00 1184.00 
C 905.45 1150.26 904.98 1114.75 905.00 1080.00
C 905.00 1079.50 905.00 1078.50 905.00 1078.00
C 903.34 1112.60 903.74 1148.77 903.00 1184.00 Z"/>
</g>
<g fill="#006404" fill-opacity="1.00" stroke="None">
<path d="
M 338.00 1085.00 
C 338.40 1099.01 338.43 1113.63 340.00 1127.00
C 340.11 1112.54 339.91 1097.61 338.00 1084.00
C 338.00 1084.00 338.00 1084.50 338.00 1085.00 Z"/>
</g>
<g fill="#005500" fill-opacity="1.00" stroke="None">
<path d="
M 480.00 1091.00 
C 473.96 1094.93 468.10 1099.96 461.69 1103.65 C 448.37 1103.85 464.93 1113.83 469.92 1104.92 C 476.28 1101.86 480.44 1094.54 487.00 1092.00
C 485.81 1094.19 485.76 1096.71 485.00 1099.00
C 487.59 1096.05 488.07 1091.42 490.00 1088.00
C 483.96 1090.83 479.40 1096.68 474.08 1101.08 C 469.05 1102.87 459.84 1112.77 457.00 1104.00
C 465.64 1105.40 474.26 1097.64 480.00 1091.00 Z"/>
</g>
<g fill="#000035" fill-opacity="1.00" stroke="None">
<path d="
M 314.00 1119.00 
C 316.96 1126.59 313.03 1137.48 316.00 1145.00
C 316.10 1129.21 315.79 1112.98 314.00 1098.00
C 314.00 1105.00 314.00 1112.00 314.00 1119.00 Z"/>
</g>
<g fill="#004600" fill-opacity="1.00" stroke="None">
<path d="
M 482.00 1130.00 
C 475.00 1120.75 487.25 1111.03 488.00 1101.00
C 485.63 1109.76 472.91 1121.93 482.00 1130.00 Z"/>
</g>
<g fill="#004C00" fill-opacity="1.00" stroke="None">
<path d="
M 475.00 1122.00 
C 479.07 1116.16 481.43 1108.72 484.00 1102.00
C 479.80 1107.76 477.42 1115.16 475.00 1122.00 Z"/>
</g>
<g fill="#003900" fill-opacity="1.00" stroke="None">
<path d="
M 758.00 1120.00 
C 760.78 1118.36 760.32 1114.00 757.00 1113.00
C 758.58 1105.67 763.90 1115.28 768.00 1114.00
C 764.39 1113.16 761.52 1108.27 757.26 1109.26 C 753.48 1112.93 761.80 1115.81 758.00 1120.00 Z"/>
</g>
<g fill="#004D00" fill-opacity="1.00" stroke="None">
<path d="
M 794.00 1130.00 
C 790.09 1121.69 779.76 1118.50 772.00 1115.00
C 779.32 1119.60 787.63 1123.34 794.00 1130.00 Z"/>
</g>
<g fill="#003C00" fill-opacity="1.00" stroke="None">
<path d="
M 519.00 1130.00 
C 524.42 1127.68 530.36 1114.33 535.00 1119.00
C 536.47 1118.73 535.89 1117.00 536.00 1116.00
C 528.57 1116.58 524.25 1125.23 519.00 1130.00 Z"/>
</g>
<g fill="#004C00" fill-opacity="1.00" stroke="None">
<path d="
M 629.00 1127.00 
C 623.95 1131.35 622.57 1141.13 616.25 1146.25 C 610.12 1150.90 604.71 1157.30 597.00 1159.00
C 606.36 1148.06 614.73 1127.55 602.00 1116.00
C 613.63 1130.00 604.52 1149.38 594.00 1161.00
C 610.20 1156.95 624.59 1142.24 629.00 1127.00 Z"/>
</g>
<g fill="#004500" fill-opacity="1.00" stroke="None">
<path d="
M 762.00 1119.00 
C 767.77 1114.79 776.63 1122.11 782.32 1125.68 C 792.73 1127.72 789.89 1139.02 780.22 1139.22 C 774.45 1144.88 757.67 1137.54 757.78 1146.22 C 766.13 1146.27 773.62 1149.62 781.00 1153.00
C 778.41 1149.80 773.40 1149.54 770.02 1146.98 C 766.61 1144.34 757.84 1148.85 758.00 1143.00
C 767.44 1143.63 776.52 1142.63 784.77 1138.77 C 794.97 1135.41 788.65 1125.76 781.25 1123.75 C 776.34 1120.46 765.67 1112.30 762.00 1119.00 Z"/>
</g>
<g fill="#060490" fill-opacity="1.00" stroke="None">
<path d="
M 317.00 1184.00 
C 316.66 1177.99 317.87 1171.63 316.00 1166.00
C 316.00 1159.00 316.00 1152.00 316.00 1145.00
C 313.03 1137.48 316.96 1126.59 314.00 1119.00
C 314.12 1140.82 314.59 1163.09 317.00 1184.00 Z"/>
</g>
<g fill="#004F00" fill-opacity="1.00" stroke="None">
<path d="
M 493.00 1136.00 
C 496.59 1132.41 498.72 1127.16 502.25 1123.25 C 508.75 1115.51 508.15 1126.69 506.00 1131.00
C 510.32 1127.50 509.73 1113.79 502.25 1121.25 C 497.59 1125.33 495.57 1130.70 493.00 1136.00 Z"/>
</g>
<g fill="#004A00" fill-opacity="1.00" stroke="None">
<path d="
M 587.00 1131.00 
C 582.62 1133.39 578.43 1136.73 573.00 1136.00 C 564.32 1138.00 567.84 1128.72 568.00 1124.00
C 554.69 1127.95 543.58 1138.89 529.00 1139.00
C 527.19 1131.41 533.23 1126.56 535.00 1120.00
C 530.35 1125.26 527.04 1132.68 527.00 1140.00
C 542.38 1141.40 553.67 1129.95 567.00 1125.00
C 559.95 1139.88 581.06 1139.91 587.00 1131.00 Z"/>
</g>
<g fill="#004D00" fill-opacity="1.00" stroke="None">
<path d="
M 719.00 1138.00 
C 719.93 1146.38 735.87 1142.54 741.92 1138.92 C 749.49 1136.01 757.11 1129.52 758.00 1121.00
C 755.35 1127.27 750.15 1134.45 743.22 1137.22 C 736.62 1139.88 723.78 1144.83 719.00 1138.00 Z"/>
</g>
<g fill="#004A00" fill-opacity="1.00" stroke="None">
<path d="
M 462.00 1158.00 
C 458.28 1162.00 447.39 1180.20 446.22 1166.22 C 449.49 1157.73 452.50 1149.12 457.25 1141.25 C 461.27 1133.62 469.56 1127.69 475.00 1123.00
C 458.11 1131.34 449.79 1150.98 445.00 1168.00 C 447.59 1180.86 459.76 1163.50 462.00 1158.00 Z"/>
</g>
<g fill="#005700" fill-opacity="1.00" stroke="None">
<path d="
M 757.00 1131.00 
C 755.58 1133.76 752.35 1135.27 751.00 1138.00
C 755.86 1134.34 761.01 1129.41 761.00 1123.00
C 759.28 1125.15 758.71 1128.50 757.00 1131.00 Z"/>
</g>
<g fill="#002F00" fill-opacity="1.00" stroke="None">
<path d="
M 601.00 1145.00 
C 605.73 1140.12 606.14 1131.03 604.00 1125.00
C 604.35 1132.04 604.32 1139.01 601.00 1145.00 Z"/>
</g>
<g fill="#003700" fill-opacity="1.00" stroke="None">
<path d="
M 580.00 1139.00 
C 586.97 1136.69 593.39 1132.07 598.00 1126.00
C 592.63 1131.29 586.15 1135.29 580.00 1139.00 Z"/>
</g>
<g fill="#002900" fill-opacity="1.00" stroke="None">
<path d="
M 630.00 1127.00 
C 634.93 1127.24 640.54 1125.68 644.00 1130.00
C 643.70 1128.75 642.17 1128.29 642.00 1127.00
C 638.58 1125.54 633.08 1125.25 630.00 1127.00 Z"/>
</g>
<g fill="#004901" fill-opacity="1.00" stroke="None">
<path d="
M 502.00 1134.00 
C 495.22 1138.47 494.77 1159.32 506.25 1149.25 C 513.25 1144.71 517.01 1136.85 524.00 1132.00
C 524.00 1133.33 524.00 1134.67 524.00 1136.00
C 525.62 1133.62 525.94 1129.89 527.00 1127.00
C 520.23 1132.45 515.55 1140.01 508.75 1145.75 C 498.29 1158.55 495.55 1141.96 502.00 1134.00 Z"/>
</g>
<g fill="#005100" fill-opacity="1.00" stroke="None">
<path d="
M 644.00 1130.00 
C 649.50 1138.04 634.97 1145.46 641.00 1152.00 C 657.68 1153.23 668.51 1138.58 681.00 1131.00
C 680.16 1135.06 672.20 1144.30 681.00 1145.00 C 687.09 1145.36 694.05 1144.79 698.00 1140.00
C 692.88 1142.70 687.19 1144.50 681.03 1143.97 C 672.89 1141.61 684.15 1134.99 682.00 1130.00
C 674.01 1130.40 670.60 1140.75 663.25 1143.25 C 656.20 1147.28 648.71 1151.91 640.00 1151.00
C 640.34 1143.07 652.19 1133.72 642.00 1127.00
C 642.17 1128.29 643.70 1128.75 644.00 1130.00 Z"/>
</g>
<g fill="#004900" fill-opacity="1.00" stroke="None">
<path d="
M 462.00 1157.00 
C 469.09 1149.97 470.08 1138.23 477.00 1131.00
C 480.61 1135.74 478.38 1143.07 479.00 1149.00
C 481.06 1143.23 480.36 1134.90 478.00 1129.00
C 470.18 1135.50 467.73 1148.08 462.00 1157.00 Z"/>
</g>
<g fill="#004301" fill-opacity="1.00" stroke="None">
<path d="
M 629.00 1135.00 
C 630.62 1130.34 637.89 1127.09 641.00 1133.00 C 641.65 1138.72 635.99 1142.48 636.00 1148.00
C 637.85 1143.14 642.70 1138.12 641.77 1132.23 C 639.15 1126.78 628.10 1127.69 629.00 1135.00 Z"/>
</g>
<g fill="#004900" fill-opacity="1.00" stroke="None">
<path d="
M 714.00 1131.00 
C 715.77 1129.78 717.88 1129.94 720.00 1130.00
C 720.38 1132.52 719.56 1134.76 719.00 1137.00
C 724.67 1133.62 717.89 1124.58 714.00 1131.00 Z"/>
</g>
<g fill="#008100" fill-opacity="1.00" stroke="None">
<path d="
M 459.00 1145.00 
C 456.89 1148.80 455.80 1153.68 453.00 1157.00
C 453.00 1157.00 453.08 1157.51 453.00 1158.00
C 452.74 1160.44 451.24 1162.52 451.00 1165.00
C 458.79 1158.84 460.85 1148.11 467.00 1141.00
C 468.89 1137.39 470.63 1133.80 472.00 1130.00
C 465.78 1132.49 462.44 1139.63 459.00 1145.00 Z"/>
</g>
<g fill="#005700" fill-opacity="1.00" stroke="None">
<path d="
M 527.00 1143.00 
C 539.27 1146.29 551.14 1136.70 562.00 1132.00
C 561.02 1135.81 563.81 1140.47 568.00 1140.00
C 564.71 1137.91 561.72 1134.52 563.00 1130.00
C 551.79 1135.74 540.40 1143.55 527.00 1143.00 Z"/>
</g>
<g fill="#005501" fill-opacity="1.00" stroke="None">
<path d="
M 493.00 1137.00 
C 488.90 1138.79 487.99 1144.86 484.00 1146.00
C 483.89 1140.95 484.71 1135.04 482.00 1131.00
C 483.35 1137.11 482.08 1144.39 484.00 1150.00
C 487.02 1145.67 490.73 1141.81 493.00 1137.00 Z"/>
</g>
<g fill="#002E00" fill-opacity="1.00" stroke="None">
<path d="
M 740.00 1143.00 
C 744.01 1142.21 747.69 1140.48 751.00 1138.00
C 752.35 1135.27 755.58 1133.76 757.00 1131.00
C 751.95 1135.99 746.14 1140.33 740.00 1143.00 Z"/>
</g>
<g fill="#004400" fill-opacity="1.00" stroke="None">
<path d="
M 518.00 1132.00 
C 512.16 1135.78 508.36 1143.33 502.00 1146.00
C 502.92 1141.08 505.41 1137.00 506.00 1132.00
C 503.20 1136.50 501.50 1142.44 501.00 1148.00
C 508.13 1144.91 513.01 1137.97 518.00 1132.00 Z"/>
</g>
<g fill="#005800" fill-opacity="1.00" stroke="None">
<path d="
M 654.00 1153.00 
C 661.17 1151.23 667.08 1146.48 673.00 1142.00
C 673.05 1152.50 688.47 1149.51 694.77 1146.77 C 701.53 1143.75 707.52 1139.68 714.00 1136.00
C 713.04 1140.05 715.21 1145.47 720.00 1145.00
C 714.79 1143.85 714.29 1138.46 716.00 1134.00
C 708.51 1136.42 702.79 1142.70 695.22 1145.22 C 689.29 1148.69 673.98 1151.42 674.00 1141.00
C 667.16 1144.28 660.83 1149.70 654.00 1153.00 Z"/>
</g>
<g fill="#00003C" fill-opacity="1.00" stroke="None">
<path d="
M 927.00 1207.00 
C 929.98 1196.41 926.01 1182.52 929.00 1172.00
C 929.00 1159.67 929.00 1147.33 929.00 1135.00
C 929.00 1135.00 928.00 1134.96 928.00 1135.00
C 928.72 1159.27 926.35 1182.76 927.00 1207.00 Z"/>
</g>
<g fill="#004F00" fill-opacity="1.00" stroke="None">
<path d="
M 778.00 1144.00 
C 776.46 1143.97 774.84 1144.89 774.00 1146.00
C 785.65 1149.36 800.84 1165.60 811.25 1152.25 C 819.94 1140.52 834.26 1131.94 848.00 1140.00
C 836.12 1130.82 819.11 1137.64 812.25 1150.25 C 802.65 1164.71 787.45 1149.43 776.00 1146.00
C 775.94 1144.56 777.92 1145.26 778.00 1144.00 Z"/>
</g>
<g fill="#002B00" fill-opacity="1.00" stroke="None">
<path d="
M 617.00 1151.00 
C 619.41 1149.89 620.62 1147.04 623.00 1146.00
C 624.94 1143.46 626.03 1140.55 628.00 1138.00
C 624.01 1141.80 621.25 1146.99 617.00 1151.00 Z"/>
</g>
<g fill="#005600" fill-opacity="1.00" stroke="None">
<path d="
M 818.00 1150.00 
C 825.82 1139.55 839.44 1139.28 850.00 1145.00
C 840.69 1137.00 824.27 1138.02 818.00 1150.00 Z"/>
</g>
<g fill="#004701" fill-opacity="1.00" stroke="None">
<path d="
M 453.00 1158.00 
C 450.47 1160.80 448.97 1165.04 449.00 1169.00
C 457.92 1161.81 461.68 1150.69 467.00 1141.00
C 460.85 1148.11 458.79 1158.84 451.00 1165.00
C 451.24 1162.52 452.74 1160.44 453.00 1158.00 Z"/>
</g>
<g fill="#004600" fill-opacity="1.00" stroke="None">
<path d="
M 453.00 1157.00 
C 455.80 1153.68 456.89 1148.80 459.00 1145.00
C 455.32 1147.72 454.67 1153.02 453.00 1157.00 Z"/>
</g>
<g fill="#005000" fill-opacity="1.00" stroke="None">
<path d="
M 623.00 1146.00 
C 620.62 1147.04 619.41 1149.89 617.00 1151.00
C 608.42 1157.70 599.33 1164.82 588.00 1165.00
C 589.53 1157.10 599.54 1153.05 601.00 1145.00
C 597.18 1151.52 577.32 1169.56 596.77 1164.77 C 606.82 1160.98 615.79 1154.30 623.00 1146.00 Z"/>
</g>
<g fill="#004F00" fill-opacity="1.00" stroke="None">
<path d="
M 488.00 1150.00 
C 483.68 1153.04 483.29 1161.80 477.00 1162.00
C 476.50 1157.66 479.87 1154.41 479.00 1150.00
C 477.41 1152.90 472.78 1164.66 480.25 1162.25 C 483.46 1158.58 486.70 1154.62 488.00 1150.00 Z"/>
</g>
<g fill="#002800" fill-opacity="1.00" stroke="None">
<path d="
M 342.00 1187.00 
C 342.00 1186.50 342.00 1186.00 342.00 1186.00
C 341.73 1174.30 341.55 1162.04 340.00 1151.00
C 339.90 1163.12 340.21 1175.69 342.00 1187.00 Z"/>
</g>
<g fill="#003400" fill-opacity="1.00" stroke="None">
<path d="
M 649.00 1154.00 
C 644.64 1153.50 639.39 1155.44 636.00 1152.00
C 636.80 1157.16 645.87 1155.11 649.00 1154.00 Z"/>
</g>
<g fill="#005900" fill-opacity="1.00" stroke="None">
<path d="
M 806.00 1161.00 
C 797.35 1160.40 789.67 1156.72 782.00 1153.00
C 788.52 1157.25 798.02 1163.68 806.00 1161.00 Z"/>
</g>
<g fill="#000041" fill-opacity="1.00" stroke="None">
<path d="
M 317.00 1184.00 
C 317.00 1189.00 317.00 1194.00 317.00 1199.00
C 319.93 1204.26 316.06 1212.81 319.00 1218.00
C 319.00 1217.50 319.00 1217.00 319.00 1217.00
C 317.65 1200.18 319.94 1181.72 316.00 1166.00
C 317.87 1171.63 316.66 1177.99 317.00 1184.00 Z"/>
</g>
<g fill="#05048A" fill-opacity="1.00" stroke="None">
<path d="
M 927.00 1207.00 
C 927.00 1219.67 927.00 1232.33 927.00 1245.00
C 924.05 1254.67 927.96 1266.74 925.00 1276.00
C 925.74 1287.60 923.84 1298.55 924.00 1310.00
C 924.03 1315.75 923.68 1322.06 922.00 1327.00
C 921.81 1339.82 917.25 1351.38 917.00 1364.00
C 915.79 1365.40 916.02 1367.26 916.00 1369.00
C 931.02 1306.51 926.40 1238.02 929.00 1172.00
C 926.01 1182.52 929.98 1196.41 927.00 1207.00 Z"/>
</g>
<g fill="#005C00" fill-opacity="1.00" stroke="None">
<path d="
M 342.00 1187.00 
C 342.54 1200.97 342.40 1215.64 344.00 1229.00
C 344.10 1214.54 344.03 1199.58 342.00 1186.00
C 342.00 1186.00 342.00 1186.50 342.00 1187.00 Z"/>
</g>
<g fill="#004700" fill-opacity="1.00" stroke="None">
<path d="
M 808.00 1210.00 
C 810.46 1212.43 814.53 1212.72 818.00 1213.00
C 815.97 1204.00 800.54 1206.43 801.00 1196.00
C 802.00 1196.00 803.00 1196.00 804.00 1196.00
C 797.76 1192.91 800.40 1202.84 804.77 1204.23 C 808.03 1207.39 813.39 1207.18 816.00 1211.00
C 813.19 1211.28 810.51 1210.80 808.00 1210.00 Z"/>
</g>
<g fill="#000700" fill-opacity="1.00" stroke="None">
<path d="
M 808.00 1210.00 
C 806.55 1210.08 805.14 1209.93 804.00 1209.00
C 798.99 1209.69 795.13 1205.98 790.00 1207.00
C 791.40 1212.15 799.24 1217.84 790.75 1221.75 C 783.03 1222.28 775.10 1222.51 768.00 1220.00
C 768.69 1215.79 774.44 1214.77 776.00 1211.00
C 776.18 1207.74 776.25 1202.25 772.00 1202.00
C 766.29 1197.93 749.12 1195.47 750.00 1206.00
C 750.05 1206.50 749.85 1207.55 750.00 1208.00
C 753.84 1210.88 759.11 1214.83 756.00 1220.00
C 764.88 1221.28 757.08 1208.70 753.00 1206.00
C 752.75 1199.99 761.07 1202.55 765.00 1202.00
C 769.62 1201.48 775.86 1207.44 771.74 1211.74 C 768.17 1214.37 761.90 1218.41 767.00 1223.00
C 767.00 1223.00 767.50 1222.99 768.00 1223.00
C 775.37 1224.42 783.27 1223.95 791.00 1224.00
C 796.38 1222.72 800.27 1215.57 796.00 1211.00
C 798.71 1211.10 802.04 1211.44 804.00 1213.00
C 804.49 1213.08 805.51 1212.93 806.00 1213.00
C 811.00 1213.91 815.68 1216.20 821.00 1216.00
C 821.47 1214.12 819.94 1211.07 822.00 1210.00
C 822.00 1210.00 822.50 1210.00 823.00 1210.00
C 825.84 1209.41 829.98 1211.23 832.00 1209.00
C 822.50 1208.05 813.08 1204.83 807.00 1197.00
C 805.82 1197.15 804.94 1196.57 804.00 1196.00
C 803.00 1196.00 802.00 1196.00 801.00 1196.00
C 800.54 1206.43 815.97 1204.00 818.00 1213.00
C 814.53 1212.72 810.46 1212.43 808.00 1210.00 Z"/>
</g>
<g fill="#004500" fill-opacity="1.00" stroke="None">
<path d="
M 823.00 1210.00 
C 825.35 1212.25 829.83 1210.39 833.00 1211.00
C 832.64 1204.39 823.18 1207.55 819.03 1204.97 C 814.17 1204.20 812.31 1197.07 807.00 1197.00
C 813.08 1204.83 822.50 1208.05 832.00 1209.00
C 829.98 1211.23 825.84 1209.41 823.00 1210.00 Z"/>
</g>
<g fill="#004200" fill-opacity="1.00" stroke="None">
<path d="
M 750.00 1206.00 
C 749.12 1195.47 766.29 1197.93 772.00 1202.00
C 767.88 1195.03 745.96 1195.67 750.00 1206.00 Z"/>
</g>
<g fill="#0B09B6" fill-opacity="1.00" stroke="None">
<path d="
M 318.00 1280.00
C 318.25 1279.75 319.00 1280.00 319.00 1280.00
C 319.00 1259.33 319.00 1238.67 319.00 1218.00
C 316.06 1212.81 319.93 1204.26 317.00 1199.00
C 317.86 1225.88 318.29 1252.84 318.00 1280.00 Z"/>
</g>
<g fill="#007100" fill-opacity="1.00" stroke="None">
<path d="
M 753.00 1206.00
C 755.76 1207.42 757.27 1210.65 760.00 1212.00
C 758.74 1208.93 754.22 1207.54 754.00 1204.00
C 757.45 1202.72 761.22 1202.96 765.00 1203.00
C 764.94 1202.99 765.00 1202.00 765.00 1202.00
C 761.07 1202.55 752.75 1199.99 753.00 1206.00 Z"/>
</g>
<g fill="#003E00" fill-opacity="1.00" stroke="None">
<path d="
M 765.00 1203.00
C 770.27 1202.00 775.11 1209.46 769.70 1212.70 C 765.58 1214.05 761.05 1220.63 767.00 1223.00
C 761.90 1218.41 768.17 1214.37 771.74 1211.74 C 775.86 1207.44 769.62 1201.48 765.00 1202.00
C 765.00 1202.00 764.94 1202.99 765.00 1203.00 Z"/>
</g>
<g fill="#005000" fill-opacity="1.00" stroke="None">
<path d="
M 516.00 1210.00
C 520.83 1212.46 525.11 1217.09 525.00 1223.00
C 531.17 1220.89 536.97 1216.41 541.00 1211.00
C 536.78 1210.24 533.31 1207.37 529.00 1207.00
C 533.80 1201.75 543.32 1208.60 549.07 1210.93 C 555.28 1213.78 563.74 1215.37 567.00 1222.00
C 573.92 1221.33 580.07 1223.67 587.00 1223.00
C 585.94 1218.27 577.10 1214.69 581.26 1209.26 C 594.50 1207.95 604.63 1218.94 618.00 1218.00
C 606.55 1224.62 593.04 1208.72 584.00 1214.00
C 586.76 1215.42 588.27 1218.65 591.00 1220.00
C 590.02 1217.30 585.96 1216.15 586.00 1213.00
C 596.30 1215.70 608.72 1224.17 619.00 1218.00
C 610.14 1216.21 600.81 1213.39 592.22 1209.78 C 580.31 1202.55 575.69 1215.06 585.00 1222.00
C 564.40 1223.70 550.73 1205.08 531.03 1203.03 C 521.43 1206.46 534.42 1210.57 538.00 1212.00
C 535.04 1216.42 529.90 1218.50 526.00 1222.00
C 525.18 1216.97 521.72 1210.44 516.00 1210.00 Z"/>
</g>
<g fill="#000600" fill-opacity="1.00" stroke="None">
<path d="
M 516.00 1210.00
C 513.33 1210.00 510.67 1210.00 508.00 1210.00
C 497.89 1209.81 500.60 1224.62 510.00 1220.00
C 510.29 1216.60 505.61 1218.96 504.00 1217.00
C 506.27 1210.27 517.86 1212.10 521.25 1217.75 C 528.17 1224.31 510.17 1231.16 519.68 1232.66 C 524.74 1229.26 528.18 1223.75 534.00 1221.00
C 534.00 1221.00 534.56 1221.16 535.00 1221.00
C 537.64 1218.00 541.88 1215.72 544.00 1212.00
C 550.02 1214.52 556.64 1215.86 562.00 1220.00
C 557.27 1223.26 540.92 1215.01 542.00 1224.00
C 542.00 1224.00 542.50 1224.00 543.00 1224.00
C 554.95 1224.57 568.20 1222.47 579.00 1226.00
C 581.67 1226.00 584.33 1226.00 587.00 1226.00
C 593.73 1222.74 586.77 1217.42 584.00 1214.00
C 593.04 1208.72 606.55 1224.62 618.00 1218.00
C 604.63 1218.94 594.50 1207.95 581.26 1209.26 C 577.10 1214.69 585.94 1218.27 587.00 1223.00
C 580.07 1223.67 573.92 1221.33 567.00 1222.00
C 563.74 1215.37 555.28 1213.78 549.07 1210.93 C 543.32 1208.60 533.80 1201.75 529.00 1207.00
C 533.31 1207.37 536.78 1210.24 541.00 1211.00
C 536.97 1216.41 531.17 1220.89 525.00 1223.00
C 525.11 1217.09 520.83 1212.46 516.00 1210.00 Z"/>
</g>
<g fill="#005100" fill-opacity="1.00" stroke="None">
<path d="
M 750.00 1208.00
C 753.37 1211.55 756.91 1215.60 755.75 1220.24 C 761.37 1225.66 763.80 1215.26 760.00 1212.00
C 757.27 1210.65 755.76 1207.42 753.00 1206.00
C 757.08 1208.70 764.88 1221.28 756.00 1220.00
C 759.11 1214.83 753.84 1210.88 750.00 1208.00 Z"/>
</g>
<g fill="#004000" fill-opacity="1.00" stroke="None">
<path d="
M 776.00 1211.00
C 774.44 1214.77 768.69 1215.79 768.00 1220.00
C 775.10 1222.51 783.03 1222.28 790.75 1221.75 C 799.24 1217.84 791.40 1212.15 790.00 1207.00
C 795.13 1205.98 798.99 1209.69 804.00 1209.00
C 800.54 1207.25 789.28 1202.33 789.25 1209.75 C 803.78 1221.95 775.14 1224.50 769.00 1218.00
C 771.86 1216.70 775.48 1214.37 776.00 1211.00 Z"/>
</g>
<g fill="#005300" fill-opacity="1.00" stroke="None">
<path d="
M 534.00 1221.00
C 528.18 1223.75 524.74 1229.26 519.68 1232.66 C 510.17 1231.16 528.17 1224.31 521.25 1217.75 C 517.86 1212.10 506.27 1210.27 504.00 1217.00
C 505.61 1218.96 510.29 1216.60 510.00 1220.00
C 500.60 1224.62 497.89 1209.81 508.00 1210.00
C 501.52 1208.78 496.51 1217.08 503.31 1220.69 C 510.28 1225.80 513.95 1215.76 505.00 1216.00
C 513.93 1207.39 528.51 1222.87 515.78 1228.78 C 515.44 1241.06 530.17 1225.59 534.00 1221.00 Z"/>
</g>
<g fill="#004900" fill-opacity="1.00" stroke="None">
<path d="
M 806.00 1213.00
C 810.44 1216.31 824.61 1221.14 822.00 1210.00
C 819.94 1211.07 821.47 1214.12 821.00 1216.00
C 815.68 1216.20 811.00 1213.91 806.00 1213.00 Z"/>
</g>
<g fill="#005D01" fill-opacity="1.00" stroke="None">
<path d="
M 791.00 1224.00
C 790.85 1224.05 791.00 1225.00 791.00 1225.00
C 796.56 1224.74 800.41 1218.36 799.00 1213.00
C 800.67 1213.00 802.33 1213.00 804.00 1213.00
C 802.04 1211.44 798.71 1211.10 796.00 1211.00
C 800.27 1215.57 796.38 1222.72 791.00 1224.00 Z"/>
</g>
<g fill="#004C00" fill-opacity="1.00" stroke="None">
<path d="
M 535.00 1221.00
C 541.67 1214.97 548.25 1212.59 556.00 1218.00
C 552.72 1220.86 535.53 1215.85 542.00 1224.00
C 540.92 1215.01 557.27 1223.26 562.00 1220.00
C 556.64 1215.86 550.02 1214.52 544.00 1212.00
C 541.88 1215.72 537.64 1218.00 535.00 1221.00 Z"/>
</g>
<g fill="#002D00" fill-opacity="1.00" stroke="None">
<path d="
M 587.00 1226.00
C 590.02 1226.11 591.65 1222.65 591.00 1220.00
C 588.27 1218.65 586.76 1215.42 584.00 1214.00
C 586.77 1217.42 593.73 1222.74 587.00 1226.00 Z"/>
</g>
<g fill="#000018" fill-opacity="1.00" stroke="None">
<path d="
M 319.00 1218.00
C 319.00 1238.67 319.00 1259.33 319.00 1280.00
C 320.67 1260.14 320.66 1236.93 319.00 1217.00
C 319.00 1217.00 319.00 1217.50 319.00 1218.00 Z"/>
</g>
<g fill="#003B00" fill-opacity="1.00" stroke="None">
<path d="
M 791.00 1225.00
C 791.00 1225.00 790.85 1224.05 791.00 1224.00
C 783.27 1223.95 775.37 1224.42 768.00 1223.00
C 774.43 1226.62 783.40 1224.37 791.00 1225.00 Z"/>
</g>
<g fill="#001C00" fill-opacity="1.00" stroke="None">
<path d="
M 901.00 1274.00
C 903.31 1257.89 903.03 1240.10 903.00 1223.00
C 901.34 1239.26 901.72 1257.10 901.00 1274.00 Z"/>
</g>
<g fill="#003700" fill-opacity="1.00" stroke="None">
<path d="
M 579.00 1226.00
C 568.20 1222.47 554.95 1224.57 543.00 1224.00
C 554.17 1226.02 567.30 1224.50 579.00 1226.00 Z"/>
</g>
<g fill="#005802" fill-opacity="1.00" stroke="None">
<path d="
M 349.00 1250.00
C 354.99 1255.18 360.89 1261.04 366.00 1267.00
C 371.30 1271.62 377.25 1275.04 383.00 1279.00
C 369.14 1268.82 355.97 1255.93 344.00 1243.00
C 345.45 1245.49 347.26 1247.64 349.00 1250.00 Z"/>
</g>
<g fill="#005100" fill-opacity="1.00" stroke="None">
<path d="
M 423.00 1278.00
C 422.74 1276.61 420.95 1277.22 420.00 1277.00
C 424.30 1292.67 402.00 1286.25 401.03 1275.98 C 397.73 1266.62 386.89 1261.21 386.01 1250.99 C 391.80 1242.47 414.85 1243.55 408.00 1258.00
C 412.63 1254.66 410.09 1243.37 403.00 1245.00 C 388.85 1240.46 377.66 1255.40 391.75 1264.25 C 399.91 1271.49 399.71 1286.62 412.98 1287.02 C 421.54 1292.00 419.90 1280.44 423.00 1278.00 Z"/>
</g>
<g fill="#00002C" fill-opacity="1.00" stroke="None">
<path d="
M 925.00 1276.00
C 927.96 1266.74 924.05 1254.67 927.00 1245.00
C 922.41 1253.43 926.28 1265.98 925.00 1276.00 Z"/>
</g>
<g fill="#000700" fill-opacity="1.00" stroke="None">
<path d="
M 423.00 1278.00
C 424.98 1278.76 426.67 1280.44 429.00 1280.00
C 434.38 1280.72 435.09 1282.16 432.00 1286.00
C 439.50 1288.28 449.14 1284.48 453.75 1293.25 C 458.76 1300.72 469.49 1300.78 468.00 1290.00
C 464.96 1289.93 463.39 1293.30 464.00 1296.00
C 458.12 1294.92 448.82 1289.04 452.00 1282.00
C 447.74 1280.96 440.86 1287.92 436.75 1281.25 C 426.80 1274.99 415.23 1271.57 404.00 1269.00
C 405.96 1265.98 404.85 1261.04 408.00 1259.00
C 408.00 1259.00 407.78 1258.38 408.00 1258.00
C 414.85 1243.55 391.80 1242.47 386.01 1250.99 C 386.89 1261.21 397.73 1266.62 401.03 1275.98 C 402.00 1286.25 424.30 1292.67 420.00 1277.00
C 420.95 1277.22 422.74 1276.61 423.00 1278.00
M 401.00 1269.00
C 397.25 1263.85 382.00 1252.24 394.22 1249.22 C 410.62 1244.13 405.39 1260.67 401.00 1269.00
M 416.00 1283.00
C 415.00 1283.00 414.00 1283.00 413.00 1283.00
C 407.62 1283.02 402.51 1277.60 404.00 1272.00
C 409.16 1272.37 419.94 1276.44 416.00 1283.00 Z"/>
</g>
<g fill="#005201" fill-opacity="1.00" stroke="None">
<path d="
M 401.00 1269.00
C 405.39 1260.67 410.62 1244.13 394.22 1249.22 C 382.00 1252.24 397.25 1263.85 401.00 1269.00
M 401.00 1267.00
C 396.56 1262.49 390.05 1257.81 390.00 1251.00
C 394.66 1251.70 401.83 1247.17 404.92 1252.08 C 405.43 1257.54 401.23 1261.57 401.00 1267.00 Z"/>
</g>
<g fill="#001A00" fill-opacity="1.00" stroke="None">
<path d="
M 366.00 1267.00
C 360.89 1261.04 354.99 1255.18 349.00 1250.00
C 354.11 1255.96 360.01 1261.82 366.00 1267.00 Z"/>
</g>
<g fill="#008C00" fill-opacity="1.00" stroke="None">
<path d="
M 401.00 1267.00
C 401.23 1261.57 405.43 1257.54 404.92 1252.08 C 401.83 1247.17 394.66 1251.70 390.00 1251.00
C 390.05 1257.81 396.56 1262.49 401.00 1267.00 Z"/>
</g>
<g fill="#004F00" fill-opacity="1.00" stroke="None">
<path d="
M 429.00 1280.00
C 432.07 1284.44 431.86 1290.68 441.00 1288.00 C 451.01 1285.77 459.87 1309.10 468.00 1296.00 C 471.88 1288.64 463.54 1285.58 463.00 1294.00
C 452.09 1295.50 455.49 1279.80 448.25 1280.25 C 441.79 1288.01 435.36 1276.61 428.68 1275.32 C 420.43 1274.19 414.21 1268.84 406.00 1268.00
C 406.59 1264.97 406.70 1261.82 408.00 1259.00
C 404.85 1261.04 405.96 1265.98 404.00 1269.00
C 415.23 1271.57 426.80 1274.99 436.75 1281.25 C 440.86 1287.92 447.74 1280.96 452.00 1282.00
C 448.82 1289.04 458.12 1294.92 464.00 1296.00
C 463.39 1293.30 464.96 1289.93 468.00 1290.00
C 469.49 1300.78 458.76 1300.72 453.75 1293.25 C 449.14 1284.48 439.50 1288.28 432.00 1286.00
C 435.09 1282.16 434.38 1280.72 429.00 1280.00 Z"/>
</g>
<g fill="#004D00" fill-opacity="1.00" stroke="None">
<path d="
M 413.00 1283.00
C 409.81 1281.24 403.75 1279.28 405.00 1274.00
C 410.16 1273.45 417.60 1276.60 416.00 1283.00
C 419.94 1276.44 409.16 1272.37 404.00 1272.00
C 402.51 1277.60 407.62 1283.02 413.00 1283.00 Z"/>
</g>
<g fill="#008900" fill-opacity="1.00" stroke="None">
<path d="
M 413.00 1283.00
C 414.00 1283.00 415.00 1283.00 416.00 1283.00
C 417.60 1276.60 410.16 1273.45 405.00 1274.00
C 403.75 1279.28 409.81 1281.24 413.00 1283.00 Z"/>
</g>
<g fill="#00004F" fill-opacity="1.00" stroke="None">
<path d="
M 318.00 1281.00
C 318.67 1307.83 316.67 1335.99 319.00 1362.00
C 319.00 1334.67 319.00 1307.33 319.00 1280.00
C 319.00 1280.00 318.25 1279.75 318.00 1280.00
C 318.00 1280.00 318.00 1280.50 318.00 1281.00 Z"/>
</g>
<g fill="#004400" fill-opacity="1.00" stroke="None">
<path d="
M 404.00 1292.00
C 398.19 1287.58 391.45 1283.79 385.00 1280.00
C 389.90 1285.73 397.70 1288.24 404.00 1292.00 Z"/>
</g>
<g fill="#0A09AA" fill-opacity="1.00" stroke="None">
<path d="
M 322.00 1420.00
C 321.74 1416.97 322.74 1413.63 321.00 1411.00
C 321.00 1408.33 321.00 1405.67 321.00 1403.00
C 316.90 1390.95 319.93 1376.18 319.00 1363.00
C 319.00 1363.00 319.00 1362.50 319.00 1362.00
C 316.67 1335.99 318.67 1307.83 318.00 1281.00
C 316.60 1326.46 315.09 1375.72 322.00 1420.00 Z"/>
</g>
<g fill="#B2B2B2" fill-opacity="1.00" stroke="None">
<path d="
M 344.00 1372.00
C 344.00 1342.33 344.00 1312.67 344.00 1283.00
C 341.68 1288.65 343.66 1302.31 343.00 1311.00 C 343.66 1331.18 341.67 1352.57 344.00 1372.00 Z"/>
</g>
<g fill="#E2E2E2" fill-opacity="1.00" stroke="None">
<path d="
M 344.00 1372.00
C 336.06 1432.25 399.91 1457.75 442.77 1479.23 C 492.29 1504.00 544.78 1521.00 600.00 1528.00
C 605.70 1528.14 612.05 1528.42 617.00 1530.00
C 635.15 1531.09 653.54 1531.16 672.00 1531.00
C 676.70 1529.49 682.63 1529.24 688.00 1529.00
C 741.91 1524.36 789.63 1498.18 833.00 1467.00
C 837.18 1461.83 843.21 1458.60 848.00 1454.00
C 887.42 1417.16 893.37 1362.72 899.00 1312.00
C 841.15 1344.90 775.70 1361.82 710.00 1372.00
C 706.58 1374.21 701.18 1372.42 697.00 1373.00
C 680.40 1374.66 660.52 1374.67 644.00 1373.00
C 637.84 1372.34 630.34 1374.32 625.00 1372.00
C 620.50 1371.36 614.67 1373.30 611.00 1371.00
C 602.07 1371.68 593.92 1369.32 585.00 1370.00
C 578.58 1370.03 571.60 1369.68 566.00 1368.00
C 495.86 1363.78 428.94 1342.52 371.00 1304.00
C 369.15 1303.03 366.76 1302.21 366.00 1300.00
C 357.92 1295.49 351.86 1287.95 344.00 1283.00
C 344.00 1312.67 344.00 1342.33 344.00 1372.00 Z"/>
</g>
</svg>